<?xml version="1.0" encoding="utf-8"?>
<!-- Generator: Adobe Illustrator 17.0.0, SVG Export Plug-In . SVG Version: 6.00 Build 0)  -->
<!DOCTYPE svg PUBLIC "-//W3C//DTD SVG 1.1//EN" "http://www.w3.org/Graphics/SVG/1.1/DTD/svg11.dtd">
<svg version="1.1" id="Calque_1" xmlns="http://www.w3.org/2000/svg" xmlns:xlink="http://www.w3.org/1999/xlink" x="0px" y="0px"
	 width="32.75px" height="31.625px" viewBox="0 0 32.75 31.625" enable-background="new 0 0 32.75 31.625" xml:space="preserve">
<circle fill="#FFFFFF" cx="16.75" cy="15.343" r="14.58"/>
<path fill="#505050" d="M17.995,7.821c0.651,0,1.178,0.527,1.178,1.178s-0.528,1.178-1.178,1.178c-0.651,0-1.178-0.527-1.178-1.178
	S17.344,7.821,17.995,7.821z M18.478,22.864c0.638-0.444,0.883-1.295,0.54-2.022l-1.879-3.945l1.386-4.63l1.376,1.311h1.86
	c0.561-0.034,1.035-0.342,1.299-0.792h-2.85l-1.233-1.166c-0.361-0.448-1.016-0.792-1.464-0.792h-3.204l-1.292,1.358
	c-0.373,0.421-0.485,0.979-0.352,1.485l1.98-2.064h1.277l-0.783,2.37c0.001,0.001-0.513,0.986,0.082,2.157
	C15.219,16.136,18.478,22.864,18.478,22.864z M13.744,18.326H10.44c0.129,0.766,0.794,1.352,1.597,1.352h2.415l1.158-1.2
	l-0.622-1.441L13.744,18.326L13.744,18.326z"/>
</svg>
