<?xml version="1.0" encoding="utf-8"?>
<!-- Generator: Adobe Illustrator 17.0.0, SVG Export Plug-In . SVG Version: 6.00 Build 0)  -->
<!DOCTYPE svg PUBLIC "-//W3C//DTD SVG 1.1//EN" "http://www.w3.org/Graphics/SVG/1.1/DTD/svg11.dtd">
<svg version="1.1" id="Calque_1" xmlns="http://www.w3.org/2000/svg" xmlns:xlink="http://www.w3.org/1999/xlink" x="0px" y="0px"
	 width="32.75px" height="31.625px" viewBox="0 0 32.75 31.625" enable-background="new 0 0 32.75 31.625" xml:space="preserve">
<circle fill="#FFFFFF" cx="16" cy="15.942" r="14.58"/>
<path id="obj_1_" fill="#505050" d="M16.69,25.281c0.317,0,0.575-0.215,0.575-0.531l-0.018-0.292l-0.447-9.12
	c0-0.441,0.341-0.813,0.788-0.897l0.001,0c0.45-0.051,0.786-0.44,0.786-0.904V8.004c0-0.005,0-0.01,0-0.015V7.047
	c0-0.245-0.206-0.443-0.452-0.443c-0.245,0-0.45,0.198-0.45,0.443v0.337l0,0v4.019c0,0.251-0.159,0.455-0.409,0.455
	c-0.251,0-0.491-0.204-0.491-0.455l-0.049-3.662V7.047c0-0.245-0.087-0.443-0.332-0.443h-0.214c-0.245,0-0.332,0.198-0.332,0.443
	v0.695l-0.049,3.662c0,0.251-0.239,0.455-0.491,0.455c-0.251,0-0.41-0.204-0.41-0.455V7.385l0,0V7.047
	c0-0.245-0.206-0.443-0.45-0.443c-0.245,0-0.451,0.198-0.451,0.443v0.941c0,0.005,0,0.01,0,0.015v5.532
	c0,0.464,0.336,0.853,0.786,0.904l0,0c0.443,0.069,0.788,0.456,0.788,0.897l-0.448,9.12l-0.018,0.292
	c0,0.316,0.257,0.531,0.575,0.531"/>
</svg>
