<?xml version="1.0" encoding="utf-8"?>
<!-- Generator: Adobe Illustrator 17.0.0, SVG Export Plug-In . SVG Version: 6.00 Build 0)  -->
<!DOCTYPE svg PUBLIC "-//W3C//DTD SVG 1.1//EN" "http://www.w3.org/Graphics/SVG/1.1/DTD/svg11.dtd">
<svg version="1.1" id="Calque_1" xmlns="http://www.w3.org/2000/svg" xmlns:xlink="http://www.w3.org/1999/xlink" x="0px" y="0px"
	 width="32.75px" height="31.625px" viewBox="0 0 32.75 31.625" enable-background="new 0 0 32.75 31.625" xml:space="preserve">
<circle fill="#FFFFFF" cx="16" cy="15.843" r="13.122"/>
<path fill="#505050" d="M22.908,18.251l1.102-0.935l-1.39-1.654c0.503-0.503,0.959-1.079,1.342-1.726l-0.695-0.431
	c-0.503-0.312-1.15-0.192-1.534,0.264c-1.342,1.654-3.355,2.612-5.536,2.612c-2.181,0-4.194-0.959-5.56-2.636
	c-0.36-0.455-1.031-0.575-1.534-0.264L8.36,13.913c0.407,0.671,0.887,1.27,1.414,1.798L8.48,17.245l1.102,0.935l1.294-1.534
	c0.479,0.336,0.983,0.623,1.534,0.863l-0.719,1.893l1.342,0.503l0.743-1.941c0.551,0.144,1.126,0.24,1.726,0.288v2.133h1.438v-2.133
	c0.599-0.048,1.198-0.144,1.75-0.288l0.767,1.989l1.342-0.503l-0.743-1.965c0.527-0.24,1.031-0.527,1.51-0.887L22.908,18.251z"/>
</svg>
