<?xml version="1.0" encoding="utf-8"?>
<!-- Generator: Adobe Illustrator 17.0.0, SVG Export Plug-In . SVG Version: 6.00 Build 0)  -->
<!DOCTYPE svg PUBLIC "-//W3C//DTD SVG 1.1//EN" "http://www.w3.org/Graphics/SVG/1.1/DTD/svg11.dtd">
<svg version="1.1" id="Calque_1" xmlns="http://www.w3.org/2000/svg" xmlns:xlink="http://www.w3.org/1999/xlink" x="0px" y="0px"
	 width="459px" height="76px" viewBox="0 0 459 76" enable-background="new 0 0 459 76" xml:space="preserve">
<g>
	<path fill="#9EFF00" d="M24.085,70.534c-2.35,2.393-5.169,3.46-8.587,3.46c-3.247,0-5.981-1.11-8.203-3.332
		C5.97,69.338,5.158,67.8,4.816,66.091s-0.513-4.23-0.513-7.562c0-3.333,0.171-5.854,0.513-7.562
		c0.342-1.752,1.154-3.247,2.479-4.571c2.222-2.222,4.956-3.333,8.203-3.333c6.921,0,10.638,4.443,11.45,9.741h-5.981
		c-0.727-2.947-2.521-4.443-5.469-4.443c-1.581,0-2.863,0.556-3.803,1.624c-1.111,1.41-1.453,2.521-1.453,8.545
		c0,5.981,0.256,7.178,1.453,8.588c0.897,1.067,2.179,1.58,3.803,1.58c1.751,0,3.161-0.555,4.229-1.709
		c0.897-1.025,1.367-2.393,1.367-4.059v-1.153h-5.597v-4.956h11.493v4.443C26.991,65.706,26.179,68.312,24.085,70.534z"/>
	<path fill="#9EFF00" d="M32.545,73.738v-30.42h20.038v5.298H38.483v7.135h12.006v5.298H38.483v7.392h14.099v5.298H32.545z"/>
	<path fill="#9EFF00" d="M70.014,48.616v25.122h-5.938V48.616h-7.947v-5.298h21.833v5.298H70.014z"/>
	<path fill="#9EFF00" d="M94.409,48.616v25.122h-5.938V48.616h-7.947v-5.298h21.833v5.298H94.409z"/>
	<path fill="#9EFF00" d="M107.185,73.738v-30.42h5.938v30.42H107.185z"/>
	<path fill="#9EFF00" d="M138.202,73.738l-12.048-18.671v18.671h-5.939v-30.42h5.298l12.049,18.628V43.318h5.938v30.42H138.202z"/>
	<path fill="#9EFF00" d="M169.348,70.534c-2.35,2.393-5.169,3.46-8.587,3.46c-3.247,0-5.981-1.11-8.203-3.332
		c-1.325-1.324-2.137-2.862-2.479-4.571s-0.513-4.23-0.513-7.562c0-3.333,0.171-5.854,0.513-7.562
		c0.342-1.752,1.154-3.247,2.479-4.571c2.222-2.222,4.956-3.333,8.203-3.333c6.921,0,10.638,4.443,11.45,9.741h-5.981
		c-0.727-2.947-2.521-4.443-5.469-4.443c-1.581,0-2.863,0.556-3.803,1.624c-1.111,1.41-1.453,2.521-1.453,8.545
		c0,5.981,0.256,7.178,1.453,8.588c0.897,1.067,2.179,1.58,3.803,1.58c1.751,0,3.161-0.555,4.229-1.709
		c0.897-1.025,1.367-2.393,1.367-4.059v-1.153h-5.597v-4.956h11.493v4.443C172.253,65.706,171.441,68.312,169.348,70.534z"/>
	<path fill="#9EFF00" d="M199.34,48.616v25.122h-5.938V48.616h-7.947v-5.298h21.833v5.298H199.34z"/>
	<path fill="#9EFF00" d="M229.675,70.662c-2.136,2.136-4.743,3.332-8.203,3.332s-6.11-1.196-8.246-3.332
		c-3.076-3.076-2.991-6.879-2.991-12.134s-0.085-9.058,2.991-12.134c2.136-2.137,4.785-3.333,8.246-3.333s6.067,1.196,8.203,3.333
		c3.076,3.076,3.034,6.879,3.034,12.134S232.751,67.586,229.675,70.662z M225.274,49.983c-0.854-0.982-2.179-1.624-3.802-1.624
		s-2.991,0.642-3.845,1.624c-1.153,1.281-1.453,2.691-1.453,8.545s0.299,7.263,1.453,8.545c0.854,0.982,2.222,1.623,3.845,1.623
		s2.948-0.641,3.802-1.623c1.154-1.282,1.496-2.691,1.496-8.545S226.428,51.265,225.274,49.983z"/>
	<path fill="#9EFF00" d="M266.375,73.738l-7.818-13.843l-3.931,4.699v9.144h-5.938v-30.42h5.938v13.244l10.724-13.244h7.221
		l-10.083,12.091l10.81,18.329H266.375z"/>
	<path fill="#9EFF00" d="M295.086,73.738l-12.049-18.671v18.671h-5.938v-30.42h5.298l12.049,18.628V43.318h5.938v30.42H295.086z"/>
	<path fill="#9EFF00" d="M325.891,70.662c-2.137,2.136-4.743,3.332-8.203,3.332c-3.461,0-6.11-1.196-8.246-3.332
		c-3.076-3.076-2.991-6.879-2.991-12.134s-0.085-9.058,2.991-12.134c2.136-2.137,4.785-3.333,8.246-3.333
		c3.46,0,6.066,1.196,8.203,3.333c3.076,3.076,3.033,6.879,3.033,12.134S328.967,67.586,325.891,70.662z M321.489,49.983
		c-0.854-0.982-2.179-1.624-3.802-1.624c-1.624,0-2.991,0.642-3.846,1.624c-1.153,1.281-1.453,2.691-1.453,8.545
		s0.3,7.263,1.453,8.545c0.854,0.982,2.222,1.623,3.846,1.623c1.623,0,2.947-0.641,3.802-1.623c1.153-1.282,1.495-2.691,1.495-8.545
		S322.643,51.265,321.489,49.983z"/>
	<path fill="#9EFF00" d="M360.498,73.738h-4.957l-5.597-18.457l-5.597,18.457h-4.956l-8.118-30.42h6.195l4.7,19.184l5.554-19.184
		h4.443l5.555,19.184l4.742-19.184h6.195L360.498,73.738z"/>
	<path fill="#9EFF00" d="M393.993,61.263v12.476h-5.896V61.263l-9.143-17.944h6.451l5.683,12.262l5.597-12.262h6.451L393.993,61.263
		z"/>
	<path fill="#9EFF00" d="M424.797,70.662c-2.136,2.136-4.742,3.332-8.203,3.332c-3.46,0-6.109-1.196-8.245-3.332
		c-3.076-3.076-2.991-6.879-2.991-12.134s-0.085-9.058,2.991-12.134c2.136-2.137,4.785-3.333,8.245-3.333
		c3.461,0,6.067,1.196,8.203,3.333c3.076,3.076,3.034,6.879,3.034,12.134S427.873,67.586,424.797,70.662z M420.396,49.983
		c-0.854-0.982-2.179-1.624-3.803-1.624c-1.623,0-2.99,0.642-3.845,1.624c-1.153,1.281-1.452,2.691-1.452,8.545
		s0.299,7.263,1.452,8.545c0.854,0.982,2.222,1.623,3.845,1.623c1.624,0,2.948-0.641,3.803-1.623
		c1.154-1.282,1.496-2.691,1.496-8.545S421.551,51.265,420.396,49.983z"/>
	<path fill="#9EFF00" d="M444.621,73.994c-6.238,0-11.193-4.229-11.193-10.681V43.318h5.938V63.1c0,3.504,2.051,5.597,5.255,5.597
		s5.298-2.093,5.298-5.597V43.318h5.896v19.995C455.814,69.765,450.859,73.994,444.621,73.994z"/>
</g>
<g>
	<g>
		<path fill="#FFFFFF" d="M31.218,26.458c-0.087,0.08-0.03,0.242-0.065,0.363c-0.132,0.283-0.384,0.445-0.545,0.646
			c-0.156,0.323-0.299,0.686-0.548,0.969c-0.006,0.202,0.222,0.081,0.23,0.323c-0.151,0.121-0.159-0.122-0.339-0.081
			c-0.372,0.041-0.6,0.161-0.785,0.404c-0.37,0.485-0.554,1.171-0.842,1.777c-0.176,0.161-0.52,0.283-0.719,0.484
			c-0.389,0.323-0.454,0.686-0.621,1.09c0.1,0.282,0.257-0.041,0.342,0.202c-0.539,0.444-0.747,1.17-1.378,1.575
			c-0.145,0.687-0.91,0.929-1.319,1.413c-0.773,0-1.292,0.283-2.146,0.162c-0.145-0.081-0.303-0.203-0.511-0.242
			c-0.397-0.687-1.048-0.889-1.423-1.292c-0.254-0.283-0.535-0.97-0.667-1.454c-0.211-0.928,0.047-2.059,0.212-2.907
			c0.545-2.624,1.297-5.531,2.061-7.753c-1.037,0.565-1.549,1.857-2.582,2.545c-0.674,1.05-1.521,1.938-2.233,2.987
			c-0.616,0.444-0.927,1.211-1.437,1.736c-0.161,0.202-0.39,0.323-0.551,0.525c-0.286,0.283-0.323,0.727-0.533,1.009
			c-0.164,0.081-0.367,0.162-0.528,0.364c-0.137,0.161-0.206,0.403-0.342,0.565c-0.2,0.202-0.621,0.322-0.552,0.847
			c-1.278,1.09-2.187,2.464-3.397,3.634c-0.482,0.606-1.018,1.171-1.514,1.737c-0.726,0.686-1.505,1.655-2.455,2.14
			c-0.95,0.485-2.112,0.041-2.464-1.615c-0.193-0.767,0.127-1.615,0.358-2.382c1.389-4.725,3.32-9.004,5.618-13.123
			c1.398-2.504,2.65-4.765,4.075-6.865c1.278-1.857,2.659-3.755,3.894-5.734c0.245-0.403,0.57-1.453,1.605-0.928
			c0.275,0.122,0.972,0.889,1.385,1.292c0.772,0.767,2.229,1.938,2.102,3.109c-0.082,0.646-1.104,0.929-1.569,1.252
			c-0.214,0.162-0.244,0.404-0.366,0.606c-0.263,0.242-0.55,0.525-0.76,0.808c-1.854,1.978-3.383,4.441-4.785,6.823
			c-0.262-0.525-0.496-0.969-0.867-1.251c-0.746,0.404-0.883,1.333-1.562,1.817c-0.139,0.485-0.604,0.808-0.647,1.454
			c-0.224,0.243-0.5,0.445-0.393,0.97c-0.878,1.13-1.49,2.462-2.237,3.634c0.006,0.564-0.356,1.292-0.639,1.695
			c-0.126,0.081-0.229,0.122-0.302,0.242c-0.146,0.242-0.067,0.686-0.517,0.727c-0.639,1.696-2.006,2.867-2.168,4.926
			c1.064-0.928,1.956-2.019,2.809-3.109c2.626-3.189,5.3-6.461,8.07-9.57c1.836-2.14,3.502-4.32,5.392-6.42
			c0.959-1.009,1.932-1.978,2.876-3.028c0.959-1.009,1.677-2.261,2.876-3.028c1.066,0.283,1.827,0.686,2.696,1.615
			c0.629,0.687,0.527,1.495,0.132,2.02c-0.021,0.161,0.216,0.282,0.114,0.322c-0.311,0.767-1.043,1.212-1.458,1.898
			c-0.551,0.848-0.877,1.898-1.616,2.544c-0.612,1.333-1.197,2.745-1.65,4.2c-0.116,0-0.197-0.122-0.338-0.081
			c-0.112,0.122-0.354,0.202-0.49,0.364c-0.05,0.08,0.008,0.242-0.09,0.403c-0.017,0.283-0.399,0.404-0.229,0.889
			c-0.295,0.041-0.312,0.322-0.5,0.444c0.038,0.767-0.39,1.09-0.351,1.857c0.657-0.767,1.3-1.575,1.905-2.382
			c1.789-2.382,3.603-4.805,5.627-7.066c-0.396,0.848-1.11,1.454-1.666,2.181c-0.557,0.727-0.9,1.615-1.456,2.342
			c-0.391,0.646-0.979,1.171-1.461,1.777c-0.353,0.646-0.874,1.251-1.226,1.898c0.257-0.041,0.248-0.283,0.543-0.323
			c1.186-1.575,2.566-3.028,3.844-4.562c0.975-0.525,1.455-1.575,2.084-2.423c0.72-0.808,1.532-1.575,2.123-2.423
			c0.111-0.121,0.104-0.363,0.215-0.484c0.084-0.202,0.441-0.283,0.328-0.605c0.246,0.04,0.175-0.162,0.33-0.162
			c0.077,0-0.086-0.242-0.022-0.283c0.116,0,0.12,0.122,0.197,0.122c0.007-0.202,0.026-0.364,0.047-0.525
			c2.317-2.747,4.65-5.451,6.271-8.642c-0.208-0.041-0.259,0.364-0.54,0.445c-1.239,1.857-2.842,3.674-4.327,5.491
			c-0.21,0.283-0.497,0.565-0.667,0.849c-0.27,0.444-0.412,0.808-0.854,1.09c-0.364,0.283-0.541,0.767-0.877,1.13
			c-0.399,0.404-0.836,0.808-1.221,1.252c-0.424,0.444-0.756,0.928-1.169,1.292c-0.148-0.203,0.108-0.242,0.182-0.364
			c1.5-1.776,2.972-3.634,4.521-5.492c1.149-1.453,2.31-2.987,3.455-4.562c0.566-0.808,1.126-1.414,0.984-2.584
			c0.102-0.041,0.256-0.041,0.396-0.081c-0.047-0.242-0.079-0.444-0.126-0.686c-0.197-0.122-0.517-0.041-0.71-0.041
			c-0.1-0.283-0.561-0.161-0.762-0.403c-0.531-0.081-0.991,0.04-1.42-0.081c-0.022-0.283,0.498-0.122,0.621-0.323
			c-0.584-0.121-1.152,0.242-1.732,0.242c-0.203,0.081-0.188-0.202-0.355-0.242c-0.408,0.162-0.892,0.323-1.515,0.202
			c0.828-0.283,1.977-0.646,3.055-0.767c0.218-0.041,0.661,0.121,0.716-0.162c-1.082,0-2.595-0.122-3.312,0.364
			c-0.492-0.081-0.682,0.04-0.79,0.282c-2.427,0.243-4.253,1.535-6.687,1.979c1.125-0.646,2.543-1.009,3.827-1.534
			c0.597-0.283,1.261-0.484,1.948-0.727c0.804-0.243,1.544-0.445,2.387-0.687c0.601-0.161,0.989-0.484,1.742-0.323
			c0.193,0,0.176-0.161,0.315-0.202c0.661,0.122,0.871-0.161,1.543-0.121c0.258,0.403,0.631,0.363,1.089,0.565
			c0.26,0.08,0.514,0.363,0.645,0.403c0.366,0.162,0.686,0.081,0.989,0.283c0.342,0.202,0.505,0.444,0.928,0.768
			c0.477,1.131,0.647,1.615,0.188,2.18c-0.195,0.323-0.783,0.848-0.395,1.292c-0.305,0.122-0.293,0.485-0.709,0.404
			C42.893,8.69,42.8,8.973,42.879,9.418c-0.616,0.444-0.742,1.292-1.239,1.856c-0.05,0.081,0.1,0.283-0.056,0.283
			c-0.671,1.495-1.978,2.504-2.543,4.079c-0.117,0-0.232,0-0.311,0c-0.136,0.161-0.152,0.444-0.316,0.525
			c-0.012,0.08-0.18,0.04-0.296,0.04c-0.265,0.565-0.755,0.929-1.126,1.414c-0.16,0.202-0.23,0.444-0.391,0.646
			c-0.262,0.242-0.736,0.323-0.667,0.849c0.215,0.283,0.189-0.121,0.411-0.041c-0.23,0.445-0.605,0.808-0.874,1.251
			c-0.244,0.404-0.565,0.808-0.901,1.171c-0.389,0.323-0.604,0.808-0.901,1.17c-0.322,0.404-0.735,0.767-0.796,1.252
			c0.601-0.162,0.643-0.808,1.095-1.171c-0.032,0.565-0.452,1.131-0.999,1.333c-0.086,0.525-0.277,0.969-0.839,1.131
			c0.041-0.323,0.385-0.445,0.372-0.808c-0.361-0.04-0.329,0.162-0.321,0.404c-0.295,0.041-0.272,0.323-0.342,0.565
			c0.105,0.081,0.218-0.041,0.242-0.081C32.203,25.852,31.473,25.973,31.218,26.458z M27.99,31.667
			c0.195-0.323,0.179-0.808,0.639-0.929c0.126-0.081,0.065-0.363,0.139-0.484c0.246,0.041,0.266-0.122,0.406-0.161
			C28.899,30.737,28.385,31.142,27.99,31.667z M29.35,29.93c-0.022-0.283,0.289-0.605,0.517-0.727
			C29.744,29.405,29.626,29.728,29.35,29.93z M33.522,19.835c-0.466,0.323-0.657,0.767-1.138,1.05
			c0.088,0.687-0.749,0.727-0.781,1.292c0.834-0.484,1.63-1.736,2.214-2.382c0.2-0.202,0.467-0.322,0.212-0.605
			c-0.059,0.162-0.186,0.243-0.402,0.283C33.553,19.593,33.571,19.755,33.522,19.835z M37.213,15.716
			c-0.098,0.162-0.407,0.162-0.322,0.404C37.07,16.08,37.168,15.918,37.213,15.716z M37.363,15.596
			c0.525-0.484,1.07-1.131,1.269-1.777c-0.636,0.282-0.53,1.13-1.231,1.332C37.38,15.313,37.278,15.354,37.363,15.596z"/>
		<path fill="#FFFFFF" d="M48.219,23.792c0.216,0.283,0.751,0.485,0.952,0.727c0,0-0.034,0.122,0.008,0.242
			c0.062,0.283,0.267,0.646,0.444,0.929c-0.074,0.121-0.007,0.202,0.128,0.363c0.109,0.202,0.258,0.404,0.319,0.687
			c0.053,0.04,0.207,0.04,0.274,0.121c-0.102,0.041-0.222-0.081-0.31,0c0.019,0.161-0.068,0.242-0.146,0.242
			c-0.238,0.202-0.474,0.081-0.721,0.041c-0.13-0.041-0.27,0-0.449,0.041c-0.141,0.041-0.281,0.081-0.421,0.121
			c-0.833,0.162-1.545,0.445-2.378,0.606c-0.087,0.081-0.188,0.122-0.314,0.202c-0.649,0.242-1.236,0.445-1.909,0.727
			c-0.116,0-0.204,0.081-0.344,0.122c-0.103,0.041-0.243,0.081-0.33,0.162c-0.141,0.041-0.203,0.081-0.344,0.121
			c-0.558,0.283-1.053,0.525-1.61,0.808c-0.164,0.08-0.354,0.202-0.519,0.283c-1.213,0.727-2.32,1.534-3.466,2.342
			c-0.15,0.121-0.302,0.242-0.529,0.363c-0.122,0.202-0.456,0.242-0.564,0.484c0.251,0.162,0.482,0.162,0.623,0.122
			c0.155,0,0.271,0,0.411-0.041c0.179-0.041,0.334-0.041,0.46-0.121c1.838-0.162,3.441-0.768,5.141-1.212
			c0.203-0.081,0.383-0.121,0.586-0.202c0.358-0.081,0.649-0.242,1.07-0.364c0.154,0,0.296-0.04,0.437-0.08
			c0.789-0.283,1.501-0.565,2.253-0.848c0.179-0.041,0.329-0.161,0.547-0.202c0.698-0.323,1.339-0.808,2.234-1.009
			c-0.747,0.403-1.575,0.686-2.304,1.251c-0.126,0.081-0.276,0.202-0.479,0.283c-0.685,0.363-1.368,0.727-2.076,1.13
			c-0.127,0.081-0.253,0.162-0.432,0.203c-0.369,0.161-0.684,0.363-0.989,0.484c-0.204,0.08-0.393,0.202-0.533,0.242
			c-0.725,0.686-2.131,0.646-2.648,1.373c-0.391,0.646-1.388,0.122-1.792,0.728c-0.232,0-0.489,0.04-0.625,0.202
			c-0.193,0-0.396,0.081-0.601,0.161c-0.46,0.122-0.987,0.162-1.591,0.202c-0.518-0.04-1.158-0.322-1.466-0.646
			c0.43,0.889-1.261-0.727-0.309-3.836c0.421-0.889,0.901-1.938,1.521-2.706c0.4,0.041,0.332-0.484,0.708-0.403
			c-0.067-0.081-0.028-0.081-0.071-0.202l0.071,0.202c0.193,0,0.225-0.242,0.277-0.202c0.075,0.322-0.069,0.242-0.157,0.322
			c-0.154,0-0.111,0.122-0.122,0.203c-0.112,0.121-0.306,0.121-0.276,0.202c0.134,0.161,0.183,0.08,0.154,0
			c0.057,0.161-0.002,0.323-0.114,0.444c-0.301,0.243-0.647,0.687-0.751,1.05c0.267-0.122,0.279-0.525,0.637-0.606
			c0.805-1.01,1.552-2.18,2.567-3.028c-0.096-0.161,0.175-0.161,0.171-0.283c-0.232,0-0.252,0.162-0.418,0.242
			c-0.111,0.122-0.344,0.122-0.479,0.283c-0.2,0.202-0.424,0.444-0.729,0.565c0.021-0.161,0.229-0.122,0.249-0.283
			c0.049-0.081,0.137-0.161,0.108-0.242l0.335-0.364c0.063-0.04-0.12-0.121-0.085-0.242c0.175-0.161,0.471-0.202,0.472-0.525
			c0.482-0.605,1.173-1.17,1.881-1.575c0.704-0.525,1.412-0.929,2.289-1.292c0.829-0.282,1.686-0.484,2.69-0.484
			c0.504,0,0.875-0.041,1.319,0.122c0.154,0,0.376,0.081,0.443,0.161c0.13,0.041,0.342,0.202,0.563,0.283
			c0.236,0.122,0.521,0.162,0.888,0.323C48.115,23.389,48.2,23.631,48.219,23.792z M34.685,30.697c-0.116,0-0.141,0.041-0.242,0.081
			C34.65,30.818,34.685,30.697,34.685,30.697z M35.564,29.243c-0.141,0.041-0.098,0.162-0.098,0.162S35.578,29.284,35.564,29.243z
			 M38.676,29.405c-0.015-0.041-0.078,0-0.165,0.081C38.511,29.486,38.627,29.486,38.676,29.405z M43.212,25.933
			c-0.969,0.322-1.866,0.847-2.557,1.413c1.313-0.444,2.478-1.09,3.794-1.413c0.393-0.202,0.882-0.242,1.273-0.445
			c-0.327-0.161-0.646-0.08-0.955-0.08L43.212,25.933z"/>
		<path fill="#FFFFFF" d="M83.585,22.661c0.015,0.041,0.019,0.162-0.005,0.203c0.355,1.009-0.55,1.292-0.864,1.938
			c-0.708,0.404-0.915,1.131-1.585,1.534c-0.035,0.122-0.175,0.162-0.273,0.323c0.067,0.081,0.208,0.041,0.193,0
			c-0.182,0.363-0.555,0.727-0.654,1.211c-0.184-0.08-0.029-0.08-0.082-0.121c-0.36,0.403-0.354,0.969-0.859,1.292
			c0.029,0.081,0.12,0.121,0.043,0.121c-0.154,0-0.107,0.242-0.209,0.283c0.014,0.041,0.066,0.081,0.066,0.081
			c-0.04,0.323-0.328,0.605-0.432,0.969c-0.038,0-0.102,0.041-0.203,0.081c0.057,0.161,0.145,0.08,0.096,0.161
			c-0.062,0.041-0.092-0.041-0.218,0.041c-0.053-0.041-0.01,0.081-0.049,0.081c0.067,0.08,0.053,0.041,0.12,0.121
			c-0.069,0.242-0.153,0.444-0.342,0.565c0.098,0.606-0.316,0.969-0.261,1.453c-0.078,0-0.116,0-0.116,0
			c0.057,0.162,0.047,0.242-0.013,0.404c-0.067-0.081-0.091-0.041-0.246-0.041c-0.057-0.161,0.246,0.041,0.253-0.161
			c-0.145-0.081-0.116,0-0.219,0.04c0.033-0.564,0.235-1.089,0.215-1.695c-0.054-0.041-0.054-0.041-0.131-0.041
			c-0.094,0.283-0.057,0.606-0.218,0.808c0.057,0.161,0.032,0.202,0.075,0.323c-0.272,1.09-0.176,2.463,0.376,3.917
			c0.043,0.121,0.116,0,0.155,0c0.042,0.121,0.004,0.121,0.018,0.161c-0.053-0.041-0.053-0.041-0.116,0
			c0.039,0-0.01,0.081,0.054,0.041c0.015,0.041,0.109,0.202,0.086,0.242c0.887,1.857,2.905,0.565,3.609,0.041
			c-0.098,0.161-0.287,0.283-0.332,0.484c-0.616,0.444-1.258,0.928-2.312,1.009c-0.464,0-0.94-0.364-1.29-0.808
			c-2.259-4.32-0.435-6.823-0.097-9.812c-0.651,0.565-1.366,1.171-2.031,1.696c0.082,0.122,0.222,0.081,0.274,0.122
			c-0.102,0.041-0.318,0.081-0.34,0.242c-0.68,0.484-1.465,0.889-1.957,1.575c-0.379,0.242-0.743,0.525-1.238,0.767
			c-0.481,0.606-0.988,1.251-1.827,1.615c0.081,0.121,0.004,0.121,0.085,0.242c-0.154,0-0.313-0.122-0.404-0.162
			c-0.039,0-0.103,0.041-0.103,0.041c-0.25-0.161-0.515-0.363-0.765-0.525c-0.543-0.444-1.471-1.211-1.014-1.776
			c-0.038,0-0.028-0.08-0.042-0.121c0.95-2.02,2.377-3.675,4.069-5.128c0.14-0.041-0.011,0.08,0.004,0.121
			c0.231,0,0.416-0.242,0.5-0.444c0.024-0.041-0.038,0-0.092-0.041c2.266-2.019,5.116-3.473,8.965-4.401
			c0.102-0.041,0.131,0.041,0.197,0.121c0.165-0.08,0.211-0.282,0.354-0.202c0.024-0.041,0.05-0.08,0.073-0.121
			C82.865,21.935,83.226,22.298,83.585,22.661z M77.903,26.175c-1.738,1.211-3.327,2.625-4.836,4.159
			C74.816,29.042,76.473,27.709,77.903,26.175z"/>
		<path fill="#FFFFFF" d="M103.074,23.106l0.058,0.161c-0.039,0-0.024,0.041-0.049,0.081c-0.116,0-0.073,0.121-0.189,0.121
			c-0.011,0.081-0.049,0.081,0.004,0.122c-0.263,0.242-0.563,0.484-0.802,0.687c-0.315,0.202-0.656,0.444-0.946,0.606
			c0.015,0.041-0.063,0.041-0.073,0.121c-0.319,0.081-0.41,0.484-0.704,0.525c-0.015-0.041,0.188-0.121,0.136-0.161
			c-0.141,0.041-0.319,0.081-0.406,0.161c0,0,0,0-0.015-0.041l-0.098,0.162c0.015,0.041,0.015,0.041-0.116,0
			c0.004,0.121-0.146,0.242-0.262,0.242c0.144,0.081,0.183,0.081,0.154,0c0.042,0.121-0.074,0.121-0.238,0.202
			c-0.039,0-0.039,0-0.088,0.081c-0.059,0.161-0.209,0.283-0.427,0.323c0.111-0.122,0.314-0.203,0.389-0.323
			c-0.292,0.161-0.544,0.323-0.69,0.565c-0.126,0.08-0.083,0.202-0.107,0.242c-0.193,0-0.271,0-0.354,0.202l-0.132,0.283
			c-0.193,0-0.31,0-0.373,0.041l-0.267,0.121c-0.038,0-0.028-0.081-0.028-0.081c-0.383,0.122-0.398,0.404-0.749,0.728l-0.345,0.121
			c-0.217,0.041-0.276,0.202-0.363,0.283c-0.049,0.081-0.186,0.242-0.312,0.323c-0.13-0.041-0.214,0.162-0.228,0.121
			c-0.025,0.041-0.06,0.162-0.123,0.202c-0.344,0.121-0.311,0.323-0.419,0.565c-0.15,0.122-0.354,0.203-0.442,0.283
			c-0.311,0.323-0.27,0.767-0.596,1.05c-0.105-0.08,0.035-0.121-0.008-0.242c0.319-0.848,0.875-1.575,1.247-2.383
			c0.024-0.04,0.024-0.04,0.103-0.04c-0.043-0.122-0.004-0.122-0.019-0.162c0.228-0.121,0.228-0.121,0.224-0.242
			c-0.053-0.041,0,0-0.024,0.041c-0.043-0.122,0.031-0.242,0.108-0.242c0.116,0-0.015-0.041-0.043-0.122c0.038,0,0.038,0,0.038,0
			c0.106,0.081,0.106,0.081,0.106,0.081c0.346-0.444,0.674-1.05,1.049-1.413c0,0,0,0-0.078,0c0.063-0.041,0.175-0.162,0.262-0.243
			c0.05-0.08,0.127-0.08,0.099-0.161c0.248-0.283,0.521-0.606,0.717-0.928c0.233-0.323,0.56-0.606,0.808-0.889
			c-1.813,0.889-3.352,1.898-4.731,3.028c-0.214,0.162-0.495,0.242-0.603,0.485h-0.039c-0.287,0.282-0.641,0.484-0.956,0.686
			c-0.21,0.283-0.399,0.403-0.608,0.687c-0.074,0.121-0.249,0.283-0.322,0.404c0.015,0.04-0.126,0.08-0.281,0.08
			c0.053,0.041-0.062,0.041-0.073,0.122c-2.071,2.019-4.007,4.643-4.813,7.51c-0.077,0-0.154,0-0.242,0.08
			c-0.028-0.08-0.232,0-0.352-0.121c0,0,0,0-0.015-0.041c-0.145-0.081-0.3-0.081-0.443-0.161c-0.236-0.122-0.43-0.122-0.472-0.242
			c-0.127,0.08-0.261-0.081-0.392-0.122c-0.071-0.202-0.015-0.041-0.071-0.202c-0.193,0-0.269-0.323-0.17-0.484
			c-0.054-0.041-0.155,0-0.17-0.041c-0.148-0.202-0.012-0.364,0.062-0.484c0.071-0.565,0.345-0.889,0.468-1.414
			c0.171-0.283,0.27-0.444,0.324-0.727c0.107-0.242,0.206-0.403,0.222-0.686c0.103-0.041,0.118-0.323,0.216-0.484l1.472-4.159
			c0.088-0.081,0.118-0.323,0.308-0.445c0.041-0.322,0.169-0.727,0.389-1.089c0.21-0.283,0.261-0.687,0.467-1.09
			c0.209-0.283,0.299-0.686,0.547-0.969c0.21-0.283,0.366-0.606,0.457-1.009c0.102-0.041,0.146-0.242,0.181-0.364
			c0.063-0.041,0.034-0.122,0.122-0.202c0.062-0.041,0.189-0.122,0.305-0.122c0.525,0.283,1.602,1.251,2.103,1.575l0.975,1.009
			c0,0,0.154,0,0.222,0.081c0.028,0.081,0.12,0.121,0.12,0.121c0.52-0.282,0.845-0.564,1.494-0.807
			c1.367-0.728,2.523-1.616,4.103-2.181c0.421-0.122,0.775-0.323,1.158-0.444c0.498-0.122,0.973-0.203,1.504-0.122
			c0.028,0.081,0.077,0,0.077,0c0.067,0.081,0.038,0,0.077,0c0.154,0,0.154,0,0.197,0.122c0.039,0,0,0-0.072,0.121
			c0.115,0,0.27,0,0.256-0.041c0.154,0,0.231,0,0.342,0.203c0.137-0.162,0.443,0.161,0.56,0.161
			c0.267-0.122-0.156-0.444,0.098-0.161c-0.038,0-0.038,0-0.077,0c0.057,0.161,0.039,0,0.096,0.161c-0.039,0,0,0,0.014,0.041
			c-0.038,0-0.087,0.081-0.203,0.081c0.236,0.121,0.281-0.081,0.426,0c-0.029-0.081-0.029-0.081,0.034-0.122
			c-0.021,0.161,0.159,0.122,0.124,0.242h0.077C102.912,22.864,102.916,22.984,103.074,23.106z M92.363,28.476l0.015,0.041
			C92.378,28.517,92.378,28.517,92.363,28.476z M94.816,25.892c-0.123,0.202-0.26,0.363-0.529,0.363
			c0.014,0.041,0.053,0.041,0.053,0.041c-0.33,0.162-0.385,0.445-0.743,0.525c0.043,0.122-0.252,0.162-0.195,0.323
			c0.442-0.283,0.662-0.646,1.055-0.848c-0.015-0.041-0.015-0.041,0.101-0.041C94.684,26.175,94.82,26.013,94.816,25.892z
			 M95.192,28.274c0.015,0.041,0.015,0.041,0.004,0.121C95.168,28.315,95.192,28.274,95.192,28.274z M95.192,28.274c0,0,0,0,0.077,0
			C95.27,28.274,95.27,28.274,95.192,28.274z M95.632,29.082l0.049-0.081C95.709,29.082,95.632,29.082,95.632,29.082z M98.9,26.619
			c0,0,0.01-0.081,0.087-0.081C98.91,26.538,98.9,26.619,98.9,26.619z M98.987,26.538l0.025-0.04
			C99.013,26.498,99.026,26.538,98.987,26.538z M100.954,22.136c-0.429-0.121-0.995-0.08-1.479,0.081h-0.039
			c0.296-0.041,0.552-0.081,0.799-0.041c-0.219,0.041-0.373,0.041-0.45,0.041c0.116,0,0.507,0.122,0.734,0
			c-0.057-0.161-0.231,0-0.284-0.041C100.462,22.056,100.712,22.217,100.954,22.136z M103.046,23.025c0,0,0.015,0.041,0.043,0.122
			c-0.015-0.041-0.015-0.041-0.015-0.041L103.046,23.025z"/>
		<path fill="#FFFFFF" d="M115.922,23.792c0.216,0.283,0.751,0.485,0.953,0.727c0,0-0.035,0.122,0.008,0.242
			c0.061,0.283,0.266,0.646,0.443,0.929c-0.073,0.121-0.006,0.202,0.128,0.363c0.11,0.202,0.259,0.404,0.319,0.687
			c0.053,0.04,0.208,0.04,0.275,0.121c-0.102,0.041-0.223-0.081-0.31,0c0.019,0.161-0.069,0.242-0.146,0.242
			c-0.238,0.202-0.475,0.081-0.721,0.041c-0.13-0.041-0.271,0-0.449,0.041c-0.141,0.041-0.281,0.081-0.422,0.121
			c-0.832,0.162-1.545,0.445-2.377,0.606c-0.088,0.081-0.188,0.122-0.315,0.202c-0.649,0.242-1.235,0.445-1.909,0.727
			c-0.116,0-0.203,0.081-0.344,0.122c-0.102,0.041-0.242,0.081-0.329,0.162c-0.141,0.041-0.204,0.081-0.345,0.121
			c-0.558,0.283-1.052,0.525-1.609,0.808c-0.165,0.08-0.354,0.202-0.519,0.283c-1.213,0.727-2.32,1.534-3.467,2.342
			c-0.15,0.121-0.301,0.242-0.529,0.363c-0.122,0.202-0.456,0.242-0.563,0.484c0.25,0.162,0.482,0.162,0.623,0.122
			c0.154,0,0.271,0,0.411-0.041c0.179-0.041,0.334-0.041,0.46-0.121c1.837-0.162,3.441-0.768,5.141-1.212
			c0.203-0.081,0.383-0.121,0.586-0.202c0.358-0.081,0.649-0.242,1.07-0.364c0.154,0,0.295-0.04,0.436-0.08
			c0.79-0.283,1.502-0.565,2.253-0.848c0.179-0.041,0.33-0.161,0.547-0.202c0.698-0.323,1.34-0.808,2.235-1.009
			c-0.747,0.403-1.575,0.686-2.304,1.251c-0.126,0.081-0.277,0.202-0.48,0.283c-0.684,0.363-1.367,0.727-2.076,1.13
			c-0.126,0.081-0.252,0.162-0.432,0.203c-0.368,0.161-0.684,0.363-0.988,0.484c-0.204,0.08-0.394,0.202-0.533,0.242
			c-0.725,0.686-2.131,0.646-2.648,1.373c-0.391,0.646-1.388,0.122-1.793,0.728c-0.232,0-0.488,0.04-0.625,0.202
			c-0.193,0-0.396,0.081-0.6,0.161c-0.461,0.122-0.987,0.162-1.592,0.202c-0.518-0.04-1.158-0.322-1.465-0.646
			c0.429,0.889-1.262-0.727-0.309-3.836c0.421-0.889,0.901-1.938,1.52-2.706c0.401,0.041,0.332-0.484,0.709-0.403
			c-0.067-0.081-0.029-0.081-0.071-0.202l0.071,0.202c0.193,0,0.224-0.242,0.277-0.202c0.074,0.322-0.07,0.242-0.158,0.322
			c-0.154,0-0.111,0.122-0.121,0.203c-0.112,0.121-0.306,0.121-0.277,0.202c0.135,0.161,0.184,0.08,0.155,0
			c0.057,0.161-0.003,0.323-0.114,0.444c-0.302,0.243-0.647,0.687-0.751,1.05c0.267-0.122,0.278-0.525,0.637-0.606
			c0.804-1.01,1.551-2.18,2.566-3.028c-0.096-0.161,0.176-0.161,0.171-0.283c-0.231,0-0.252,0.162-0.417,0.242
			c-0.111,0.122-0.344,0.122-0.479,0.283c-0.2,0.202-0.424,0.444-0.729,0.565c0.021-0.161,0.228-0.122,0.249-0.283
			c0.048-0.081,0.136-0.161,0.107-0.242l0.336-0.364c0.062-0.04-0.12-0.121-0.086-0.242c0.176-0.161,0.471-0.202,0.473-0.525
			c0.482-0.605,1.172-1.17,1.881-1.575c0.703-0.525,1.412-0.929,2.289-1.292c0.828-0.282,1.686-0.484,2.69-0.484
			c0.503,0,0.875-0.041,1.318,0.122c0.155,0,0.377,0.081,0.444,0.161c0.13,0.041,0.341,0.202,0.562,0.283
			c0.236,0.122,0.521,0.162,0.888,0.323C115.818,23.389,115.904,23.631,115.922,23.792z M102.389,30.697
			c-0.117,0-0.141,0.041-0.242,0.081C102.354,30.818,102.389,30.697,102.389,30.697z M103.268,29.243
			c-0.141,0.041-0.098,0.162-0.098,0.162S103.281,29.284,103.268,29.243z M106.379,29.405c-0.015-0.041-0.077,0-0.165,0.081
			C106.214,29.486,106.33,29.486,106.379,29.405z M110.916,25.933c-0.969,0.322-1.866,0.847-2.557,1.413
			c1.312-0.444,2.477-1.09,3.794-1.413c0.393-0.202,0.881-0.242,1.273-0.445c-0.327-0.161-0.647-0.08-0.956-0.08L110.916,25.933z"/>
	</g>
</g>
</svg>
