<?xml version="1.0" encoding="utf-8"?>
<!-- Generator: Adobe Illustrator 17.0.0, SVG Export Plug-In . SVG Version: 6.00 Build 0)  -->
<!DOCTYPE svg PUBLIC "-//W3C//DTD SVG 1.1//EN" "http://www.w3.org/Graphics/SVG/1.1/DTD/svg11.dtd">
<svg version="1.1" id="Calque_1" xmlns="http://www.w3.org/2000/svg" xmlns:xlink="http://www.w3.org/1999/xlink" x="0px" y="0px"
	 width="418px" height="128px" viewBox="0 0 418 128" enable-background="new 0 0 418 128" xml:space="preserve">
<g>
	<path fill="#9EFF00" d="M48.871,73.575H36.139v-30.42h12.219c5.939,0,9.399,3.333,9.399,8.545c0,3.375-2.222,5.554-3.76,6.28
		c1.837,0.854,4.188,2.777,4.188,6.836C58.185,70.499,54.297,73.575,48.871,73.575z M47.888,48.453h-5.811v7.007h5.811
		c2.521,0,3.931-1.41,3.931-3.503S50.409,48.453,47.888,48.453z M48.273,60.801h-6.195v7.477h6.195c2.691,0,3.973-1.709,3.973-3.76
		S50.964,60.801,48.273,60.801z"/>
	<path fill="#9EFF00" d="M64.251,73.575v-30.42h20.038v5.298H70.19v7.135h12.006v5.298H70.19v7.392h14.099v5.298H64.251z"/>
	<path fill="#9EFF00" d="M100.268,73.832c-3.247,0-5.981-1.111-8.203-3.333c-1.325-1.324-2.137-2.862-2.479-4.571
		s-0.513-4.23-0.513-7.562s0.171-5.854,0.513-7.562c0.342-1.751,1.154-3.247,2.479-4.571c2.222-2.222,4.956-3.333,8.203-3.333
		c5.853,0,10.168,3.418,11.193,9.613h-6.024c-0.641-2.606-2.264-4.315-5.127-4.315c-1.624,0-2.905,0.513-3.802,1.581
		c-1.239,1.325-1.496,2.692-1.496,8.588s0.256,7.263,1.496,8.588c0.897,1.068,2.179,1.58,3.802,1.58
		c2.863,0,4.486-1.708,5.127-4.314h6.024C110.436,70.414,106.079,73.832,100.268,73.832z"/>
	<path fill="#9EFF00" d="M133.636,70.499c-2.136,2.136-4.743,3.333-8.203,3.333s-6.11-1.197-8.246-3.333
		c-3.076-3.076-2.991-6.879-2.991-12.134s-0.085-9.058,2.991-12.134c2.136-2.136,4.785-3.333,8.246-3.333s6.067,1.196,8.203,3.333
		c3.076,3.076,3.034,6.879,3.034,12.134S136.712,67.423,133.636,70.499z M129.235,49.82c-0.854-0.982-2.179-1.624-3.802-1.624
		s-2.991,0.641-3.845,1.624c-1.153,1.282-1.453,2.691-1.453,8.545s0.299,7.263,1.453,8.545c0.854,0.982,2.222,1.623,3.845,1.623
		s2.948-0.641,3.802-1.623c1.154-1.282,1.496-2.691,1.496-8.545S130.389,51.102,129.235,49.82z"/>
	<path fill="#9EFF00" d="M164.355,73.575v-17.73l-5.811,11.535h-4.017l-5.853-11.535v17.73h-5.939v-30.42h5.854l7.947,16.449
		l7.904-16.449h5.854v30.42H164.355z"/>
	<path fill="#9EFF00" d="M177.385,73.575v-30.42h20.038v5.298h-14.099v7.135h12.006v5.298h-12.006v7.392h14.099v5.298H177.385z"/>
	<path fill="#9EFF00" d="M224.938,62.125h-5.854v11.45h-5.939v-30.42h11.792c6.28,0,10.04,4.315,10.04,9.485
		S231.218,62.125,224.938,62.125z M224.639,48.453h-5.555v8.331h5.555c2.691,0,4.4-1.666,4.4-4.144S227.33,48.453,224.639,48.453z"
		/>
	<path fill="#9EFF00" d="M255.144,73.575l-1.794-5.384h-10.811l-1.836,5.384h-6.195l11.065-30.42h4.657l11.107,30.42H255.144z
		 M248.051,52.127l-3.845,11.066h7.562L248.051,52.127z"/>
	<path fill="#9EFF00" d="M281.248,73.575l-5.939-12.134h-4.271v12.134h-5.939v-30.42h11.92c6.195,0,9.869,4.229,9.869,9.314
		c0,4.272-2.605,6.921-5.553,7.99l6.793,13.116H281.248z M276.633,48.453h-5.596v8.032h5.596c2.607,0,4.316-1.666,4.316-4.016
		S279.24,48.453,276.633,48.453z"/>
	<path fill="#9EFF00" d="M304.66,48.453v25.122h-5.938V48.453h-7.946v-5.298h21.832v5.298H304.66z"/>
	<path fill="#9EFF00" d="M345.762,70.499c-2.137,2.136-4.742,3.333-8.203,3.333s-6.109-1.197-8.246-3.333
		c-3.076-3.076-2.99-6.879-2.99-12.134s-0.086-9.058,2.99-12.134c2.137-2.136,4.785-3.333,8.246-3.333s6.066,1.196,8.203,3.333
		c3.076,3.076,3.033,6.879,3.033,12.134S348.838,67.423,345.762,70.499z M341.361,49.82c-0.855-0.982-2.18-1.624-3.803-1.624
		c-1.624,0-2.991,0.641-3.846,1.624c-1.154,1.282-1.453,2.691-1.453,8.545s0.299,7.263,1.453,8.545
		c0.854,0.982,2.222,1.623,3.846,1.623c1.623,0,2.947-0.641,3.803-1.623c1.152-1.282,1.494-2.691,1.494-8.545
		S342.514,51.102,341.361,49.82z"/>
	<path fill="#9EFF00" d="M360.801,48.453v7.477h12.006v5.298h-12.006v12.348h-5.939v-30.42h20.038v5.298H360.801z"/>
	<path fill="#9EFF00" d="M407.283,73.575l-1.793-5.384H394.68l-1.836,5.384h-6.195l11.064-30.42h4.658l11.107,30.42H407.283z
		 M400.191,52.127l-3.846,11.066h7.562L400.191,52.127z"/>
	<path fill="#9EFF00" d="M46.307,125.102c-3.247,0-5.981-1.111-8.203-3.333c-1.324-1.324-2.136-2.862-2.478-4.571
		s-0.513-4.23-0.513-7.562s0.171-5.854,0.513-7.562c0.342-1.752,1.153-3.247,2.478-4.571c2.222-2.222,4.956-3.333,8.203-3.333
		c5.854,0,10.169,3.418,11.194,9.613h-6.024c-0.641-2.605-2.265-4.314-5.127-4.314c-1.624,0-2.905,0.512-3.803,1.58
		c-1.239,1.324-1.495,2.691-1.495,8.588s0.256,7.264,1.495,8.588c0.897,1.068,2.179,1.58,3.803,1.58
		c2.862,0,4.486-1.709,5.127-4.314h6.024C56.476,121.684,52.118,125.102,46.307,125.102z"/>
	<path fill="#9EFF00" d="M79.675,121.769c-2.136,2.136-4.742,3.333-8.203,3.333s-6.109-1.197-8.246-3.333
		c-3.076-3.076-2.99-6.879-2.99-12.134s-0.086-9.058,2.99-12.134c2.137-2.136,4.785-3.333,8.246-3.333s6.067,1.197,8.203,3.333
		c3.076,3.076,3.033,6.879,3.033,12.134S82.751,118.692,79.675,121.769z M75.275,101.09c-0.854-0.982-2.179-1.623-3.803-1.623
		s-2.991,0.641-3.845,1.623c-1.154,1.281-1.453,2.691-1.453,8.545s0.299,7.264,1.453,8.545c0.854,0.982,2.222,1.623,3.845,1.623
		s2.948-0.641,3.803-1.623c1.153-1.281,1.495-2.691,1.495-8.545S76.428,102.371,75.275,101.09z"/>
	<path fill="#9EFF00" d="M110.394,124.845v-17.73l-5.811,11.535h-4.016l-5.854-11.535v17.73h-5.938v-30.42h5.853l7.947,16.449
		l7.904-16.449h5.853v30.42H110.394z"/>
	<path fill="#9EFF00" d="M145.043,124.845v-17.73l-5.811,11.535h-4.017l-5.853-11.535v17.73h-5.939v-30.42h5.854l7.947,16.449
		l7.904-16.449h5.854v30.42H145.043z"/>
	<path fill="#9EFF00" d="M168.798,125.102c-6.238,0-11.194-4.23-11.194-10.682V94.425h5.938v19.781c0,3.504,2.051,5.597,5.255,5.597
		s5.298-2.093,5.298-5.597V94.425h5.896v19.995C179.992,120.871,175.036,125.102,168.798,125.102z"/>
	<path fill="#9EFF00" d="M204.601,124.845l-12.048-18.671v18.671h-5.939v-30.42h5.298l12.049,18.628V94.425h5.938v30.42H204.601z"/>
	<path fill="#9EFF00" d="M216.99,124.845v-30.42h5.939v30.42H216.99z"/>
	<path fill="#9EFF00" d="M241.643,99.723v25.122h-5.938V99.723h-7.946v-5.298h21.832v5.298H241.643z"/>
	<path fill="#9EFF00" d="M266.039,112.369v12.476h-5.896v-12.476L251,94.425h6.451l5.682,12.262l5.598-12.262h6.451L266.039,112.369
		z"/>
</g>
<g>
	<g>
		<path fill="#FFFFFF" d="M59.741,35.39c-0.655-0.205-1.239-0.451-1.833-0.532c0.055-0.123,0.387,0,0.58,0
			c-0.097-0.328-0.539-0.205-0.8-0.369c-0.193,0-0.034,0.246-0.189,0.246c-1.281-0.246-2.707-0.656-3.934-0.819
			c-0.015-0.082,0.293,0.123,0.257-0.082c-0.525-0.123-1.458-0.369-1.74,0c-2.265-0.123-6.351-0.492-8.231,0.245
			c-0.116,0-0.616,0.451-1.46,1.148c-0.206,0.368-0.771,0.451-1.315,0.655c-0.01,0.164,0.222,0.164,0.058,0.328
			c-0.031,0.041-0.067-0.164-0.222-0.164c-1.038,1.353-2.401,2.173-3.714,3.279c0.897,0.041-0.196,0.205-0.225,0.041
			c-0.51-0.041-0.624,0.41-0.914,0.738c-1.909,0.574-2.493,2.746-4.648,3.238c-1.122,0.655-2.014,1.518-2.843,2.296
			c0.616,0.205-0.15,0.245-0.157,0.205c-2.599,1.927-5.123,4.058-8.427,5.492c-0.962,0.902-2.146,1.64-3.66,2.051
			c-0.167,0.368-0.54,0.45-1.013,0.614c-0.034,0.246,0.13,0.082,0.208,0.082c-0.009,0.164-0.365,0.123-0.382,0.246
			c-0.138-0.123-0.012-0.286-0.36-0.286c-0.002,0.204,0.036,0.204,0.205,0.286c-2.255,1.025-5.252,2.009-7.808,0.451
			c-0.674-1.188-2.981-1.558-2.512-3.279c-0.174-0.984,0.209-1.886,0.528-2.706c0.532-1.147,1.55-2.173,2.436-3.074
			c0.916-0.943,1.75-2.132,2.763-2.747c1.078-0.901,1.922-1.599,3.068-2.337c3.392-2.254,7.336-4.222,11.296-5.452
			c4.723-1.721,9.486-2.992,15.031-3.565c1.16,0,1.355-0.205,2.013-0.861c2.108-2.295,4.698-4.714,6.983-6.887
			c1.746-1.723,7.979-7.379,9.541-9.266l0.351-0.204c1.038-1.353,2.319-2.419,3.296-3.895c-1.293,0.123-2.789,0.41-4.261,0.615
			c0.428-0.861,2.233-0.492,2.623-1.353c-0.193,0-0.621,0.205-0.832,0.328c-0.271,0,0.017-0.123-0.021-0.123
			c-0.81,0.451-2.011,0.655-2.35,1.147c-0.155,0-0.249,0.123-0.394-0.041c-0.049,0.164-0.15,0.245-0.283,0.368
			c-3.231,0.533-7.207,1.23-10.844,1.436c-0.513,0.164-1.196-0.205-1.706-0.246c-1.308,0.041-2.39,0.041-3.248-0.656
			c0.072-0.245,0.348,0,0.45-0.082c-0.498-0.409-1.421-0.163-1.534-1.024c-1.375-0.778-1.816-1.968-2.671-3.525
			c-0.247-0.083-0.326,0.123-0.464,0c-0.178-0.574-0.042-0.902-0.042-1.558c0,0-0.08,0.204-0.309,0
			c0.063-0.738,0.568-0.942,0.723-1.599c1.677,0.082,1.698,2.173,2.016,3.976c0.343,0.41,1.039,0.41,1.501,0.615
			c0.425,0,1.128,0.041,1.895,0c0.231,0,1.015-0.164,0.812,0c-0.341,0.041-0.573,0.041-0.493,0.492
			c0.662,0.246,2.125-0.451,2.752,0.041c1.455-0.738,3.785-0.246,5.614-0.615c1.535-0.287,2.973-0.901,4.549-0.738
			c0.123,0.042,0.152,0.205,0.307,0.205c0.706-0.163,1.946-0.368,2.794-0.819c-0.106-0.164-0.364,0.123-0.58,0
			c0.631-0.369,1.518-0.164,2.049-0.656c-0.145,0.492-1.003,0.451-1.392,0.656c1.387,0.41,2.84-0.779,4.14-0.205
			c0.15-0.246,0.346-0.451,0.711-0.574c0.137,0.123-0.143,0.287,0.072,0.41c1.254-0.123,2.289-0.614,3.613-0.779
			c-0.655-0.205-1.481,0.369-2.371,0.369c0.573-0.697,2.125-0.45,2.956-0.778c0.116,0,0.114,0.204,0.307,0.204
			c0.93-0.204,2.216-0.368,3.299-0.368c-0.595,0.573-1.929,0.245-2.386,0.942c2.373,0.082,4.167-1.147,6.755-0.942
			c1.527-0.329,2.586-0.901,4.58-0.778c0.029,0.163-0.193,0-0.157,0.204c0.232,0,0.626,0.041,0.882-0.041
			c0.092,0.082-0.07,0.041-0.056,0.123c1.486-0.123,2.385-0.286,3.681-0.614c-0.739-0.246-1.619,0.245-2.296-0.083
			c0.382-0.245,0.984-0.122,1.496-0.286c-1.496-0.37-3.613,0.123-5.187,0.409c-0.021-0.123,0.187-0.04,0.172-0.123
			c-0.609-0.163-0.991,0.083-1.433,0.205c0.307,0.206,0.636-0.122,1.044,0c-0.283,0.369-0.979,0.369-1.706,0.41
			c0.041-0.204,0.234-0.204,0.251-0.327c-0.556-0.083-0.803-0.165-1.329-0.083c3.202-0.696,6.999-0.656,10.691-0.983
			c0.036,0.205-0.234,0.205-0.198,0.41c0.215,0.123,0.312-0.205,0.392-0.41c2.267-0.082,5.761,0,7.583,0.901
			c0.423,0.205,0.918,0.165,1.285,0.492c0.321,0.287,0.401,0.738,0.79,1.189C96,6.612,95.734,6.858,95.567,7.228
			c-0.665-0.041-1.284,0.614-1.982,0.819c-0.179,0.083-0.278-0.04-0.293-0.123c-0.894,0.411-1.779,0.656-2.834,1.025
			c0.01-0.164,0.271,0,0.351-0.205c-0.854,0.205-1.591,0.41-2.26,0.779c1.434-1.517,3.641-2.378,4.852-4.059
			c-1.745-0.246-3.717-0.246-5.728-0.246c0.01-0.164,0.165-0.164,0.288-0.123C86.523,5.055,84.423,4.768,82.7,5.3
			c0.16,0.247,0.232,0,0.338,0.165c-0.042,0.205-0.357,0.164-0.445,0.328c0.13,0.081,0.288-0.123,0.403-0.123
			c-1.017,0.369-2.254,0.369-3.383,0.327c0.848-0.45,1.984-0.368,3.038-0.532c-3.635,0-7.47,0.614-10.663,1.147
			c0.275,0.246,1.122,0,1.547,0c0.193,0,0.152,0.206,0.314,0.246c1.532-0.082,2.839-0.779,4.901-0.491
			c-1.392,0.655-3.78,0.491-5.102,1.106c1.47,0,3.004-0.287,4.57-0.615c0.231,0-0.133,0.123-0.02,0.328
			c2.291-0.164,4.387-0.779,6.622-0.819c-0.157,0.204-0.544,0.204-0.769,0.245c0.966,0,2.274-0.041,3.25-0.205
			c-1.283,0.615-3.098,1.066-4.846,1.025c0.375-0.287,1.194-0.246,1.477-0.614c-1.247,0.163-2.99,0.368-4.138,0.655
			c0.802,0.164,1.341-0.287,2.235-0.041c-0.972,0.409-2.386,0.286-3.369,0.409c-0.002,0.205,0.517,0.082,0.222,0.165
			C78.488,8.17,77.826,8.58,77,8.498c0.346-0.451,1.141-0.328,1.653-0.491c-0.376-0.165-0.65,0.04-0.928,0
			c0.297-0.288,0.913-0.083,1.095-0.369c-1.339,0.081-2.344,0.081-3.564,0.615c0.176,0.122,0.369,0.122,0.198,0.245
			c-0.387,0-0.691,0.246-1.223,0.082c-0.004,0.41-1.515,0.615-1.793,0.574c-2.247,0.41-4.167,1.147-6.378,1.763
			c0.575,1.065,0.403,1.188-0.11,2.665c-2.771,2.705-9.997,9.306-13.058,11.683c-1.543,1.559-5.007,4.059-6.49,5.739
			c8.211,0.738,17.433,2.378,21.896,7.297c0.376,0.819,0.659,1.762,0.603,2.541c-0.186,0.041-0.305,0.246-0.269,0.451
			c-2.08,2.46-4.597,4.633-7.792,6.026c1.608-1.845,4.949-3.73,5.632-6.437c0.651-2.009-1.574-3.443-3.19-4.058
			c-0.106-0.164-0.229-0.205-0.335-0.369c-0.981-0.082-1.969-0.861-2.856-1.066c-0.271,0,0.077,0-0.036-0.205
			C59.937,35.185,59.743,35.185,59.741,35.39z M37.463,34.038c-0.882,0.04-1.545,0.45-2.262,0.327c0.179-0.082,0.696,0,0.638-0.327
			c-2.146,0.327-4.012,1.146-6.025,1.352c-5.815,2.542-13.052,4.92-16.631,9.183c0.046,0.042-0.525,0.533-0.496,0.697
			c-0.866,1.23-1.485,1.23-2.111,2.501c0.169,0.081,0.133-0.123,0.326-0.123c-0.25,0.778-1.163,1.517-1.591,2.377
			c-0.271,0.656-0.685,1.6-0.47,2.379c0.695,0,1.082,0,1.563-0.124c0.495-0.041,1-0.246,1.085-0.204
			c0.109-0.042,0.365-0.123,0.559-0.123c0.127,0.286,0.171-0.123,0.48-0.123c0.191,0.204,0.155,0,0.141-0.082
			c0.208,0.082,0.215,0.122,0.408,0.122l1.375-0.533c9.826-4.14,16.604-10.657,23.82-17.094c0.118-0.204,0.275-0.409,0.408-0.532
			c0,0-0.021-0.123-0.137-0.123c-0.189,0.246-0.829,0.123-1.117,0.246C37.287,33.915,37.519,33.915,37.463,34.038z M30.435,35.185
			c0.078,0-0.159-0.246,0.073-0.246c1.261-0.081,2.992-0.573,4.181-1.065c-2.076,0.287-3.715,0.861-5.339,1.517
			C29.813,35.39,30.121,34.938,30.435,35.185z M50.543,13.049c1.769-0.492,3.536-0.779,5.612-1.066
			C54.516,12.557,52.566,12.68,50.543,13.049z M57.229,9.523c-0.745,0.163-1.351,0.451-2.105,0.778
			c0.329,0.328,0.621-0.204,1.025-0.327c0.036,0.204,0.002,0.451,0.096,0.327c1.994-0.532,4.554-1.147,6.837-1.353
			c-0.775,0.205-1.588,0.205-1.943,0.82c1.395-0.205,2.136-0.82,2.941-1.517c-1.025,0.327-2.888,0.286-4.401,0.696
			C58.981,9.154,58.046,9.77,57.229,9.523z M63.692,7.802c-0.126,0.163-0.425,0-0.389,0.205c0.766-0.042,1.658-0.246,2.342-0.533
			c-0.114-0.206-0.283-0.287-0.438-0.287c0.312-0.205,0.737-0.205,0.996-0.492c-2.018-0.041-3.053,1.107-4.88,1.271
			C61.93,8.335,62.928,7.638,63.692,7.802z M74.111,5.055c-0.01,0.164,0.208,0.082,0.198,0.245
			c-0.675,0.124-1.373,0.329-2.083,0.247c0.157-0.205,0.445-0.328,0.817-0.41c-0.254-0.123-0.815,0.205-0.904-0.082l3.386-0.532
			C75.235,4.851,74.44,4.728,74.111,5.055z"/>
		<path fill="#FFFFFF" d="M58.578,28.79c0.532-0.492,1.102-0.983,1.75-1.476c0.031-0.696,0.225-1.353,0.088-2.132
			c0.01-0.164,0.157-0.205,0.121-0.41c1.475-1.722,3.704-3.115,6.19-4.141c0.948-0.328,1.927-0.696,3.157-0.737
			c1.191-0.041,2.069,0.328,2.516,1.106c0.459,0.41,1.026,1.436,0.625,2.009c0.036,0.206-0.104,0.287-0.106,0.492
			c-0.077,0-0.095,0.123-0.133,0.123c0.007,0.04,0.046,0.04,0.015,0.082c-0.133,0.123-0.09,0.369-0.268,0.451
			c-0.104,0.286-0.247,0.574-0.535,0.697c-0.128,0.368-0.439,0.573-0.606,0.942c-0.687,0.491-1.134,1.025-1.867,1.476
			c-0.461,0.45-0.969,0.861-1.477,1.271c-0.039,0-0.024,0.082-0.024,0.082c-0.263,0.041-0.351,0.205-0.445,0.328
			c-0.208-0.082-0.386,0-0.411,0.082c0.169,0.082,0.225-0.041,0.218-0.082c0.201,0.041-0.063,0.082-0.01,0.164
			c-0.039,0-0.031,0.041-0.147,0.041c-0.034,0.246-0.389,0.204-0.607,0.287c0.054,0.082,0.187-0.041,0.232,0
			c-0.182,0.287-0.469,0.41-0.657,0.656c-0.162-0.042-0.201-0.042-0.278-0.042c0.014,0.082,0.077,0,0.123,0.042
			c0.015,0.081-0.095,0.122-0.133,0.122c-0.123-0.041,0.031-0.041-0.021-0.122c-0.396,0.163-0.817,0.409-1.115,0.696
			c-0.039,0-0.046-0.041-0.046-0.041c-0.14,0.082-0.165,0.164-0.305,0.246c-0.249,0.123-0.606,0.287-0.848,0.45
			c0.123,0.042,0.193,0,0.217-0.081c0.752-0.123,0.858-0.615,1.571-0.738c-0.094,0.123-0.365,0.123-0.336,0.287
			c-0.154,0-0.217,0.082-0.287,0.123c-0.095,0.123-0.382,0.246-0.639,0.328c-0.087,0.163-0.389,0.204-0.507,0.409
			c-0.039,0-0.039,0-0.116,0c-0.171,0.123-0.234,0.205-0.498,0.246c-0.094,0.123-0.196,0.205-0.414,0.287
			c-0.297,0.287-1.017,0.369-1.438,0.615c-0.278-0.041-0.428,0.205-0.699,0.205c-0.333,0.082-0.643,0.082-0.938,0.163
			c-0.13-0.081-0.316-0.04-0.485-0.122c-0.039,0-0.032,0.041-0.07,0.041c-0.155,0-0.169-0.082-0.246-0.082
			c-0.229-0.205-0.375-0.369-0.636-0.533c-0.12-0.246-0.543-0.451-0.587-0.697c-0.176-0.123-0.346-0.205-0.504-0.451
			c0.14-0.081,0.157-0.204,0.297-0.286c-0.176-0.123-0.37-0.123-0.546-0.246c0.233-0.656,0.825-1.024,1.28-1.517
			c0.007,0.041-0.032,0.041-0.102,0.081c0.358-0.163,0.539-0.45,0.844-0.696C58.679,28.708,58.662,28.831,58.578,28.79z
			 M57.886,29.691c-0.07,0.042-0.087,0.165-0.195,0.206c-0.071,0.04-0.102,0.082-0.134,0.122c-0.031,0.041-0.017,0.123-0.118,0.205
			c-0.119,0.206-0.336,0.287-0.278,0.615c0.217-0.082-0.002-0.451,0.3-0.492c0.015,0.083,0.021,0.123,0.061,0.123
			c0.382-0.246,0.518-0.573,0.791-0.779c0.032-0.04-0.007-0.04-0.021-0.123c0.203-0.163,0.276-0.409,0.472-0.614
			c-0.015-0.082-0.015-0.082-0.054-0.082C58.449,29.159,58.105,29.405,57.886,29.691z M62.289,29.446
			c-0.008-0.041,0.024-0.083,0.056-0.123c0.474-0.164,0.879-0.492,1.262-0.737c1.216-0.779,2.287-1.723,3.341-2.542
			c0.665-0.615,1.407-1.23,1.987-1.886c0.65-0.697,1.269-1.354,1.589-2.173c-0.636,0.123-1.358,0.409-1.849,0.697
			c-0.024,0.082-0.024,0.082-0.017,0.122c-0.343,0.246-0.708,0.369-1.02,0.574c-0.102,0.082-0.104,0.286-0.336,0.286
			c0.007,0.042-0.024,0.083-0.063,0.083s-0.07,0.04-0.147,0.04c-0.133,0.124-0.357,0.165-0.406,0.328
			c-0.256,0.083-0.29,0.328-0.6,0.328c0.015,0.083-0.024,0.083-0.101,0.083c-0.111,0.245-0.392,0.409-0.595,0.573
			c-0.258,0.287-0.64,0.532-0.899,0.82c-0.237,0.409-0.704,0.614-0.895,1.065c0.007,0.041,0.015,0.082,0.022,0.123
			c-0.116,0-0.087,0.164-0.242,0.164c-0.218,0.082-0.386,0-0.556-0.082c-0.07,0.041-0.217,0.082-0.288,0.123
			c-0.268,0.451-0.72,0.737-0.95,1.188c-0.351,0.205-0.448,0.533-0.805,0.697c0.021,0.123-0.048,0.163-0.196,0.205
			c0.008,0.041,0.155,0,0.162,0.041c-0.312,0.205-0.346,0.451-0.619,0.656c0.124,0.04,0.215,0.122,0.237,0.245
			c0.602,0.123,0.701-0.41,1.052-0.614c0.07-0.042,0.147-0.042,0.126-0.165c0,0-0.063,0.083-0.078,0c0.017-0.122,0.078,0,0.193,0
			C61.868,29.691,62.079,29.568,62.289,29.446z"/>
		<path fill="#FFFFFF" d="M76.506,29.814c-0.256,0.083-0.269,0.451-0.525,0.533c-0.031,0.041-0.024,0.083-0.01,0.164
			c-0.077,0-0.263,0.042-0.273,0.205c-0.039,0-0.032,0.041-0.07,0.041l0.015,0.082c-0.172,0.123-0.229,0.451-0.447,0.533
			c0.089,0.286-0.252,0.327-0.232,0.655c-0.109,0.042-0.249,0.123-0.411,0.082c0.082,0.246-0.167,0.369-0.109,0.697
			c0.512-0.164,0.757-0.533,1.223-0.737c1.1-0.779,2.086-1.763,3.088-2.665c1.329-1.23,2.62-2.46,3.873-3.689
			c0.029,0.163-0.065,0.286-0.082,0.41c-0.22,0.286-0.503,0.655-0.784,0.819c-0.07,0.041-0.133,0.123-0.126,0.164
			c-0.159,0.41-0.657,0.656-0.895,1.065c-0.038,0-0.062,0.082-0.171,0.123l-0.094,0.123l-0.251,0.328
			c-0.273,0.205-0.486,0.533-0.899,0.819c-0.01,0.165-0.128,0.369-0.23,0.451l-0.133,0.123l-0.102,0.082
			c-0.157,0.206-0.247,0.574-0.65,0.697c-0.024,0.082-0.094,0.123-0.097,0.328c-0.039,0-0.07,0.041-0.109,0.041
			c-0.182,0.286-0.346,0.451-0.573,0.696c-0.073,0.246-0.36,0.369-0.503,0.656c-0.094,0.123-0.143,0.287-0.399,0.369
			c-0.104,0.286-0.431,0.409-0.549,0.614c-0.326,0.123-0.508,0.411-0.887,0.451c-0.193,0-0.331-0.123-0.447-0.123
			c-0.131-0.082-0.193,0-0.271,0c-0.039,0-0.324-0.082-0.408-0.122l-0.745-0.492c-0.099-0.123-0.188-0.41-0.239-0.697
			c-0.106-0.819,0.281-1.476,0.528-2.05c0.278-0.614,0.626-1.271,0.912-1.845l0.757-1.188c0.771-1.107,1.666-2.173,2.522-3.239
			c0.425-0.656,1.028-1.188,1.492-1.845c0.108-0.04,0.171-0.123,0.273-0.205l0.5-0.45c0.25-0.779,0.626,0.041,1.051,0.041
			c0.343,0.409,1.877,1.435,1.708,2.009c-0.215,0.533-0.622,0.861-1.028,1.188c-0.171,0.123-0.228,0.246-0.452,0.287
			c-0.133,0.123-0.312,0.205-0.399,0.369c-0.263,0.04-0.283,0.368-0.508,0.41c-0.196,0.204-0.515,0.369-0.619,0.655
			c-0.529,0.287-0.914,0.738-1.313,1.107c-0.087,0.163-0.343,0.246-0.423,0.451c-0.141,0.081-0.295,0.081-0.396,0.163l-0.056,0.123
			l-0.164,0.164c-0.102,0.082-0.143,0.287-0.244,0.369c-0.147,0.041-0.288,0.123-0.336,0.287c-0.102,0.082-0.133,0.122-0.249,0.122
			C76.516,29.651,76.484,29.691,76.506,29.814z M90.385,15.55c-0.614,0.245-0.752,0.778-1.521,1.023
			c-0.042,0.206-0.252,0.328-0.416,0.493c0,0,0.2,0.04,0.053,0.081c-0.062,0.082-0.241,0.165-0.435,0.165
			c0.346,0.205-0.073,0.245,0.086,0.491c-0.094,0.123-0.413,0.287-0.585,0.41c0.029,0.164,0.036,0.204,0.096,0.327
			c-0.024,0.083-0.287,0.123-0.012,0.37c-0.193,0-0.295,0.081-0.266,0.246c-0.561,0.327-1.547,0.655-2.301,0.983
			c-0.179,0.082-0.297,0.287-0.483,0.328c-0.077,0-0.116,0-0.271,0c-0.751,0.123-1.293,0.779-2.229,0.737
			c-0.264,0.042-0.454-0.164-0.834-0.123c-0.028-0.163-0.089-0.286-0.304-0.409c-0.355-0.697-0.959-1.271-1.229-1.927
			c0.877-0.287,1.496-0.943,2.586-0.902c0.077,0,0.232,0,0.271,0c0.534-0.041,0.916-0.287,1.436-0.409
			c2.166-0.656,4.165-1.6,6.644-2.009C90.609,15.508,90.486,15.468,90.385,15.55z"/>
		<path fill="#FFFFFF" d="M92.615,24.69c0.505-0.205,0.396-0.163,0.894-0.409c0.242-0.165,0.491-0.287,0.725-0.493
			c0.295-0.081,0.421-0.245,0.677-0.327c0.242-0.164,0.498-0.245,0.715-0.328c0.305-0.245,0.631-0.368,1.059-0.573
			c0.102-0.083,0.288-0.123,0.505-0.206c0.302-0.04,0.53-0.286,0.888-0.45c0.396-0.164,0.691-0.246,0.964-0.451
			c0.312-0.204,0.824-0.369,1.266-0.492l0.305-0.245c0.186-0.041,0.456-0.041,0.582-0.206c0.239,0.042,0.534-0.04,0.621-0.205
			c0.234-0.204,0.822-0.163,1.208-0.163c0.109-0.041,0.14-0.082,0.225-0.041c0.155,0,0.29,0.328,0.404,0.532
			c0.222,0.165,0.381,0.41,0.656,0.656c0.015,0.083-0.024,0.083-0.009,0.164c0.159,0.245,0.379,0.615,0.19,0.861
			c-0.094,0.123-0.272,0.205-0.336,0.286c-0.343,0.246-0.853,0.861-1.103,0.984c-0.024,0.081-0.077,0-0.101,0.081
			c-0.147,0.042-0.218,0.083-0.25,0.123c-0.179,0.083-0.309,0-0.427,0.206c-0.077,0-0.203,0.164-0.174,0.327
			c-0.242,0.164-0.431,0.411-0.672,0.574c-0.021-0.123,0.017-0.123,0.017-0.123c-0.312,0.205-0.554,0.369-0.791,0.779
			c0.053,0.081,0.077,0,0.232,0c-0.126,0.164-0.213,0.327-0.406,0.327c0.029,0.165-0.242,0.165-0.413,0.288
			c-0.179,0.082-0.259,0.286-0.361,0.368c-0.07,0.041-0.053-0.082-0.091-0.082c-0.234,0.205-0.462,0.451-0.742,0.615
			c0.007,0.041,0.084,0.041,0.06,0.123c-0.165,0.164-0.368,0.328-0.486,0.532c-0.007-0.04,0.017-0.123-0.029-0.163
			c-0.125,0.163-0.457,0.04-0.536,0.246c-0.179,0.082-0.228,0.245-0.297,0.286c-0.266,0.247-0.603,0.533-0.837,0.738
			c-0.133,0.123-0.198,0.41-0.307,0.451c-0.203,0.164-0.483,0.328-0.672,0.574c-0.273,0.204-0.355,0.614-0.604,0.737
			c0.034-0.246,0.205-0.369,0.317-0.614c-0.186,0.04-0.297,0.286-0.377,0.491c-0.353,0.409-0.875,0.738-1.221,1.188
			c-0.196,0.206-0.392,0.411-0.534,0.697c-0.187,0.041-0.259,0.287-0.393,0.41c-0.031,0.041-0.118,0.204-0.22,0.287
			c-0.041,0.205-0.152,0.45-0.377,0.491c0.075-0.451,0.288-0.778,0.392-1.065c0.438-1.025,1.013-1.926,1.719-2.746
			c0.063-0.082,0.049-0.165,0.157-0.205c0.119-0.205,0.353-0.41,0.45-0.738c1.011-1.066,1.946-2.337,2.996-3.402l0.511-0.615
			c0.297-0.287,0.578-0.451,0.737-0.86c0.017-0.124,0.072-0.247,0.128-0.369c-0.039,0-0.172,0.122-0.327,0.122
			c-0.14,0.083-0.227,0.247-0.522,0.329c-0.396,0.164-0.694,0.45-1.052,0.615c-0.116,0-0.231,0-0.372,0.081
			c-0.179,0.082-0.445,0.328-0.694,0.451c-0.771,0.451-1.644,0.984-2.345,1.394c-0.132,0.123-0.22,0.288-0.398,0.369
			c-0.063,0.082-0.28,0.164-0.351,0.205c-0.187,0.041-0.165,0.164-0.188,0.246c-0.063,0.082-0.21,0.123-0.242,0.164
			c-0.256,0.081-0.452,0.287-0.609,0.492c-0.186,0.04-0.203,0.163-0.396,0.163c-0.094,0.123-0.111,0.246-0.29,0.328
			c-0.024,0.083-0.193,0-0.217,0.083l-0.126,0.163c-0.298,0.287-0.687,0.492-0.921,0.697c-0.516,0.368-1.023,0.778-1.492,1.188
			c-0.455,0.492-0.97,0.861-1.424,1.353c-0.392,0.41-0.665,0.615-1.127,1.066c-0.5,0.45-0.885,0.901-1.431,1.312
			c-0.039,0-0.131-0.082-0.131-0.082c-0.039,0-0.331-0.123-0.331-0.123c-0.077,0-0.095,0.123-0.172,0.123
			c-0.123-0.041-0.229-0.205-0.367-0.328c-0.039,0-0.078,0-0.208-0.082c-0.106-0.163-0.991-0.574-1.203-0.902
			c-0.083-0.245-0.012-0.286-0.002-0.449c0.07-0.042,0.119-0.206,0.297-0.288c0.745-0.819,1.434-1.517,2.166-2.623
			c0.269-0.451,1.028-1.189,1.282-1.722c0.936-1.271,2.246-2.829,2.982-4.141l0.74-1.065l0.754-0.985
			c0.503-0.655,0.622-0.86,1.164-1.517c0.196-0.204,0.498-0.9,0.532-1.146c0.08-0.205-0.01-0.493,0.339-0.493
			c0.062-0.081,0.277,0.042,0.316,0.042c0.084,0.041,0.029,0.164,0.212,0.328c0.113,0.204,0.381,0.409,0.643,0.573
			c0.312,0.451,1.673,1.599,1.473,2.213c-0.073,0.247-0.22,0.288-0.385,0.451c-0.237,0.411-0.602,0.534-0.993,0.943
			c-0.157,0.205-0.37,0.533-0.573,0.696c-0.203,0.165-0.791,0.779-0.902,1.025l0.053,0.082
			C92.852,24.937,92.545,24.732,92.615,24.69z M95.765,23.912c-0.039,0-0.14,0.082-0.157,0.204
			C95.762,24.116,95.779,23.994,95.765,23.912z M96.03,23.665c-0.07,0.042-0.179,0.083-0.094,0.123
			c0.186-0.04,0.466-0.204,0.638-0.327c-0.007-0.041-0.007-0.041-0.046-0.041c-0.147,0.041-0.133,0.123-0.326,0.123
			C96.086,23.543,96.016,23.584,96.03,23.665z M97.625,22.846c-0.178,0.082-0.488,0.082-0.553,0.37c0.154,0,0.326-0.124,0.495-0.042
			c0.077,0,0.094-0.123,0.15-0.246c0.203-0.163,0.537-0.245,0.785-0.368l0.133-0.123c0.062-0.083,0.179-0.083,0.165-0.165
			c-0.215-0.123-0.319,0.165-0.575,0.247C98.085,22.6,97.819,22.846,97.625,22.846z M98.997,22.067
			c-0.078,0-0.102,0.081-0.126,0.164C98.948,22.231,98.933,22.148,98.997,22.067z M99.19,22.067c-0.053-0.082-0.155,0-0.155,0
			C99.112,22.067,99.19,22.067,99.19,22.067z M100.575,21.371C100.575,21.371,100.567,21.329,100.575,21.371
			c-0.179,0.081-0.411,0.081-0.561,0.326C100.277,21.657,100.495,21.575,100.575,21.371z M100.944,20.837
			c-0.132,0.123-0.287,0.123-0.428,0.205C100.672,21.042,100.858,21.001,100.944,20.837z M102.183,20.181
			c-0.039,0-0.116,0-0.087,0.165C102.134,20.346,102.211,20.346,102.183,20.181z"/>
		<path fill="#FFFFFF" d="M129.038,24.69c0.505-0.205,0.396-0.163,0.894-0.409c0.242-0.165,0.491-0.287,0.725-0.493
			c0.295-0.081,0.421-0.245,0.677-0.327c0.242-0.164,0.498-0.245,0.715-0.328c0.305-0.245,0.631-0.368,1.059-0.573
			c0.102-0.083,0.288-0.123,0.505-0.206c0.302-0.04,0.53-0.286,0.888-0.45c0.396-0.164,0.691-0.246,0.964-0.451
			c0.312-0.204,0.824-0.369,1.266-0.492l0.305-0.245c0.186-0.041,0.456-0.041,0.582-0.206c0.239,0.042,0.534-0.04,0.621-0.205
			c0.234-0.204,0.822-0.163,1.208-0.163c0.109-0.041,0.14-0.082,0.225-0.041c0.155,0,0.29,0.328,0.404,0.532
			c0.222,0.165,0.381,0.41,0.656,0.656c0.015,0.083-0.024,0.083-0.009,0.164c0.159,0.245,0.379,0.615,0.19,0.861
			c-0.094,0.123-0.272,0.205-0.336,0.286c-0.343,0.246-0.853,0.861-1.103,0.984c-0.024,0.081-0.077,0-0.101,0.081
			c-0.147,0.042-0.218,0.083-0.25,0.123c-0.179,0.083-0.309,0-0.427,0.206c-0.077,0-0.203,0.164-0.174,0.327
			c-0.242,0.164-0.431,0.411-0.672,0.574c-0.021-0.123,0.017-0.123,0.017-0.123c-0.312,0.205-0.554,0.369-0.791,0.779
			c0.053,0.081,0.077,0,0.232,0c-0.126,0.164-0.213,0.327-0.406,0.327c0.029,0.165-0.242,0.165-0.413,0.288
			c-0.179,0.082-0.259,0.286-0.361,0.368c-0.07,0.041-0.053-0.082-0.091-0.082c-0.234,0.205-0.462,0.451-0.742,0.615
			c0.007,0.041,0.084,0.041,0.06,0.123c-0.165,0.164-0.368,0.328-0.486,0.532c-0.007-0.04,0.017-0.123-0.029-0.163
			c-0.125,0.163-0.457,0.04-0.536,0.246c-0.179,0.082-0.228,0.245-0.297,0.286c-0.266,0.247-0.603,0.533-0.837,0.738
			c-0.133,0.123-0.198,0.41-0.307,0.451c-0.203,0.164-0.483,0.328-0.672,0.574c-0.273,0.204-0.355,0.614-0.604,0.737
			c0.034-0.246,0.205-0.369,0.317-0.614c-0.186,0.04-0.297,0.286-0.377,0.491c-0.353,0.409-0.875,0.738-1.221,1.188
			c-0.196,0.206-0.392,0.411-0.534,0.697c-0.187,0.041-0.259,0.287-0.393,0.41c-0.031,0.041-0.118,0.204-0.22,0.287
			c-0.041,0.205-0.152,0.45-0.377,0.491c0.075-0.451,0.288-0.778,0.392-1.065c0.438-1.025,1.013-1.926,1.719-2.746
			c0.063-0.082,0.049-0.165,0.157-0.205c0.119-0.205,0.353-0.41,0.45-0.738c1.011-1.066,1.946-2.337,2.996-3.402l0.511-0.615
			c0.297-0.287,0.578-0.451,0.737-0.86c0.017-0.124,0.072-0.247,0.128-0.369c-0.039,0-0.172,0.122-0.327,0.122
			c-0.14,0.083-0.227,0.247-0.522,0.329c-0.396,0.164-0.694,0.45-1.052,0.615c-0.116,0-0.231,0-0.372,0.081
			c-0.179,0.082-0.445,0.328-0.694,0.451c-0.771,0.451-1.644,0.984-2.345,1.394c-0.132,0.123-0.22,0.288-0.398,0.369
			c-0.063,0.082-0.28,0.164-0.351,0.205c-0.187,0.041-0.165,0.164-0.188,0.246c-0.063,0.082-0.21,0.123-0.242,0.164
			c-0.256,0.081-0.452,0.287-0.609,0.492c-0.186,0.04-0.203,0.163-0.396,0.163c-0.094,0.123-0.111,0.246-0.29,0.328
			c-0.024,0.083-0.193,0-0.217,0.083l-0.126,0.163c-0.298,0.287-0.687,0.492-0.921,0.697c-0.516,0.368-1.023,0.778-1.492,1.188
			c-0.455,0.492-0.97,0.861-1.424,1.353c-0.392,0.41-0.665,0.615-1.127,1.066c-0.5,0.45-0.885,0.901-1.431,1.312
			c-0.039,0-0.131-0.082-0.131-0.082c-0.039,0-0.331-0.123-0.331-0.123c-0.077,0-0.095,0.123-0.172,0.123
			c-0.123-0.041-0.229-0.205-0.367-0.328c-0.039,0-0.078,0-0.208-0.082c-0.106-0.163-0.991-0.574-1.203-0.902
			c-0.083-0.245-0.012-0.286-0.002-0.449c0.07-0.042,0.119-0.206,0.297-0.288c0.745-0.819,1.434-1.517,2.166-2.623
			c0.269-0.451,1.028-1.189,1.282-1.722c0.936-1.271,2.246-2.829,2.982-4.141l0.74-1.065l0.754-0.985
			c0.503-0.655,0.622-0.86,1.164-1.517c0.196-0.204,0.498-0.9,0.532-1.146c0.08-0.205-0.01-0.493,0.339-0.493
			c0.062-0.081,0.277,0.042,0.316,0.042c0.084,0.041,0.029,0.164,0.212,0.328c0.113,0.204,0.381,0.409,0.643,0.573
			c0.312,0.451,1.673,1.599,1.473,2.213c-0.073,0.247-0.22,0.288-0.385,0.451c-0.237,0.411-0.602,0.534-0.993,0.943
			c-0.157,0.205-0.37,0.533-0.573,0.696c-0.203,0.165-0.791,0.779-0.902,1.025l0.053,0.082
			C129.275,24.937,128.968,24.732,129.038,24.69z M132.188,23.912c-0.039,0-0.14,0.082-0.157,0.204
			C132.185,24.116,132.202,23.994,132.188,23.912z M132.453,23.665c-0.07,0.042-0.179,0.083-0.094,0.123
			c0.186-0.04,0.466-0.204,0.638-0.327c-0.007-0.041-0.007-0.041-0.046-0.041c-0.147,0.041-0.133,0.123-0.326,0.123
			C132.509,23.543,132.438,23.584,132.453,23.665z M134.048,22.846c-0.178,0.082-0.488,0.082-0.553,0.37
			c0.154,0,0.326-0.124,0.495-0.042c0.077,0,0.094-0.123,0.15-0.246c0.203-0.163,0.537-0.245,0.785-0.368l0.133-0.123
			c0.062-0.083,0.179-0.083,0.165-0.165c-0.215-0.123-0.319,0.165-0.575,0.247C134.508,22.6,134.242,22.846,134.048,22.846z
			 M135.419,22.067c-0.078,0-0.102,0.081-0.126,0.164C135.371,22.231,135.356,22.148,135.419,22.067z M135.613,22.067
			c-0.053-0.082-0.155,0-0.155,0C135.535,22.067,135.613,22.067,135.613,22.067z M136.998,21.371
			C136.998,21.371,136.99,21.329,136.998,21.371c-0.179,0.081-0.411,0.081-0.561,0.326C136.7,21.657,136.918,21.575,136.998,21.371z
			 M137.367,20.837c-0.132,0.123-0.287,0.123-0.428,0.205C137.095,21.042,137.281,21.001,137.367,20.837z M138.605,20.181
			c-0.039,0-0.116,0-0.087,0.165C138.557,20.346,138.634,20.346,138.605,20.181z"/>
		<path fill="#FFFFFF" d="M141.323,28.79c0.532-0.492,1.102-0.983,1.75-1.476c0.031-0.696,0.225-1.353,0.088-2.132
			c0.01-0.164,0.157-0.205,0.121-0.41c1.475-1.722,3.704-3.115,6.19-4.141c0.948-0.328,1.927-0.696,3.157-0.737
			c1.191-0.041,2.069,0.328,2.516,1.106c0.459,0.41,1.026,1.436,0.625,2.009c0.036,0.206-0.104,0.287-0.106,0.492
			c-0.077,0-0.095,0.123-0.133,0.123c0.007,0.04,0.046,0.04,0.015,0.082c-0.133,0.123-0.09,0.369-0.268,0.451
			c-0.104,0.286-0.247,0.574-0.535,0.697c-0.128,0.368-0.439,0.573-0.606,0.942c-0.687,0.491-1.134,1.025-1.867,1.476
			c-0.461,0.45-0.969,0.861-1.477,1.271c-0.039,0-0.024,0.082-0.024,0.082c-0.263,0.041-0.351,0.205-0.445,0.328
			c-0.208-0.082-0.386,0-0.411,0.082c0.169,0.082,0.225-0.041,0.218-0.082c0.201,0.041-0.063,0.082-0.01,0.164
			c-0.039,0-0.031,0.041-0.147,0.041c-0.034,0.246-0.389,0.204-0.607,0.287c0.054,0.082,0.187-0.041,0.232,0
			c-0.182,0.287-0.469,0.41-0.657,0.656c-0.162-0.042-0.201-0.042-0.278-0.042c0.014,0.082,0.077,0,0.123,0.042
			c0.015,0.081-0.095,0.122-0.133,0.122c-0.123-0.041,0.031-0.041-0.021-0.122c-0.396,0.163-0.817,0.409-1.115,0.696
			c-0.039,0-0.046-0.041-0.046-0.041c-0.14,0.082-0.165,0.164-0.305,0.246c-0.249,0.123-0.606,0.287-0.848,0.45
			c0.123,0.042,0.193,0,0.217-0.081c0.752-0.123,0.858-0.615,1.571-0.738c-0.094,0.123-0.365,0.123-0.336,0.287
			c-0.154,0-0.217,0.082-0.287,0.123c-0.095,0.123-0.382,0.246-0.639,0.328c-0.087,0.163-0.389,0.204-0.507,0.409
			c-0.039,0-0.039,0-0.116,0c-0.171,0.123-0.234,0.205-0.498,0.246c-0.094,0.123-0.196,0.205-0.414,0.287
			c-0.297,0.287-1.017,0.369-1.438,0.615c-0.278-0.041-0.428,0.205-0.699,0.205c-0.333,0.082-0.643,0.082-0.938,0.163
			c-0.13-0.081-0.316-0.04-0.485-0.122c-0.039,0-0.032,0.041-0.07,0.041c-0.155,0-0.169-0.082-0.246-0.082
			c-0.229-0.205-0.375-0.369-0.636-0.533c-0.12-0.246-0.543-0.451-0.587-0.697c-0.176-0.123-0.346-0.205-0.504-0.451
			c0.14-0.081,0.157-0.204,0.297-0.286c-0.176-0.123-0.37-0.123-0.546-0.246c0.233-0.656,0.825-1.024,1.28-1.517
			c0.007,0.041-0.032,0.041-0.102,0.081c0.358-0.163,0.539-0.45,0.844-0.696C141.424,28.708,141.407,28.831,141.323,28.79z
			 M140.631,29.691c-0.07,0.042-0.087,0.165-0.195,0.206c-0.071,0.04-0.102,0.082-0.134,0.122c-0.031,0.041-0.017,0.123-0.118,0.205
			c-0.119,0.206-0.336,0.287-0.278,0.615c0.217-0.082-0.002-0.451,0.3-0.492c0.015,0.083,0.021,0.123,0.061,0.123
			c0.382-0.246,0.518-0.573,0.791-0.779c0.032-0.04-0.007-0.04-0.021-0.123c0.203-0.163,0.276-0.409,0.472-0.614
			c-0.015-0.082-0.015-0.082-0.054-0.082C141.194,29.159,140.851,29.405,140.631,29.691z M145.034,29.446
			c-0.008-0.041,0.024-0.083,0.056-0.123c0.474-0.164,0.879-0.492,1.262-0.737c1.216-0.779,2.287-1.723,3.341-2.542
			c0.665-0.615,1.407-1.23,1.987-1.886c0.65-0.697,1.269-1.354,1.589-2.173c-0.636,0.123-1.358,0.409-1.849,0.697
			c-0.024,0.082-0.024,0.082-0.017,0.122c-0.343,0.246-0.708,0.369-1.02,0.574c-0.102,0.082-0.104,0.286-0.336,0.286
			c0.007,0.042-0.024,0.083-0.063,0.083s-0.07,0.04-0.147,0.04c-0.133,0.124-0.357,0.165-0.406,0.328
			c-0.256,0.083-0.29,0.328-0.6,0.328c0.015,0.083-0.024,0.083-0.101,0.083c-0.111,0.245-0.392,0.409-0.595,0.573
			c-0.258,0.287-0.64,0.532-0.899,0.82c-0.237,0.409-0.704,0.614-0.895,1.065c0.007,0.041,0.015,0.082,0.022,0.123
			c-0.116,0-0.087,0.164-0.242,0.164c-0.218,0.082-0.386,0-0.556-0.082c-0.07,0.041-0.217,0.082-0.288,0.123
			c-0.268,0.451-0.72,0.737-0.95,1.188c-0.351,0.205-0.448,0.533-0.805,0.697c0.021,0.123-0.048,0.163-0.196,0.205
			c0.008,0.041,0.155,0,0.162,0.041c-0.312,0.205-0.346,0.451-0.619,0.656c0.124,0.04,0.215,0.122,0.237,0.245
			c0.602,0.123,0.701-0.41,1.052-0.614c0.07-0.042,0.147-0.042,0.126-0.165c0,0-0.063,0.083-0.078,0c0.017-0.122,0.078,0,0.193,0
			C144.613,29.691,144.824,29.568,145.034,29.446z"/>
		<path fill="#FFFFFF" d="M182.987,16.41c0.354,0.696-0.044,1.065-0.183,1.599c-0.578,1.106-1.173,1.681-1.888,2.665
			c-0.578,0.451-1.004,1.106-1.673,1.475c-0.235,0.205-0.507,0.411-0.643,0.739c0.007,0.04,0,0,0.039,0
			c-0.578,0.451-1.148,0.942-1.712,1.475c-0.275,0.41-0.843,0.697-1.126,1.066l-0.015-0.082c-0.186,0.041-0.196,0.205-0.413,0.286
			c-0.07,0.042-0.179,0.083-0.242,0.165c-0.133,0.123-0.068,0.491-0.476,0.369c-0.095,0.122-0.266,0.245-0.276,0.409
			c0.373-0.081,0.515-0.369,0.788-0.574l0.333-0.081c0.663-0.41,1.148-0.943,1.818-1.312c0.124,0.041,0.077,0,0.264-0.042
			c0.029,0.165-0.203,0.165-0.174,0.328c-0.227,0.246-0.539,0.451-0.89,0.656c-0.234,0.204-0.493,0.492-0.766,0.697
			c-0.242,0.163-0.459,0.246-0.631,0.369c-0.445,0.327-0.883,0.696-1.412,0.982c-0.024,0.083-0.157,0.206-0.251,0.329
			c-0.597,0.122-0.936,0.614-1.303,0.942l-0.554,0.369c-0.094,0.122-0.22,0.287-0.314,0.41c-0.156,0.205-0.536,0.246-0.662,0.409
			c-0.336,0.287-0.556,0.574-0.846,0.902c-0.179,0.082-0.351,0.205-0.532,0.491c-0.273,0.205-0.493,0.493-0.713,0.779
			c-0.413,0.288-0.928,0.656-1.426,0.902c-0.094,0.123-0.351,0.205-0.414,0.286c-0.203,0.165-0.398,0.369-0.602,0.533
			c-0.049,0.164-0.319,0.164-0.407,0.328c-0.161-0.041-0.229-0.205-0.359-0.287c-0.077,0-0.063,0.082-0.193,0
			c-0.317-0.041-0.6-0.328-0.759-0.574c-0.31,0-0.43-0.245-0.722-0.368c-0.307-0.206-0.585-0.246-0.667-0.492
			c-0.075-0.205,0.106-0.491,0.193-0.656c0.329-0.328,0.573-0.696,0.832-0.983c1.78-2.624,3.824-5.289,5.824-7.543
			c-1.303,0.942-3.015,1.763-4.303,2.788l-1.349,0.901c-0.508,0.41-1.029,0.738-1.545,1.106c-0.462,0.451-0.977,0.82-1.491,1.188
			c-0.469,0.411-0.83,0.779-1.345,1.148c-0.861,0.819-1.736,1.559-2.734,2.255c-0.297,0.287-0.802,0.492-1.185,0.737
			c-0.14,0.083-0.203,0.164-0.273,0.206c-0.031,0.04-0.217,0.081-0.288,0.123c-0.242,0.163-0.617,0.45-1.057,0.368
			c-0.362-0.082-1.37-0.533-1.737-0.86c-0.015-0.082-0.128-0.287-0.135-0.328c-0.043-0.246,0.481-0.779,0.716-0.984
			c3.126-3.32,6.391-6.518,9.838-9.552l1.954-1.64c0.438-0.368,0.983-0.778,1.383-1.147c0.406-0.328,0.95-0.532,1.208-0.82
			c1.126-0.409,2.175,0.492,2.66,1.271c0.594,0.082,1.087,0.901,0.635,1.188c-0.179,0.082-0.34,0.042-0.526,0.082
			c-0.116,0-0.327,0.123-0.428,0.205c-0.715,0.328-1.508,0.655-2.146,0.983l-1.412,0.984c-0.031,0.041-0.108,0.041-0.179,0.081
			c-0.242,0.165-0.5,0.451-0.742,0.616l-0.817,0.409l-0.694,0.451c-0.336,0.287-0.68,0.533-1.022,0.779l-1.022,0.778
			c-0.382,0.246-0.563,0.533-0.97,0.861c-0.228,0.246-0.617,0.451-0.875,0.737c-0.188,0.246-0.338,0.492-0.472,0.615
			c-0.266,0.246-0.592,0.369-0.781,0.615c2.236-1.354,4.451-2.829,6.587-4.305c0.508-0.41,1.076-0.696,1.629-1.065
			c1.254-0.779,2.758-1.682,4.02-2.419c0.14-0.082,0.583-0.205,1.013-0.614c0.336-0.288,0.689-0.697,0.973-1.066
			c0.244-0.369,0.65-0.697,1.024-0.984c0.201,0.041,0.257-0.082,0.488-0.082c0.414,0.369,0.942,0.738,1.152,1.271
			c0.256,0.573-0.174,0.984-0.25,1.434c-0.578,0.451-0.923,0.902-1.509,1.312c-0.292,0.533-0.74,1.066-1.148,1.6
			c-0.206,0.368-0.481,0.778-0.764,1.146c-0.063,0.083-0.179,0.083-0.281,0.165c-0.164,0.163-0.237,0.409-0.355,0.614
			c-0.392,0.41-0.868,0.779-1.09,1.271c0.662-0.411,1.341-0.943,1.958-1.395c0.725-0.491,1.397-1.065,2.193-1.599
			c0.508-0.409,1.061-0.778,1.562-1.229c0.07-0.041,0.133-0.123,0.157-0.205c0.141-0.082,0.256-0.082,0.358-0.163
			c0.062-0.083,0.094-0.124,0.157-0.206c0.227-0.245,0.469-0.41,0.781-0.615c0.147-0.041,0.203-0.163,0.42-0.246
			c0.095-0.122,0.273-0.204,0.336-0.286c0.094-0.123,0.213-0.328,0.398-0.369c1.333-1.435,2.958-2.746,3.761-4.55
			c-0.053-0.082-0.043-0.247-0.026-0.37c-0.072-0.409-0.108-0.614-0.458-1.065c-0.007-0.04-0.092-0.081-0.099-0.123l-0.029-0.163
			c-0.184-0.165-0.345-0.205-0.623-0.246l0.358-0.164c0.401,0.082,0.307,0.205,0.676,0.327c0.452,0.369,0.601,0.779,0.78,1.354
			C183.001,16.492,182.895,16.328,182.987,16.41z M174.129,26.699h-0.039c0,0-0.078,0-0.063,0.082
			C174.098,26.74,174.136,26.74,174.129,26.699z M182.34,18.009c0.418-0.041,0.399-0.368,0.426-0.656c-0.039,0-0.024,0.083-0.039,0
			c-0.029-0.163,0.121-0.409-0.047-0.491c-0.005,0.409-0.087,0.819-0.276,1.065c-0.007-0.041,0.07-0.041,0.017-0.123
			C182.312,17.845,182.295,17.968,182.34,18.009z"/>
	</g>
</g>
</svg>
