<?xml version="1.0" encoding="utf-8"?>
<!-- Generator: Adobe Illustrator 17.0.0, SVG Export Plug-In . SVG Version: 6.00 Build 0)  -->
<!DOCTYPE svg PUBLIC "-//W3C//DTD SVG 1.1//EN" "http://www.w3.org/Graphics/SVG/1.1/DTD/svg11.dtd">
<svg version="1.1" id="Calque_1" xmlns="http://www.w3.org/2000/svg" xmlns:xlink="http://www.w3.org/1999/xlink" x="0px" y="0px"
	 width="459px" height="76px" viewBox="0 0 459 76" enable-background="new 0 0 459 76" xml:space="preserve">
<g>
	<g>
		<path fill="#9EFF00" d="M76.548,73.073h-4.956l-5.597-18.457l-5.597,18.457h-4.956l-8.118-30.42h6.195l4.7,19.184l5.554-19.184
			h4.443l5.555,19.184l4.742-19.184h6.195L76.548,73.073z"/>
		<path fill="#9EFF00" d="M88.51,73.073v-30.42h20.038v5.298H94.449v7.135h12.005v5.298H94.449v7.392h14.099v5.298H88.51z"/>
		<path fill="#9EFF00" d="M137.002,73.073h-12.731v-30.42h12.219c5.939,0,9.399,3.332,9.399,8.545c0,3.375-2.222,5.554-3.76,6.28
			c1.837,0.854,4.188,2.777,4.188,6.836C146.317,69.997,142.429,73.073,137.002,73.073z M136.02,47.951h-5.811v7.007h5.811
			c2.521,0,3.931-1.41,3.931-3.504C139.951,49.361,138.541,47.951,136.02,47.951z M136.405,60.299h-6.195v7.477h6.195
			c2.691,0,3.973-1.709,3.973-3.76S139.096,60.299,136.405,60.299z"/>
		<path fill="#9EFF00" d="M152.383,73.073v-30.42h20.038v5.298h-14.099v7.135h12.006v5.298h-12.006v7.392h14.099v5.298H152.383z"/>
		<path fill="#9EFF00" d="M178.231,73.073v-30.42h5.939v25.122h13.8v5.298H178.231z"/>
		<path fill="#9EFF00" d="M202.797,73.073v-30.42h5.939v30.42H202.797z"/>
		<path fill="#9EFF00" d="M215.829,73.073v-30.42h20.038v5.298h-14.099v7.135h12.006v5.298h-12.006v7.392h14.099v5.298H215.829z"/>
		<path fill="#9EFF00" d="M252.742,73.073h-4.443l-10.04-30.42h6.152l6.109,19.824l6.11-19.824h6.194L252.742,73.073z"/>
		<path fill="#9EFF00" d="M266.5,73.073v-30.42h20.037v5.298h-14.099v7.135h12.006v5.298h-12.006v7.392h14.099v5.298H266.5z"/>
		<path fill="#9EFF00" d="M302.26,73.073v-30.42h5.938v30.42H302.26z"/>
		<path fill="#9EFF00" d="M333.277,73.073l-12.049-18.671v18.671h-5.938v-30.42h5.298l12.049,18.628V42.653h5.938v30.42H333.277z"/>
		<path fill="#9EFF00" d="M367.2,60.598v12.476h-5.896V60.598l-9.144-17.944h6.451l5.683,12.262l5.597-12.262h6.452L367.2,60.598z"
			/>
		<path fill="#9EFF00" d="M398.005,69.997c-2.137,2.136-4.742,3.332-8.203,3.332s-6.109-1.196-8.246-3.332
			c-3.076-3.076-2.99-6.879-2.99-12.134s-0.086-9.058,2.99-12.134c2.137-2.136,4.785-3.333,8.246-3.333s6.066,1.196,8.203,3.333
			c3.076,3.076,3.033,6.879,3.033,12.134S401.081,66.921,398.005,69.997z M393.604,49.318c-0.854-0.982-2.18-1.624-3.803-1.624
			c-1.624,0-2.991,0.642-3.846,1.624c-1.153,1.281-1.452,2.691-1.452,8.545s0.299,7.263,1.452,8.545
			c0.854,0.982,2.222,1.623,3.846,1.623c1.623,0,2.948-0.641,3.803-1.623c1.153-1.282,1.495-2.691,1.495-8.545
			S394.758,50.6,393.604,49.318z"/>
		<path fill="#9EFF00" d="M417.829,73.329c-6.238,0-11.194-4.229-11.194-10.681V42.653h5.939v19.781
			c0,3.504,2.051,5.597,5.255,5.597s5.298-2.093,5.298-5.597V42.653h5.896v19.995C429.022,69.1,424.066,73.329,417.829,73.329z"/>
	</g>
</g>
<g>
	<g>
		<path fill="#FFFFFF" d="M69.418,15.363c3.558,0,7.681,0.727,10.076,1.817c0.795,0.282,1.508,0.768,2.303,1.049
			c0.428,0.445,1.111,0.849,1.543,1.414c0.286,0.484,0.74,1.332,0.887,1.857c0.246,0.808,0.417,1.292,0.215,1.817
			c-0.083,0.201-0.366,0.604-0.463,0.767c-0.304,0.565-0.787,0.403-1.16,0.768c0.115,0,0.14-0.041,0.27,0
			c-0.703,0.524-0.868,0.605-1.848,1.009c-0.432,0.202-0.98,0.728-1.479,0.849c-0.422,0.121-0.814,0.322-1.298,0.484
			c-0.204,0.081-0.552,0.081-0.77,0.121c-0.049,0.081-0.084,0.202-0.287,0.282c-0.102,0.041-0.31,0-0.436,0.081
			c-0.755,0.161-1.371,0.606-2.19,0.808c-0.436,0.08-0.866,0.283-1.288,0.403c-1.074,0.242-2.085,0.445-2.967,0.688
			c-0.702,0.201-1.027,0.484-1.759,0.604c-0.565,0.041-0.993,0.364-1.728,0.364c0.043,0.12,0.193,0,0.222,0.081
			c-1.29,0.727-2.908,1.292-4.516,1.776c-0.31,0-0.383,0.121-0.576,0.121c-0.154,0-0.006,0.201-0.107,0.242
			c-0.944,0.282-1.984,0.404-2.746,0.767c-1.013,0.525-2.204,0.768-3.288,1.091c-0.141,0.04-0.411,0.04-0.562,0.161
			c-0.141,0.04-0.174,0.162-0.276,0.202c-0.151,0.121-0.407,0.161-0.586,0.202c-0.965,0.443-2.296,0.727-3.274,1.13
			c-0.204,0.081-0.407,0.162-0.597,0.283c-0.203,0.08-0.34,0.242-0.519,0.282c-0.306,0.122-0.653,0.122-0.973,0.203
			c-0.345,0.12-0.559,0.281-0.892,0.322c-0.358,0.081-0.745,0.081-0.878,0.363c0.193,0,0.334-0.04,0.542,0
			c-0.253,0.161-0.64,0.161-0.878,0.363c-0.072,0.121-0.132,0.282-0.359,0.404c-0.102,0.04-0.31,0-0.33,0.161
			c-0.229-0.322-0.563-0.283-0.964-0.322c-0.135-0.162-0.371-0.283-0.495-0.525c-0.948-0.605-1.701-1.535-2.601-2.222
			c-1.693,1.777-3.405,3.393-4.887,5.331c-0.246-0.041-0.348,0-0.436,0.08c-0.317-0.242-0.635-0.484-0.89-0.768
			c-1.041-0.323-1.723-1.05-2.569-1.695c1.284-3.594,3.147-6.864,5.303-9.853c2.232-2.988,4.528-6.017,7.252-8.601
			c2.771-2.665,5.64-5.169,9.058-7.43c1.707-0.969,3.41-2.06,5.229-3.149c1.771-1.01,2.114-1.131,4.055-2.1
			c0.59-0.08,2.263-2.463,1.563-3.352c1.013,0.242,2.113,1.938,3.029,1.574c2.001-0.686,3.584-1.131,6.252-1.131
			c1.547,0,2.499-0.039,3.725,0.364c0.43,0.121,1.159,0.767,1.36,1.009c0.188,0.202,0.308,0.323,0.442,0.485
			c0.312,0.444,0.211,0.162,0.378,0.524c0.167,0.364,0.338,0.849,0.297,1.172c-0.019,0.604-0.669,1.17-1.17,1.614
			c-1.584,1.212-1.738,1.212-3.484,2.181C75.251,12.497,70.94,14.636,69.418,15.363z M47.742,21.218
			c-0.145-0.081-0.102,0.041-0.15,0.121c-0.078,0-0.184-0.08-0.193,0c-0.125,0.525-0.683,0.808-0.951,1.253
			c0.349,0,0.404-0.283,0.54-0.445c0.791-0.605,1.516-1.292,2.11-2.019c0.348,0,0.293-0.484,0.646-0.363
			c-0.229,0.888-1.391,1.211-1.749,2.06c-1.618,1.332-2.822,3.068-4.398,4.521c-0.002,0.323-0.226,0.566-0.492,0.687
			c-0.218,0.808-1.023,1.373-0.875,2.342c0.024-0.039,0.063-0.039,0.141-0.039c-0.343,0.564-0.829,1.049-1.094,1.614
			c-0.313,0.646-0.732,1.212-0.757,2.019c4.034-4.239,7.881-8.681,11.958-12.8c1.357-1.413,2.676-2.826,4.153-4.118
			c0.458-0.565,1.075-1.01,1.562-1.494c1.504-1.655,3.329-2.947,4.813-4.441c-0.015-0.041,0.087-0.081-0.106-0.081
			C56.95,12.9,51.895,16.655,47.763,21.057C47.738,21.097,47.767,21.178,47.742,21.218z M51.081,29.697
			c0.014,0.041-0.035,0.122,0.067,0.081c0.864-0.727,2.148-1.251,3.182-1.938c0.232,0,0.523-0.161,0.516-0.403
			c-0.203,0.081-0.456,0.242-0.649,0.242c0.869-0.605,2.003-1.01,3.059-1.414c0.345-0.12,0.723-0.362,1.066-0.484
			c1.284-0.524,2.52-0.969,3.78-1.453c0.075,0.323-0.143,0.364-0.308,0.444c-1.211,0.404-2.559,0.969-3.649,1.493
			c-0.077,0,0.067,0.081,0.019,0.162c-0.368,0.162-0.712,0.283-1.042,0.444s-0.578,0.444-0.816,0.646
			c-0.368,0.161-0.621,0.322-0.926,0.444c-0.123,0.201-0.625,0.201-0.574,0.565c0.348,0,0.451-0.364,0.702-0.203
			c-1.335,0.93-2.921,1.696-4.164,2.665c-0.102,0.041,0.163,0.242,0.062,0.283c-0.467,0.323-1.049,0.646-1.293,1.05
			c0.18-0.04,0.263-0.242,0.368-0.161c0.364,0.484-0.346,0.444-0.295,0.807c0.383-0.12,0.762-0.362,1.187-0.362
			c-0.625,0.201-1.254,0.282-1.579,0.565c0.68,0.282,1.397-0.203,1.978-0.203c-0.28,0.081-0.779,0.203-1.07,0.364
			c-0.102,0.04-0.218,0.04-0.319,0.081c0.087-0.081-0.017,0.282,0.086,0.242c0.028,0.08,0.241-0.081,0.299,0.08
			c0.014,0.04-0.116,0-0.088,0.081c1.995-0.484,3.57-1.171,5.578-1.615c0.155,0-0.004-0.121,0.099-0.161
			c1.245-0.525,2.639-0.849,3.74-1.454c-0.057-0.162-0.232,0-0.274-0.121c0.097-0.161,0.513-0.081,0.648-0.242
			c0.077,0,0.106,0.081,0.208,0.04c1.388-0.121,1.866-0.848,3.032-1.05c0.126-0.081,0.291-0.161,0.456-0.242
			c0.614-0.121,1.205-0.201,1.348-0.565c0.966,0,1.39-0.443,2.158-0.565c0.031-0.242,0.52-0.282,0.797-0.484
			c-0.208-0.04-0.433,0.202-0.658,0c0.011-0.08,0.218-0.04,0.229-0.12c-0.73,0.12-1.391,0.443-2.188,0.484
			c0.776-0.323,1.657-0.565,2.394-0.889c-1.18,0.162-2.257,0.727-3.438,0.889c2.161-0.889,4.535-1.616,6.734-2.505
			c0.103-0.039,0.074-0.12,0.176-0.161c3.42-1.373,7.251-2.462,9.681-4.562c-1.622-1.09-7.378-2.504-11.642-2.423
			c-0.503,0-1.098-0.04-1.639-0.04c-0.411,0.04-0.899,0.081-1.363,0.081c-0.706,0.081-1.652-0.081-2.104,0.282
			c-0.106-0.081-0.261-0.081-0.416-0.081c-0.139-0.282-0.359-0.362-0.513-0.686c-0.13-0.041-0.087,0.081-0.179,0.04
			c-0.936-1.01-1.266-0.848-2.086-1.857c-3.651,2.584-6.148,6.138-9.271,9.126c-1.095,1.17-2.162,2.422-3.426,3.553
			c-1.192,1.333-2.333,2.705-3.612,4.119c-0.01,0.081,0.091,0.04,0.057,0.161c-0.849,0.444-1.372,1.373-2.097,2.059
			c0.899-0.08,1.154-0.565,1.616-1.009c0.918-0.687,2.058-1.292,3.024-2.06c0.309,0,0.329-0.161,0.576-0.121
			c0.248-0.282,0.669-0.404,1.072-0.687c0.354-0.202,0.626-0.525,1.059-0.727c0.062-0.041,0.192,0,0.256-0.041
			c0.179-0.04,0.253-0.161,0.312-0.322c-0.213,0.161-0.403,0.282-0.621,0.322C50.576,30.021,50.775,29.819,51.081,29.697z
			 M68.484,29.819c-0.31,0-0.828,0.282-1.359,0.201c0.706-0.081,1.105-0.484,1.551-0.646c0.141-0.039,0.309,0,0.45-0.039
			c0.087-0.081,0.237-0.203,0.392-0.203c0.078,0,0.116,0,0.232,0c0.653-0.12,1.288-0.403,2.005-0.565
			c0.474-0.08,1.025-0.161,1.553-0.201c0.205-0.403,0.993-0.363,1.217-0.605c-0.706,0.08-1.282,0.202-2.079,0.242
			c0.062-0.04,0.217-0.04,0.213-0.162c-0.271,0-0.586,0.203-0.822,0.081c0.165-0.081,0.604-0.04,0.611-0.242
			c0.559,0.161,0.966,0,1.469,0c0.565-0.04,1.329,0.041,1.524-0.282c-1.117,0.121-2.07,0.161-3.1,0.201
			c0.571-0.242,1.408-0.282,1.998-0.362c-0.384-0.323-0.748-0.041-1.067,0.04c-0.45,0.04-0.914,0.04-1.287,0.08
			c-0.027-0.08,0.218-0.04,0.151-0.12c-0.538,0.12-1.181,0.161-1.391,0.443c0.271,0,0.368-0.161,0.735,0
			c-1.492,0.484-3.562,0.646-4.736,1.373c0.313,0.121,0.393-0.202,0.633,0.04c-0.61,0.243-1.178,0.605-1.855,0.768
			c-0.445,0.161-1.03,0.04-1.355,0.322c-0.633-0.04-0.955,0.364-1.676,0.404c-0.049,0.08,0.068,0.08,0.106,0.08
			c-0.417,0.242-0.835,0.484-1.382,0.688c-0.635,0.282-1.355,0.322-2.029,0.605c-0.513,0.081-0.862,0.404-1.309,0.565
			c-0.659,0.323-1.4,0.524-2.261,0.605c-0.077,0-0.063,0.041-0.102,0.041c-0.66,0.322-1.26,0.484-2.011,0.767
			c-0.291,0.161-0.501,0.444-0.935,0.202c-0.126,0.081-0.499,0.12-0.667,0.081c-0.723,0.362-1.695,0.564-2.326,0.969
			c0.411-0.041,0.799-0.364,1.253-0.283c-0.548,0.202-1.084,0.323-1.459,0.687c0.251,0.162,0.456-0.242,0.794-0.161
			c0.79-0.283,1.594-0.525,2.465-0.687c0.92-0.242,1.754-0.728,2.826-0.646c0.08,0.444-0.838,0.364-0.98,0.727
			c0.053,0.041,0.049-0.08,0.115,0c-0.126,0.081-0.58,0-0.678,0.162c0.504,0,0.914-0.04,1.166-0.202
			c-0.081-0.121-0.28,0.081-0.387,0c0.688-0.242,1.334-0.605,1.944-0.848c0.28-0.081,0.614-0.121,0.74-0.202
			c0.063-0.04,0.045-0.202,0.122-0.202c0.582-0.322,1.496-0.362,2.16-0.565c2.06-0.847,4.277-1.574,6.404-2.341
			c-0.488,0.039-1.162,0.322-1.756,0.281c0.944-0.281,1.846-0.686,3.029-0.727c-0.115,0-0.318,0.081-0.199,0.202
			C67.698,30.223,68.184,30.062,68.484,29.819z M51.935,32.888c0.835-0.484,1.896-0.767,2.912-1.171
			C54.002,32.282,52.957,32.605,51.935,32.888z M57.744,13.506c-0.438,0.403-1.006,0.768-1.68,1.05
			c-0.283,0.403-0.826,0.727-1.374,0.929c0.759-0.808,1.977-1.413,3.039-2.019C57.768,13.466,57.744,13.506,57.744,13.506z
			 M73.799,7.611c-0.252,0.161-1.688,0.807-1.93,0.888c-0.873,0.484-1.803,0.808-2.556,1.413c-0.442,0.283-1.122,0.768-1.578,1.01
			c-1.615,1.01-2.291,1.615-3.71,2.745c-0.038,0-0.277,0.202-0.084,0.202c3.381-1.817,4.93-2.14,8.658-3.957
			c1.242-0.646,5.613-2.504,6.513-3.351c-1.883,0.362-3.552,0.564-4.021,0.767S74.244,7.449,73.799,7.611z M71.258,29.132
			c0.242-0.08,0.696,0,0.712-0.282c-0.724-0.08-1.21,0.404-1.733,0.565C70.676,29.455,70.899,29.213,71.258,29.132z"/>
		<path fill="#FFFFFF" d="M98.742,22.753c0.216,0.282,0.751,0.484,0.953,0.727c0,0-0.035,0.121,0.008,0.242
			c0.061,0.282,0.266,0.646,0.443,0.929c-0.073,0.121-0.006,0.202,0.128,0.363c0.11,0.201,0.259,0.404,0.319,0.687
			c0.053,0.04,0.207,0.04,0.274,0.121c-0.101,0.04-0.222-0.081-0.309,0c0.019,0.161-0.069,0.242-0.146,0.242
			c-0.238,0.201-0.475,0.081-0.721,0.04c-0.131-0.04-0.271,0-0.45,0.041c-0.14,0.04-0.28,0.081-0.421,0.12
			c-0.832,0.162-1.545,0.445-2.377,0.606c-0.088,0.081-0.188,0.122-0.315,0.202c-0.649,0.242-1.235,0.444-1.909,0.727
			c-0.116,0-0.204,0.081-0.344,0.121c-0.102,0.041-0.242,0.081-0.33,0.161c-0.14,0.041-0.203,0.081-0.344,0.122
			c-0.558,0.282-1.052,0.524-1.609,0.808c-0.165,0.08-0.354,0.201-0.519,0.282c-1.213,0.727-2.32,1.534-3.467,2.342
			c-0.15,0.121-0.301,0.243-0.529,0.363c-0.122,0.202-0.456,0.242-0.563,0.484c0.25,0.162,0.482,0.162,0.623,0.122
			c0.154,0,0.271,0,0.411-0.041c0.179-0.04,0.333-0.04,0.46-0.12c1.837-0.162,3.44-0.769,5.141-1.213
			c0.203-0.081,0.383-0.12,0.586-0.201c0.358-0.081,0.649-0.242,1.07-0.364c0.154,0,0.295-0.039,0.436-0.08
			c0.79-0.282,1.502-0.565,2.253-0.848c0.179-0.041,0.33-0.161,0.547-0.202c0.698-0.323,1.34-0.808,2.235-1.009
			c-0.747,0.403-1.575,0.686-2.304,1.251c-0.126,0.081-0.277,0.202-0.48,0.283c-0.684,0.362-1.367,0.727-2.076,1.13
			c-0.126,0.081-0.252,0.162-0.432,0.202c-0.368,0.161-0.684,0.363-0.988,0.485c-0.204,0.08-0.394,0.201-0.533,0.242
			c-0.725,0.686-2.132,0.646-2.648,1.372c-0.391,0.646-1.388,0.121-1.793,0.728c-0.232,0-0.488,0.039-0.625,0.201
			c-0.193,0-0.396,0.081-0.6,0.161c-0.461,0.122-0.987,0.162-1.592,0.202c-0.518-0.04-1.158-0.322-1.465-0.646
			c0.429,0.889-1.262-0.727-0.309-3.836c0.42-0.889,0.901-1.938,1.52-2.706c0.401,0.041,0.332-0.484,0.709-0.403
			c-0.067-0.081-0.029-0.081-0.071-0.201l0.071,0.201c0.193,0,0.224-0.242,0.277-0.201c0.074,0.322-0.07,0.242-0.158,0.322
			c-0.154,0-0.111,0.121-0.121,0.202c-0.112,0.121-0.306,0.121-0.277,0.202c0.135,0.161,0.183,0.08,0.154,0
			c0.057,0.161-0.002,0.323-0.113,0.443c-0.302,0.242-0.647,0.687-0.751,1.05c0.266-0.121,0.278-0.524,0.637-0.605
			c0.804-1.01,1.551-2.181,2.566-3.028c-0.096-0.161,0.176-0.161,0.171-0.283c-0.231,0-0.252,0.162-0.417,0.242
			c-0.111,0.122-0.344,0.122-0.48,0.283c-0.199,0.201-0.423,0.443-0.729,0.565c0.021-0.161,0.228-0.122,0.249-0.283
			c0.048-0.081,0.136-0.161,0.107-0.242l0.336-0.363c0.062-0.04-0.12-0.121-0.086-0.242c0.176-0.161,0.471-0.202,0.473-0.525
			c0.482-0.604,1.172-1.17,1.88-1.574c0.704-0.525,1.413-0.929,2.29-1.292c0.828-0.282,1.685-0.484,2.69-0.484
			c0.503,0,0.875-0.041,1.318,0.121c0.155,0,0.377,0.081,0.444,0.161c0.13,0.041,0.342,0.202,0.562,0.283
			c0.236,0.121,0.521,0.162,0.888,0.323C98.639,22.35,98.725,22.592,98.742,22.753z M85.209,29.657c-0.117,0-0.141,0.04-0.243,0.081
			C85.174,29.778,85.209,29.657,85.209,29.657z M86.088,28.204c-0.141,0.04-0.098,0.161-0.098,0.161S86.103,28.244,86.088,28.204z
			 M89.199,28.365c-0.015-0.041-0.077,0-0.165,0.081C89.034,28.446,89.15,28.446,89.199,28.365z M93.736,24.893
			c-0.969,0.322-1.867,0.848-2.557,1.413c1.312-0.444,2.477-1.091,3.793-1.413c0.394-0.201,0.882-0.242,1.274-0.444
			c-0.327-0.161-0.647-0.08-0.956-0.08L93.736,24.893z"/>
		<path fill="#FFFFFF" d="M104.596,32.444c-0.434-0.243-0.73,0.12-0.708,0.403c0.847-0.122,1.622-0.444,2.358-0.768
			c0.79-0.282,1.502-0.565,2.162-0.889c4.236-2.019,7.963-4.279,12.056-6.38c0.583-0.323,1.088-0.646,1.789-0.848
			c-0.659,0.323-0.896,0.97-1.435,1.413c-0.462,0.444-1.055,0.849-1.569,1.252c-0.169-0.04-0.126,0.081-0.256,0.04
			c-0.024,0.041-0.011,0.081-0.035,0.121c-0.039,0-0.077,0-0.154,0c-0.063,0.041-0.073,0.122-0.122,0.203
			c-0.127,0.08-0.146,0.242-0.273,0.322c-0.077,0,0.067,0.081-0.01,0.081c-0.024,0.04-0.088,0.081-0.137,0.161
			c-0.242,0.081-0.562,0.162-0.736,0.323c-0.639,0.162-0.753,0.605-1.224,0.808c-0.059,0.161-0.291,0.161-0.312,0.323
			c-0.309,0-0.301,0.242-0.571,0.242c-0.06,0.161-0.393,0.201-0.554,0.403c-0.063,0.04-0.088,0.081-0.126,0.081
			c-0.214,0.161-0.572,0.242-0.747,0.403c-0.199,0.202-0.515,0.404-0.662,0.646c-0.217,0.04-0.276,0.201-0.402,0.282
			c0.019,0.161-0.045,0.202-0.017,0.283c-0.111,0.12-0.237,0.201-0.393,0.201c-0.224,0.243-0.592,0.404-0.854,0.646
			c-0.078,0-0.035,0.121-0.098,0.162c-0.232,0-0.186,0.242-0.403,0.282c0.054,0.041,0.092,0.041,0.105,0.08
			c-0.165,0.081-0.175,0.162-0.171,0.283c-0.145-0.08-0.193,0-0.242,0.081c-0.158-0.122-0.246-0.041-0.387,0
			c-0.028-0.081-0.096-0.161-0.134-0.161c-0.116,0-0.141,0.039-0.18,0.039c0.028,0.081,0,0,0.053,0.041
			c-0.309,0-0.417,0.242-0.434,0.524c-0.154,0-0.164,0.081-0.16,0.202c-0.47,0.202-0.771,0.444-1.136,0.728
			c-0.832,0.161-1.769,0.686-2.711,0.646c-0.213,0.162-0.763-0.08-1.125-0.121c-0.387,0-0.822,0.08-1.271-0.202
			c-0.485-0.282-1.3-0.727-1.668-1.332c-0.11-0.202-0.181-0.404-0.228-0.646c-0.154-0.767,0.207-1.494,0.482-2.141
			c0.328-0.604,0.616-1.211,1.002-1.654c1.512-2.181,3.588-4.078,5.647-5.693c1.121-0.768,2.542-1.454,3.667-2.101
			c0.232,0,0.319-0.081,0.408-0.161c0.168,0.04,0.217-0.04,0.28-0.081c0.567,0.404,0.968,1.212,1.575,1.616
			c0.027,0.08,0.042,0.12,0.095,0.161c0.452,0.403,1.341,1.17,1.691,1.615c0.34,0.524,0.201,1.009,0.228,1.412
			c-0.242,0.081-0.456,0.242-0.664,0.202c-0.481-0.161-0.962-0.646-1.426-0.646c-0.649,0.242-1.38,0.363-1.832,0.727
			c-0.193,0-0.213,0.162-0.344,0.121c-0.354,0.202-0.757,0.484-1.217,0.605c-0.802,0.688-1.84,1.253-2.694,1.898
			c-0.077,0-0.116,0-0.155,0c-0.115,0-0.087,0.081-0.072,0.121c-0.412,0.04-0.52,0.282-0.772,0.444
			c-0.01,0.081,0.131,0.04,0.146,0.081c-0.112,0.12-0.129,0.403-0.399,0.403c-0.157,0.323-0.405,0.605-0.735,0.767
			c-0.181,0.364-0.729,0.565-0.804,1.01c0.015,0.04-0.15,0.121-0.253,0.161c-0.136,0.162-0.286,0.283-0.571,0.243
			C104.988,32.241,104.588,32.201,104.596,32.444z"/>
		<path fill="#FFFFFF" d="M134.573,21.622c0.015,0.04,0.019,0.162-0.006,0.202c0.356,1.01-0.55,1.292-0.863,1.938
			c-0.708,0.404-0.916,1.131-1.586,1.534c-0.034,0.122-0.175,0.162-0.272,0.323c0.067,0.081,0.208,0.041,0.193,0
			c-0.182,0.363-0.556,0.727-0.655,1.212c-0.183-0.081-0.028-0.081-0.082-0.121c-0.36,0.403-0.354,0.969-0.858,1.292
			c0.028,0.08,0.119,0.121,0.043,0.121c-0.155,0-0.108,0.242-0.21,0.282c0.015,0.041,0.067,0.081,0.067,0.081
			c-0.041,0.323-0.328,0.605-0.432,0.969c-0.039,0-0.103,0.041-0.203,0.081c0.057,0.161,0.144,0.08,0.095,0.161
			c-0.062,0.041-0.091-0.04-0.218,0.041c-0.053-0.041-0.01,0.081-0.049,0.081c0.067,0.08,0.054,0.04,0.12,0.12
			c-0.069,0.242-0.153,0.444-0.342,0.565c0.098,0.606-0.315,0.969-0.261,1.454c-0.077,0-0.116,0-0.116,0
			c0.058,0.162,0.047,0.242-0.012,0.404c-0.067-0.081-0.092-0.041-0.247-0.041c-0.057-0.161,0.247,0.041,0.253-0.161
			c-0.145-0.081-0.116,0-0.218,0.04c0.033-0.565,0.234-1.09,0.214-1.696c-0.053-0.04-0.053-0.04-0.13-0.04
			c-0.094,0.282-0.057,0.605-0.219,0.808c0.057,0.161,0.033,0.201,0.076,0.323c-0.273,1.091-0.176,2.463,0.375,3.917
			c0.043,0.12,0.117,0,0.155,0c0.043,0.12,0.004,0.12,0.019,0.161c-0.053-0.041-0.053-0.041-0.116,0c0.039,0-0.011,0.081,0.054,0.04
			c0.014,0.041,0.109,0.202,0.085,0.242c0.887,1.858,2.905,0.565,3.61,0.041c-0.099,0.161-0.287,0.282-0.332,0.484
			c-0.617,0.444-1.258,0.929-2.312,1.01c-0.464,0-0.939-0.364-1.29-0.809c-2.258-4.319-0.435-6.823-0.097-9.812
			c-0.65,0.565-1.365,1.172-2.031,1.695c0.082,0.122,0.223,0.081,0.275,0.122c-0.102,0.04-0.319,0.081-0.34,0.242
			c-0.68,0.484-1.465,0.889-1.958,1.574c-0.379,0.242-0.743,0.525-1.237,0.768c-0.482,0.606-0.989,1.252-1.828,1.615
			c0.081,0.121,0.004,0.121,0.086,0.242c-0.155,0-0.313-0.121-0.405-0.162c-0.039,0-0.102,0.041-0.102,0.041
			c-0.251-0.161-0.515-0.363-0.766-0.525c-0.543-0.443-1.471-1.211-1.013-1.776c-0.039,0-0.028-0.08-0.043-0.121
			c0.95-2.02,2.377-3.674,4.069-5.128c0.141-0.04-0.011,0.08,0.004,0.121c0.231,0,0.417-0.242,0.501-0.444
			c0.023-0.04-0.039,0-0.092-0.04c2.266-2.019,5.116-3.473,8.965-4.401c0.102-0.041,0.13,0.04,0.197,0.12
			c0.165-0.08,0.21-0.281,0.354-0.201c0.024-0.041,0.05-0.08,0.074-0.121C133.853,20.895,134.213,21.259,134.573,21.622z
			 M128.891,25.135c-1.738,1.211-3.327,2.625-4.836,4.159C125.804,28.002,127.46,26.669,128.891,25.135z"/>
		<path fill="#FFFFFF" d="M139.346,30.989c0.277-0.201,0.438-0.403,0.753-0.605c0.424-0.444,1.055-0.848,1.438-1.292
			c0.92-1.01,1.937-1.856,2.793-2.827c1.488-1.372,2.64-2.381,4.051-3.754c0.5-0.444,0.843-1.01,1.396-1.414
			c0.169,0.04,0.267-0.121,0.383-0.121c-0.008-0.242,0.272-0.323,0.572-0.242c0.066,0.08,0.081,0.121,0.197,0.121
			c0.321,0.363,0.853,0.444,1.266,0.849c-0.021,0.161-0.03,0.242,0.085,0.242c0.019,0.162,0.496,0.969,0.486,1.05
			c-0.179,0.04-0.33,0.161-0.389,0.323c-0.427,0.323-0.633,0.727-0.959,1.009c-0.627,0.525-0.787,0.727-1.27,1.333
			c-0.094,0.282-0.307,0.443-0.56,0.604c-0.244,0.404-0.373,0.809-0.723,1.132c0.034-0.121,0.132-0.283,0.167-0.403
			c-0.092-0.041-0.127,0.08-0.189,0.12c-0.186,0.242-0.374,0.364-0.56,0.606c-0.171,0.282-0.313,0.646-0.509,0.969
			c-0.077,0-0.189,0.121-0.238,0.201c-0.049,0.081-0.084,0.202-0.157,0.323c-0.062,0.041-0.14,0.041-0.228,0.122
			c-0.137,0.161-0.128,0.403-0.395,0.524c-0.096-0.162,0.041-0.323,0.064-0.363c0.074-0.122-0.018-0.161,0.031-0.242
			c0.024-0.041,0.189-0.122,0.107-0.242c0.234-0.323,0.271-0.768,0.375-1.131c0.357-0.081,0.451-0.363,0.563-0.484
			c-0.141,0.04-0.276,0.201-0.428,0.323c-0.231,0-0.294,0.04-0.276,0.201c0.077,0,0.01-0.081,0.087-0.081
			c-0.072,0.122-0.079,0.323-0.335,0.364c-0.01,0.081-0.035,0.12,0.008,0.242c-0.25-0.161-0.357,0.081-0.417,0.242
			c0.102-0.041,0.087-0.081,0.15-0.122c-0.034,0.122-0.094,0.283-0.263,0.243c-0.068,0.242-0.205,0.403-0.405,0.605
			c0.005,0.121-0.034,0.121,0.005,0.121c-0.737,1.091-1.33,2.262-1.82,3.393c-0.111,0.12-0.064,0.362-0.332,0.484
			c-0.124,0.524-0.438,1.17-0.596,1.816c0.04,0.444-0.021,0.929,0.295,1.494l-0.102,0.04c-0.273-0.444-0.392-0.889-0.438-1.131
			c-0.04,0.323,0.23,1.091,0.46,1.414c-0.13-0.04-0.124-0.242-0.215-0.283c-0.031,0.243,0.402,0.485,0.488,0.728
			c-0.525-0.283-0.884-0.97-0.918-1.616c0.023-0.04-0.078,0-0.082-0.12c-0.012-1.131,0.328-2.141,0.668-3.149
			c0.021-0.161,0.08-0.323,0.182-0.364c0.148-0.565,0.452-1.13,0.73-1.655c-0.064-0.404,0.188-0.565,0.214-0.929
			c-0.16,0.202-0.403,0.282-0.655,0.444c-0.213,0.161-0.424,0.444-0.599,0.605c-0.199,0.201-0.528,0.363-0.718,0.484
			c-0.049,0.081-0.06,0.162-0.108,0.242c-0.15,0.121-0.432,0.202-0.528,0.364c-0.074,0.121-0.161,0.201-0.287,0.282
			c-0.432,0.202-0.754,0.606-1.23,1.01c-0.164,0.081-0.354,0.201-0.581,0.323c-0.088,0.08-0.249,0.282-0.428,0.322
			c-0.039,0-0.116,0-0.189,0.121c-0.431,0.202-1.083,0.768-1.684,0.929c-0.319,0.081-0.491-0.08-0.689-0.202
			c-0.105-0.08-0.222-0.08-0.366-0.161c-0.077,0-0.197-0.121-0.197-0.121c-0.338-0.08-0.646-0.08-0.863-0.363
			c-0.158-0.121-1.19-0.524-1.17-0.687c-0.064-0.403,0-0.768,0.248-1.05c0.735-1.535,1.79-3.149,2.627-4.724
			c0.171-0.283,0.289-0.606,0.522-0.93c0.234-0.322,0.482-0.605,0.509-0.969c0.354-0.202,0.497-0.565,0.615-0.888
			c0.533-1.011,0.717-1.696,1.303-2.665c-0.156-0.444,0.385-0.444,0.828-0.283c0.25,0.161,1.65,0.403,2.035,0.727
			c0.188,0.202,0.398,0.364,0.456,0.525c0.134,0.161,0.085,0.242,0.1,0.282c-0.007,0.202,0.012,0.364-0.101,0.484
			c-0.068,0.242-0.282,0.404-0.457,0.565c-0.098,0.161-0.114,0.444-0.236,0.646c-0.332,0.485-0.518,0.728-0.845,1.333
			c-1.22,1.696-2.386,3.433-3.331,5.249C138.859,31.474,139.03,31.191,139.346,30.989z"/>
		<path fill="#FFFFFF" d="M170.696,27.679c0.053,0.041,0.087-0.081,0.165-0.081c0.872,0.283,1.521,0.808,2.038,1.615
			c-0.079,0.323-0.385,0.444-0.338,0.687c-0.417,0.242-0.708,0.404-1.231,0.565c-0.094,0.282-0.558,0.282-0.824,0.404
			c-0.141,0.039-0.197-0.122-0.271,0c-0.13-0.041,0.053,0.039,0.015,0.039c-0.323-0.039-0.576,0.122-0.914,0.041
			c-0.35,0.323-0.862,0.404-1.39,0.444c0,0,0.038,0,0.077,0c-0.369,0.161-0.77,0.121-0.993,0.363c-0.116,0-0.071-0.202-0.173-0.161
			c-0.544,0.323-1.119,0.444-1.769,0.687c0,0-0.135-0.161-0.173-0.161c-0.818,0.201-1.612,0.362-2.266,0.484
			c-0.407,0.161-0.727,0.242-0.94,0.403c-0.323-0.041-0.59,0.081-0.793,0.162c-0.077,0-0.127,0.08-0.193,0
			c-1.179,0.604-2.914,0.727-4.185,1.292c-0.479-0.041-0.61,0.242-1.012,0.201c-0.421,0.121-0.586,0.202-0.982,0.283
			c-0.92,0.242-2.174,0.524-3.411,0.524c-0.313-0.121-0.612-0.201-0.83-0.162c-0.028-0.08-0.285-0.039-0.212-0.161
			c-0.207-0.04-0.231,0-0.231,0c-0.236-0.12-0.149-0.201-0.23-0.323c0.05-0.08,0.257-0.04,0.214-0.161c0.116,0,0.154,0,0.271,0
			c0.063-0.04-0.057-0.161-0.019-0.161c0.067,0.08,0.141-0.04,0.127-0.081c0.053,0.041,0.066,0.081,0.053,0.041
			c2.104-1.05,4.44-2.1,6.881-2.746c1.584-0.444,3.278-1.01,5.059-1.333c1.022-0.282,2.305-0.484,3.407-0.646
			c1.132-0.081,2.364-0.202,3.344-0.606c-0.522,0.162-1.16,0-1.567,0.162c-0.376-0.081-0.576,0.121-1.072-0.081
			c-0.734,0-1.394,0.323-2.157,0.242c-0.639,0.161-1.321,0.202-1.708,0.202c0.015,0.04,0.054,0.04,0.093,0.04
			c-0.865-0.04-1.404,0.404-2.36,0.323c-0.151,0.121-0.397,0.081-0.591,0.081c-0.038,0,0.004,0.121-0.035,0.121
			c-0.097,0.161-0.407,0.161-0.702,0.201c-0.231,0-0.551,0.081-0.706,0.081c-0.077,0-0.154,0-0.193,0
			c-0.502,0-0.909,0.161-1.2,0.323c-0.116,0-0.367-0.162-0.439-0.04c-0.078,0-0.063,0.04-0.102,0.04
			c-0.479-0.04-0.94-0.363-1.303-0.404c-0.299-0.08-0.539-0.322-0.828-0.484c-0.1-0.282-0.413-0.403-0.562-0.604
			c-0.867-0.485-0.775-1.212-0.376-1.615c0.627-0.525,1.801-1.252,2.402-1.737c2.686-1.816,5.908-3.311,9.358-4.603
			c1.226-0.363,2.388-0.687,3.742-1.01c0.286,0.04,0.473,0.242,0.733,0.323c0.58,0.767,1.405,1.575,1.379,2.705
			c-0.139,0.485-0.227,0.565-0.936,0.524c-0.865-0.039-1.891,0.122-2.555,0.323c-0.459,0.122-1.021,0.283-1.689,0.364
			c-0.761,0.362-1.719,0.604-2.582,1.009c-1.834,0.283-2.743,1.212-4.023,1.858C162.529,27.437,166.536,26.629,170.696,27.679z
			 M160.813,31.231c-0.024,0.041-0.035,0.122-0.122,0.202c-0.809,0.121-1.82,0.323-2.311,0.688c-1.776,0.443-3.414,1.17-4.666,1.896
			c4.371-1.089,8.847-2.544,12.829-4.078C164.556,30.223,162.851,30.869,160.813,31.231z"/>
		<path fill="#FFFFFF" d="M189.22,22.753c0.216,0.282,0.751,0.484,0.952,0.727c0,0-0.035,0.121,0.008,0.242
			c0.062,0.282,0.267,0.646,0.444,0.929c-0.074,0.121-0.007,0.202,0.128,0.363c0.109,0.201,0.258,0.404,0.319,0.687
			c0.052,0.04,0.207,0.04,0.274,0.121c-0.102,0.04-0.223-0.081-0.31,0c0.019,0.161-0.069,0.242-0.146,0.242
			c-0.238,0.201-0.474,0.081-0.72,0.04c-0.131-0.04-0.271,0-0.45,0.041c-0.141,0.04-0.281,0.081-0.421,0.12
			c-0.833,0.162-1.545,0.445-2.377,0.606c-0.088,0.081-0.189,0.122-0.316,0.202c-0.648,0.242-1.234,0.444-1.908,0.727
			c-0.116,0-0.203,0.081-0.344,0.121c-0.103,0.041-0.242,0.081-0.33,0.161c-0.141,0.041-0.203,0.081-0.344,0.122
			c-0.558,0.282-1.053,0.524-1.609,0.808c-0.166,0.08-0.354,0.201-0.52,0.282c-1.213,0.727-2.32,1.534-3.466,2.342
			c-0.151,0.121-0.302,0.243-0.529,0.363c-0.122,0.202-0.456,0.242-0.564,0.484c0.251,0.162,0.482,0.162,0.623,0.122
			c0.155,0,0.271,0,0.411-0.041c0.179-0.04,0.334-0.04,0.461-0.12c1.837-0.162,3.44-0.769,5.14-1.213
			c0.204-0.081,0.383-0.12,0.587-0.201c0.357-0.081,0.648-0.242,1.07-0.364c0.154,0,0.295-0.039,0.436-0.08
			c0.789-0.282,1.502-0.565,2.252-0.848c0.18-0.041,0.33-0.161,0.548-0.202c0.698-0.323,1.339-0.808,2.235-1.009
			c-0.748,0.403-1.576,0.686-2.305,1.251c-0.126,0.081-0.276,0.202-0.48,0.283c-0.684,0.362-1.367,0.727-2.076,1.13
			c-0.125,0.081-0.252,0.162-0.431,0.202c-0.368,0.161-0.685,0.363-0.989,0.485c-0.204,0.08-0.393,0.201-0.533,0.242
			c-0.725,0.686-2.131,0.646-2.648,1.372c-0.391,0.646-1.388,0.121-1.793,0.728c-0.231,0-0.488,0.039-0.624,0.201
			c-0.193,0-0.397,0.081-0.601,0.161c-0.46,0.122-0.986,0.162-1.592,0.202c-0.517-0.04-1.157-0.322-1.465-0.646
			c0.43,0.889-1.262-0.727-0.309-3.836c0.421-0.889,0.902-1.938,1.521-2.706c0.401,0.041,0.331-0.484,0.708-0.403
			c-0.066-0.081-0.028-0.081-0.07-0.201l0.07,0.201c0.193,0,0.224-0.242,0.277-0.201c0.074,0.322-0.069,0.242-0.157,0.322
			c-0.154,0-0.111,0.121-0.122,0.202c-0.111,0.121-0.305,0.121-0.276,0.202c0.134,0.161,0.183,0.08,0.154,0
			c0.058,0.161-0.002,0.323-0.114,0.443c-0.301,0.242-0.647,0.687-0.751,1.05c0.267-0.121,0.279-0.524,0.638-0.605
			c0.803-1.01,1.551-2.181,2.565-3.028c-0.095-0.161,0.176-0.161,0.172-0.283c-0.232,0-0.253,0.162-0.418,0.242
			c-0.111,0.122-0.343,0.122-0.479,0.283c-0.2,0.201-0.424,0.443-0.729,0.565c0.02-0.161,0.228-0.122,0.248-0.283
			c0.049-0.081,0.137-0.161,0.107-0.242l0.336-0.363c0.063-0.04-0.119-0.121-0.085-0.242c0.175-0.161,0.47-0.202,0.472-0.525
			c0.482-0.604,1.173-1.17,1.881-1.574c0.704-0.525,1.412-0.929,2.289-1.292c0.829-0.282,1.686-0.484,2.69-0.484
			c0.503,0,0.875-0.041,1.319,0.121c0.154,0,0.377,0.081,0.443,0.161c0.131,0.041,0.342,0.202,0.563,0.283
			c0.236,0.121,0.521,0.162,0.888,0.323C189.115,22.35,189.201,22.592,189.22,22.753z M175.686,29.657
			c-0.116,0-0.141,0.04-0.242,0.081C175.65,29.778,175.686,29.657,175.686,29.657z M176.564,28.204
			c-0.14,0.04-0.098,0.161-0.098,0.161S176.579,28.244,176.564,28.204z M179.676,28.365c-0.014-0.041-0.076,0-0.164,0.081
			C179.512,28.446,179.628,28.446,179.676,28.365z M184.213,24.893c-0.969,0.322-1.866,0.848-2.557,1.413
			c1.313-0.444,2.477-1.091,3.794-1.413c0.394-0.201,0.882-0.242,1.274-0.444c-0.328-0.161-0.647-0.08-0.957-0.08L184.213,24.893z"
			/>
	</g>
</g>
</svg>
