<?xml version="1.0" encoding="utf-8"?>
<!-- Generator: Adobe Illustrator 17.0.0, SVG Export Plug-In . SVG Version: 6.00 Build 0)  -->
<!DOCTYPE svg PUBLIC "-//W3C//DTD SVG 1.1//EN" "http://www.w3.org/Graphics/SVG/1.1/DTD/svg11.dtd">
<svg version="1.1" id="Calque_1" xmlns="http://www.w3.org/2000/svg" xmlns:xlink="http://www.w3.org/1999/xlink" x="0px" y="0px"
	 width="525px" height="85px" viewBox="0 0 525 85" enable-background="new 0 0 525 85" xml:space="preserve">
<g>
	<path fill="#9EFF00" d="M4.435,82.726v-30.42h20.038v5.298H10.374v7.135h12.005v5.298H10.374v7.392h14.099v5.298H4.435z"/>
	<path fill="#9EFF00" d="M41.349,82.726h-4.443l-10.04-30.42h6.152l6.109,19.824l6.109-19.824h6.195L41.349,82.726z"/>
	<path fill="#9EFF00" d="M55.105,82.726v-30.42h20.038v5.298H61.044v7.135H73.05v5.298H61.044v7.392h14.099v5.298H55.105z"/>
	<path fill="#9EFF00" d="M97.104,82.726l-5.938-12.134h-4.272v12.134h-5.938v-30.42h11.92c6.195,0,9.869,4.229,9.869,9.313
		c0,4.272-2.606,6.922-5.554,7.99l6.793,13.116H97.104z M92.489,57.604h-5.597v8.032h5.597c2.606,0,4.315-1.666,4.315-4.017
		C96.805,59.27,95.096,57.604,92.489,57.604z"/>
	<path fill="#9EFF00" d="M120.517,70.25v12.476h-5.896V70.25l-9.143-17.944h6.451l5.683,12.262l5.597-12.262h6.451L120.517,70.25z"
		/>
	<path fill="#9EFF00" d="M159.396,82.726l-5.939-12.134h-4.272v12.134h-5.939v-30.42h11.92c6.195,0,9.87,4.229,9.87,9.313
		c0,4.272-2.606,6.922-5.555,7.99l6.793,13.116H159.396z M154.781,57.604h-5.597v8.032h5.597c2.606,0,4.315-1.666,4.315-4.017
		C159.096,59.27,157.387,57.604,154.781,57.604z"/>
	<path fill="#9EFF00" d="M181.911,82.981c-6.238,0-11.194-4.229-11.194-10.681V52.306h5.938v19.781c0,3.504,2.051,5.597,5.255,5.597
		s5.298-2.093,5.298-5.597V52.306h5.896v19.995C193.104,78.752,188.148,82.981,181.911,82.981z"/>
	<path fill="#9EFF00" d="M217.714,82.726l-12.048-18.671v18.671h-5.939v-30.42h5.298l12.049,18.628V52.306h5.938v30.42H217.714z"/>
	<path fill="#9EFF00" d="M248.091,82.726l-12.048-18.671v18.671h-5.938v-30.42h5.298l12.048,18.628V52.306h5.939v30.42H248.091z"/>
	<path fill="#9EFF00" d="M260.481,82.726v-30.42h20.038v5.298h-14.1v7.135h12.006v5.298H266.42v7.392h14.1v5.298H260.481z"/>
	<path fill="#9EFF00" d="M302.479,82.726l-5.938-12.134h-4.273v12.134h-5.938v-30.42h11.921c6.194,0,9.869,4.229,9.869,9.313
		c0,4.272-2.606,6.922-5.555,7.99l6.793,13.116H302.479z M297.865,57.604h-5.598v8.032h5.598c2.605,0,4.314-1.666,4.314-4.017
		C302.18,59.27,300.471,57.604,297.865,57.604z"/>
	<path fill="#9EFF00" d="M324.183,82.726v-30.42h5.938v30.42H324.183z"/>
	<path fill="#9EFF00" d="M345.588,82.981c-4.614,0-8.118-0.982-11.108-4.016l3.845-3.846c1.923,1.923,4.529,2.563,7.349,2.563
		c3.504,0,5.384-1.324,5.384-3.76c0-1.067-0.299-1.965-0.94-2.563c-0.598-0.555-1.281-0.854-2.691-1.067l-3.675-0.513
		c-2.605-0.385-4.528-1.196-5.896-2.521c-1.452-1.452-2.179-3.418-2.179-5.981c0-5.426,4.016-9.229,10.596-9.229
		c4.187,0,7.221,1.025,9.826,3.547l-3.76,3.717c-1.922-1.837-4.229-2.094-6.237-2.094c-3.162,0-4.7,1.752-4.7,3.846
		c0,0.769,0.257,1.58,0.897,2.179c0.599,0.556,1.581,1.025,2.819,1.196l3.59,0.513c2.776,0.385,4.528,1.153,5.811,2.35
		c1.623,1.538,2.35,3.76,2.35,6.451C356.867,79.649,351.953,82.981,345.588,82.981z"/>
	<path fill="#9EFF00" d="M383.1,82.981c-6.238,0-11.194-4.229-11.194-10.681V52.306h5.938v19.781c0,3.504,2.051,5.597,5.256,5.597
		c3.204,0,5.297-2.093,5.297-5.597V52.306h5.896v19.995C394.293,78.752,389.337,82.981,383.1,82.981z"/>
	<path fill="#9EFF00" d="M418.902,82.726l-12.049-18.671v18.671h-5.938v-30.42h5.298l12.049,18.628V52.306h5.938v30.42H418.902z"/>
	<path fill="#9EFF00" d="M431.292,82.726v-30.42h5.938v30.42H431.292z"/>
	<path fill="#9EFF00" d="M463.378,84.007l-2.691-2.691c-1.709,1.111-3.76,1.666-6.152,1.666c-3.461,0-6.109-1.196-8.246-3.332
		c-3.076-3.076-2.99-6.879-2.99-12.134s-0.086-9.058,2.99-12.134c2.137-2.137,4.785-3.333,8.246-3.333s6.067,1.196,8.203,3.333
		c3.076,3.076,3.033,6.879,3.033,12.134c0,4.571,0.043,7.946-1.88,10.767l2.606,2.606L463.378,84.007z M458.337,58.971
		c-0.854-0.982-2.179-1.624-3.803-1.624s-2.991,0.642-3.845,1.624c-1.154,1.281-1.453,2.691-1.453,8.545s0.299,7.263,1.453,8.545
		c0.854,0.982,2.221,1.623,3.845,1.623c0.727,0,1.41-0.171,1.966-0.555l-2.649-2.606l3.161-3.119l2.265,2.265
		c0.47-1.324,0.556-3.076,0.556-6.152C459.832,61.662,459.49,60.252,458.337,58.971z"/>
	<path fill="#9EFF00" d="M482.518,82.981c-6.237,0-11.193-4.229-11.193-10.681V52.306h5.938v19.781c0,3.504,2.051,5.597,5.255,5.597
		c3.205,0,5.299-2.093,5.299-5.597V52.306h5.896v19.995C493.712,78.752,488.756,82.981,482.518,82.981z"/>
	<path fill="#9EFF00" d="M500.334,82.726v-30.42h20.038v5.298h-14.099v7.135h12.005v5.298h-12.005v7.392h14.099v5.298H500.334z"/>
</g>
<g>
	<path fill="#FFFFFF" d="M119.321,34.987c-0.122,0.106-0.047,0.319-0.097,0.479c-0.189,0.372-0.539,0.586-0.765,0.852
		c-0.223,0.425-0.426,0.905-0.773,1.278c-0.013,0.266,0.303,0.106,0.31,0.425c-0.21,0.161-0.216-0.159-0.463-0.106
		c-0.514,0.054-0.831,0.213-1.091,0.533c-0.521,0.639-0.787,1.544-1.197,2.343c-0.245,0.214-0.721,0.373-1,0.639
		c-0.541,0.426-0.639,0.905-0.877,1.438c0.132,0.373,0.354-0.053,0.467,0.266c-0.752,0.586-1.053,1.544-1.931,2.077
		c-0.213,0.905-1.271,1.225-1.845,1.864c-1.065,0-1.786,0.373-2.96,0.213c-0.197-0.106-0.413-0.266-0.698-0.32
		c-0.532-0.905-1.425-1.171-1.933-1.704c-0.344-0.373-0.717-1.278-0.889-1.917c-0.272-1.225,0.107-2.716,0.352-3.834
		c0.803-3.462,1.9-7.297,2.998-10.226c-1.441,0.745-2.171,2.45-3.61,3.355c-0.949,1.384-2.134,2.556-3.137,3.941
		c-0.858,0.586-1.3,1.598-2.015,2.291c-0.226,0.266-0.542,0.425-0.768,0.691c-0.401,0.373-0.46,0.959-0.755,1.332
		c-0.229,0.107-0.511,0.212-0.736,0.479c-0.191,0.213-0.292,0.533-0.483,0.745c-0.278,0.266-0.861,0.427-0.776,1.119
		c-1.783,1.438-3.062,3.248-4.754,4.792c-0.677,0.799-1.425,1.544-2.121,2.291c-1.012,0.905-2.105,2.184-3.424,2.823
		c-1.319,0.638-2.911,0.053-3.362-2.131c-0.25-1.012,0.208-2.131,0.543-3.142c2.009-6.231,4.758-11.877,8.008-17.31
		c1.978-3.302,3.748-6.284,5.753-9.053c1.799-2.45,3.739-4.953,5.481-7.563c0.345-0.532,0.815-1.917,2.23-1.225
		c0.375,0.159,1.318,1.171,1.88,1.705c1.048,1.011,3.031,2.556,2.83,4.1c-0.125,0.853-1.538,1.225-2.187,1.651
		c-0.298,0.213-0.346,0.532-0.518,0.798c-0.367,0.32-0.768,0.693-1.062,1.066c-2.594,2.609-4.75,5.858-6.73,9
		c-0.351-0.693-0.664-1.278-1.168-1.651c-1.037,0.532-1.244,1.758-2.19,2.396c-0.201,0.639-0.849,1.065-0.921,1.917
		c-0.313,0.319-0.699,0.585-0.561,1.278c-1.231,1.491-2.103,3.249-3.155,4.793c-0.004,0.745-0.518,1.704-0.916,2.236
		c-0.176,0.106-0.316,0.16-0.42,0.319c-0.207,0.319-0.106,0.906-0.727,0.958c-0.915,2.237-2.82,3.782-3.087,6.498
		c1.485-1.225,2.735-2.663,3.932-4.1c3.682-4.208,7.432-8.521,11.311-12.623c2.573-2.823,4.914-5.698,7.559-8.468
		c1.341-1.332,2.701-2.61,4.023-3.994c1.341-1.332,2.356-2.983,4.023-3.995c1.463,0.373,2.503,0.906,3.681,2.131
		c0.852,0.905,0.694,1.97,0.14,2.663c-0.032,0.212,0.292,0.373,0.15,0.426c-0.442,1.011-1.46,1.597-2.046,2.503
		c-0.778,1.118-1.248,2.502-2.278,3.355c-0.872,1.757-1.706,3.621-2.361,5.539c-0.159,0-0.27-0.16-0.463-0.107
		c-0.156,0.16-0.492,0.266-0.683,0.48c-0.069,0.106,0.007,0.319-0.131,0.532c-0.029,0.373-0.558,0.532-0.333,1.171
		c-0.407,0.053-0.436,0.426-0.699,0.586c0.038,1.012-0.558,1.438-0.521,2.45c0.921-1.011,1.824-2.077,2.673-3.143
		c2.514-3.141,5.061-6.337,7.897-9.319c-0.565,1.118-1.562,1.917-2.341,2.875c-0.781,0.958-1.273,2.13-2.053,3.089
		c-0.551,0.853-1.373,1.544-2.049,2.344c-0.498,0.852-1.229,1.65-1.727,2.503c0.354-0.054,0.348-0.373,0.755-0.426
		c1.664-2.077,3.597-3.995,5.386-6.019c1.354-0.692,2.037-2.077,2.92-3.195c1.009-1.066,2.143-2.078,2.974-3.196
		c0.157-0.16,0.15-0.479,0.308-0.639c0.119-0.266,0.613-0.373,0.463-0.799c0.338,0.054,0.245-0.213,0.458-0.213
		c0.106,0-0.113-0.32-0.025-0.372c0.16,0,0.163,0.159,0.269,0.159c0.013-0.266,0.044-0.479,0.076-0.692
		c3.25-3.622,6.517-7.189,8.815-11.397c-0.285-0.054-0.364,0.479-0.752,0.585c-1.746,2.45-3.989,4.847-6.073,7.244
		c-0.294,0.373-0.696,0.745-0.937,1.118c-0.38,0.585-0.583,1.065-1.197,1.438c-0.508,0.372-0.761,1.011-1.231,1.491
		c-0.558,0.533-1.169,1.065-1.708,1.65c-0.592,0.587-1.059,1.225-1.635,1.705c-0.2-0.266,0.153-0.32,0.256-0.48
		c2.103-2.343,4.167-4.792,6.339-7.243c1.613-1.917,3.243-3.94,4.854-6.019c0.796-1.064,1.579-1.864,1.407-3.408
		c0.141-0.054,0.354-0.054,0.549-0.106c-0.06-0.32-0.1-0.586-0.16-0.905c-0.27-0.16-0.711-0.054-0.977-0.054
		c-0.132-0.373-0.768-0.213-1.04-0.533c-0.73-0.106-1.366,0.054-1.955-0.106c-0.025-0.373,0.689-0.16,0.862-0.426
		c-0.802-0.159-1.591,0.32-2.39,0.32c-0.282,0.106-0.254-0.266-0.486-0.32c-0.564,0.213-1.234,0.426-2.089,0.266
		c1.146-0.372,2.735-0.852,4.223-1.011c0.3-0.053,0.908,0.16,0.99-0.213c-1.491,0-3.571-0.16-4.57,0.479
		c-0.677-0.106-0.939,0.054-1.094,0.373c-3.349,0.319-5.889,2.023-9.251,2.609c1.563-0.852,3.524-1.332,5.304-2.023
		c0.828-0.373,1.746-0.639,2.698-0.959c1.112-0.319,2.137-0.585,3.302-0.905c0.83-0.213,1.372-0.639,2.405-0.426
		c0.267,0,0.245-0.213,0.439-0.266c0.908,0.159,1.203-0.213,2.126-0.16c0.349,0.533,0.862,0.479,1.488,0.746
		c0.357,0.106,0.701,0.479,0.88,0.532c0.501,0.213,0.943,0.107,1.356,0.373c0.466,0.266,0.686,0.585,1.262,1.012
		c0.632,1.491,0.858,2.13,0.215,2.876c-0.275,0.425-1.097,1.118-0.57,1.704c-0.423,0.16-0.414,0.639-0.984,0.532
		c-0.263,0.161-0.397,0.534-0.297,1.119c-0.859,0.586-1.05,1.704-1.746,2.45c-0.07,0.106,0.131,0.373-0.082,0.373
		c-0.956,1.97-2.776,3.302-3.588,5.378c-0.159,0-0.319,0-0.426,0c-0.191,0.214-0.219,0.586-0.448,0.693
		c-0.016,0.106-0.248,0.053-0.408,0.053c-0.376,0.745-1.059,1.225-1.579,1.864c-0.226,0.266-0.326,0.585-0.552,0.852
		c-0.366,0.32-1.021,0.426-0.937,1.118c0.291,0.373,0.263-0.159,0.567-0.053c-0.326,0.586-0.85,1.065-1.229,1.65
		c-0.344,0.534-0.795,1.066-1.266,1.544c-0.542,0.427-0.849,1.066-1.266,1.545c-0.451,0.533-1.027,1.012-1.122,1.651
		c0.83-0.212,0.902-1.065,1.532-1.544c-0.057,0.746-0.646,1.491-1.404,1.757c-0.128,0.692-0.401,1.278-1.178,1.491
		c0.062-0.426,0.539-0.586,0.53-1.065c-0.498-0.053-0.458,0.213-0.451,0.533c-0.408,0.053-0.383,0.426-0.483,0.746
		c0.144,0.106,0.3-0.053,0.335-0.106C120.69,34.188,119.682,34.348,119.321,34.987z M114.768,41.857
		c0.275-0.426,0.264-1.065,0.899-1.225c0.176-0.107,0.098-0.48,0.201-0.639c0.338,0.053,0.37-0.16,0.564-0.213
		C116.04,40.632,115.322,41.165,114.768,41.857z M116.676,39.566c-0.024-0.372,0.411-0.798,0.727-0.958
		C117.23,38.875,117.062,39.3,116.676,39.566z M122.631,26.252c-0.648,0.427-0.921,1.012-1.588,1.385
		c0.106,0.905-1.046,0.959-1.104,1.704c1.159-0.639,2.281-2.29,3.099-3.142c0.278-0.267,0.648-0.426,0.304-0.799
		c-0.085,0.212-0.261,0.319-0.561,0.373C122.678,25.933,122.7,26.146,122.631,26.252z M127.798,20.82
		c-0.138,0.213-0.564,0.213-0.452,0.532C127.594,21.299,127.732,21.086,127.798,20.82z M128.008,20.66
		c0.733-0.639,1.498-1.491,1.783-2.343c-0.88,0.373-0.752,1.491-1.724,1.757C128.036,20.288,127.896,20.34,128.008,20.66z"/>
	<path fill="#FFFFFF" d="M141.729,31.471c0.291,0.373,1.024,0.639,1.296,0.959c0,0-0.05,0.16,0.006,0.319
		c0.078,0.373,0.354,0.853,0.592,1.225c-0.104,0.16-0.013,0.267,0.169,0.479c0.147,0.267,0.348,0.533,0.426,0.905
		c0.072,0.054,0.285,0.054,0.376,0.16c-0.141,0.053-0.304-0.106-0.426,0c0.022,0.213-0.1,0.319-0.207,0.319
		c-0.332,0.267-0.655,0.107-0.993,0.054c-0.179-0.054-0.373,0-0.62,0.053c-0.194,0.053-0.389,0.107-0.583,0.16
		c-1.149,0.213-2.137,0.586-3.286,0.799c-0.122,0.106-0.263,0.159-0.438,0.266c-0.899,0.319-1.711,0.585-2.644,0.958
		c-0.16,0-0.282,0.107-0.477,0.159c-0.141,0.054-0.335,0.107-0.457,0.214c-0.195,0.053-0.283,0.106-0.477,0.159
		c-0.774,0.373-1.46,0.693-2.234,1.066c-0.229,0.106-0.492,0.266-0.72,0.373c-1.686,0.959-3.228,2.023-4.822,3.089
		c-0.21,0.159-0.42,0.319-0.736,0.479c-0.172,0.266-0.633,0.32-0.786,0.639c0.341,0.213,0.66,0.213,0.855,0.161
		c0.213,0,0.372,0,0.566-0.054c0.248-0.053,0.461-0.053,0.636-0.16c2.534-0.213,4.756-1.011,7.105-1.598
		c0.283-0.105,0.53-0.159,0.812-0.266c0.496-0.106,0.899-0.319,1.482-0.479c0.213,0,0.407-0.054,0.602-0.107
		c1.093-0.373,2.081-0.745,3.12-1.118c0.248-0.053,0.458-0.214,0.758-0.266c0.968-0.426,1.861-1.065,3.098-1.332
		c-1.037,0.532-2.184,0.905-3.198,1.651c-0.176,0.106-0.386,0.267-0.668,0.372c-0.948,0.48-1.898,0.959-2.882,1.492
		c-0.175,0.106-0.351,0.213-0.599,0.266c-0.511,0.213-0.949,0.479-1.372,0.639c-0.282,0.106-0.545,0.266-0.739,0.32
		c-1.012,0.905-2.948,0.852-3.675,1.811c-0.552,0.852-1.914,0.159-2.484,0.958c-0.32,0-0.674,0.054-0.864,0.266
		c-0.267,0-0.549,0.106-0.831,0.213c-0.636,0.16-1.363,0.213-2.196,0.266c-0.711-0.053-1.588-0.425-2.004-0.852
		c0.573,1.172-1.723-0.958-0.347-5.06c0.599-1.171,1.282-2.556,2.15-3.568c0.551,0.053,0.466-0.639,0.983-0.532
		c-0.091-0.107-0.038-0.107-0.094-0.267l0.094,0.267c0.266,0,0.313-0.32,0.386-0.267c0.097,0.426-0.101,0.319-0.223,0.426
		c-0.213,0-0.157,0.16-0.173,0.266c-0.156,0.16-0.423,0.16-0.385,0.266c0.182,0.214,0.25,0.107,0.213,0
		c0.075,0.214-0.009,0.427-0.166,0.586c-0.42,0.319-0.905,0.906-1.056,1.385c0.37-0.16,0.395-0.693,0.891-0.799
		c1.128-1.332,2.18-2.876,3.597-3.995c-0.129-0.212,0.244-0.212,0.241-0.372c-0.319,0-0.351,0.213-0.58,0.32
		c-0.157,0.159-0.477,0.159-0.667,0.372c-0.278,0.267-0.592,0.586-1.015,0.746c0.031-0.213,0.316-0.16,0.347-0.373
		c0.069-0.106,0.192-0.213,0.154-0.32l0.47-0.479c0.088-0.053-0.163-0.16-0.112-0.319c0.245-0.213,0.651-0.266,0.661-0.692
		c0.677-0.799,1.639-1.545,2.622-2.077c0.981-0.692,1.965-1.225,3.181-1.705c1.146-0.373,2.331-0.639,3.715-0.639
		c0.692,0,1.207-0.052,1.813,0.16c0.214,0,0.517,0.106,0.608,0.213c0.178,0.053,0.467,0.266,0.771,0.373
		c0.322,0.159,0.714,0.213,1.215,0.426C141.595,30.939,141.708,31.259,141.729,31.471z M122.947,40.579
		c-0.16,0-0.194,0.054-0.335,0.107C122.897,40.739,122.947,40.579,122.947,40.579z M124.188,38.661
		c-0.194,0.054-0.138,0.214-0.138,0.214S124.208,38.715,124.188,38.661z M128.471,38.875c-0.019-0.054-0.106,0-0.229,0.106
		C128.242,38.981,128.401,38.981,128.471,38.875z M134.79,34.294c-1.341,0.427-2.588,1.119-3.55,1.864
		c1.817-0.586,3.434-1.438,5.254-1.864c0.545-0.266,1.219-0.319,1.764-0.585c-0.447-0.213-0.89-0.106-1.315-0.106L134.79,34.294z"/>
	<path fill="#FFFFFF" d="M197.524,3.937c-1.153,0.959-1.184,1.172-1.67,1.758c-0.194,0.053-0.57,0.798-0.658,0.852
		c-0.175,0.106-0.711,0.852-0.921,1.012c-0.248,0.054-0.467,0.639-0.643,0.745c-0.558,0.533-0.783,0.8-1.338,1.491
		c-0.119,0.267-0.401,0.373-0.521,0.639c-0.846,1.225-2.015,3.196-2.955,4.154c-0.363,0.479-2.115,3.516-2.532,3.995
		c-0.504,0.532-1.272,2.13-1.723,2.663l-0.583,1.065c-0.241,0.373-0.272,0.585-0.727,0.958c0.003,0.159-0.047,0.32-0.204,0.479
		c-0.034,0.053-0.034,0.053-0.034,0.053c-0.448,0.693-0.858,1.491-1.569,2.344c-0.094-0.267-0.644,0.745-0.625,0.798l-0.88,1.278
		c0.109,0.159,0.106,0,0.41,0.107c-0.241,0.372-0.714,0.691-1.155,0.798c0.019,0.053-0.035,0.053-0.016,0.107
		c0.053,0,0.09,0.106,0.109,0.159c-0.106,0-0.106,0-0.16,0c0.054,0,0.035-0.053-0.003-0.159c-0.088,0.053-0.176,0.106-0.21,0.159
		c0.094,0.266,0.072,0.053,0.213,0c-0.075,0.692-0.787,0.639-0.824,1.438c-0.373,0-0.295,0.372-0.774,0.372
		c-0.11,0.746-0.498,1.758-1.229,2.557c-0.053,0-0.034,0.053-0.034,0.053l0.034-0.053c2.754-0.798,8.594-2.663,11.551-3.036
		c0.175-0.106,0.003,0.16,0.041,0.266c1.814-0.746,4.53-0.746,6.594,0.427c0.235,0.212,0.254,0.266,0.348,0.532
		c0.893,0.266,1.039,1.438,1.528,1.917c-0.339-0.054-0.445-0.054-0.533,0c0.253,0.266,0.452,0.373,0.507,0.532
		c-0.032,0.213,0.028,0.532,0.05,0.746c-0.332,0.266-0.755,0.425-1.068,0.745c-0.065,0.266-0.06,0.585-0.304,0.799
		c-0.354,0.052-0.68-0.266-1.137-0.054c-0.496,0.106-0.714,0.693-1.259,0.959c-0.298,0.213-0.887,0.053-1.257,0.213
		c-0.651,0.266-1.156,0.798-2.149,0.852c-0.26,0.32-0.893,0.639-1.296,0.853c-0.214,0-0.333,0.266-0.483-0.16
		c-0.068,0.106,0.176,0.798-0.573,0.639c-0.094-0.266,0.423-0.16,0.311-0.479c-0.564,0.213-1.219,0.319-1.78,0.691
		c-1.817,0.586-2.907,1.119-4.724,1.705c-0.705,0.266,0.814-0.107-2.259,0.692c-1.723,0.852-2.954,1.438-4.58,1.811
		c-0.194,0.054-0.028,0.373-0.169,0.426c-1.526,0.053-2.354,1.332-3.262,2.078c-0.122,0.106-0.354,0.052-0.458,0.212
		c-0.686,0.32-0.648,1.332-1.613,1.012c-0.163-0.16,0.185,0.373,0.132,0.373c-0.953-0.586-0.608-0.213-1.137-0.958
		c0.009-0.427-0.16-0.905-0.338-0.959h-0.053c-0.106,0-0.141,0.054-0.176,0.106c-0.181-0.213-0.334-0.798-0.68-1.171
		c0.116-0.426,0.665-0.532,0.367-1.225c0.627-1.544,1.579-2.769,2.423-4.154c-0.113-0.319-0.169-0.479-0.138-0.692
		c0.341,0.213,0.363-0.479,0.482-0.746c0.291-0.532,0.852-0.905,1.141-1.598c1.159-1.544,1.997-3.248,2.942-4.792
		c0.445-0.853,1.937-3.569,2.84-4.633c-0.019-0.054-0.109-0.161-0.041-0.266c-0.019-0.054-0.038-0.107-0.091-0.107
		c0.104-0.16,0.245-0.213,0.279-0.266l3.541-5.965c2.307-3.728,3.776-6.657,4.766-7.776c0.104-0.159,0.445-0.852,0.74-1.225
		c-0.019-0.054,0.032-0.213,0.085-0.213l0.793-1.225c-0.104,0.159-0.542,0.425,1.852-2.45c0.053,0,0.106,0,0.141-0.053l0.708-1.012
		c0.955-1.065,0.971-1.171,0.955-1.065c-0.047,1.226,1.298-0.852,1.93-1.171c0.035-0.054,0.088-0.054,0.088-0.054s0.053,0,0.106,0
		l0.301-0.052c0,0,0,0,0.019,0.052c0.423-0.159,2.428-1.118,2.588-1.118C195.479,3.725,196.513,3.032,197.524,3.937z
		 M170.078,38.608c-0.122,0.107-0.297,0.213-0.241,0.373c0,0,0,0,0.16,0C170.808,37.81,171.4,37.224,170.078,38.608z
		 M176.851,39.088c-0.16,0-0.198-0.107-0.411-0.107c-0.391,0.853-0.103,0.16-0.692,0.905c-0.498-0.053-1.585,1.544-1.949,2.024
		c-0.292,0.532-0.341,0.692-0.683,1.384c5.311-2.609,9.774-5.805,14.615-8.84c-0.019-0.053-0.485-0.319-0.657-0.053l-0.492,0.266
		l-0.777,0.214c-0.958,0-0.815,0.106-1.485,0.318c-1.081,1.012-2.375,1.119-3.7,1.438c-0.069,0.106,0.044,0.426-0.169,0.426
		C179.178,37.383,177.824,38.076,176.851,39.088z M179.29,29.395c0.034-0.053-0.003-0.159-0.057-0.159c0.16,0,0.319,0,0.25,0.106
		C179.399,29.555,179.362,29.448,179.29,29.395z M179.29,29.395 M183.666,16.133c0,0-0.106,0-0.122,0.107
		c-0.035,0.053-0.053,0-0.138,0.213c-0.031,0.213-0.085,0.213-0.172,0.266c-0.085,0.213,0.072,0.053,0.266,0
		c0.122-0.107,0.169-0.426,0.169-0.426L183.666,16.133z M190.785,7.026c0.035-0.052-0.128-0.212-0.075-0.212
		c0.054,0,0.521-0.639,0.308-0.639c-0.106,0-0.611,0.532-0.736,0.479c-0.231-0.053-0.458,0.213-0.438,0.266
		c-0.21,0.16-0.153,0.32-0.207,0.32c-0.159,0-0.013,0.266-0.241,0.373c-0.088,0.052-0.122,0.106-0.21,0.159
		c-0.088,0.054-0.157,0.159-0.191,0.213c-0.351,0.213-0.576,0.48-0.714,0.692c0.019,0.054-0.191,0.213-0.188,0.373
		c-0.053,0,0.053,0,0.091,0.107c0.019,0.052-0.016,0.106-0.016,0.106c0.038,0.107-0.147,0.639-0.226,0.266
		c0.047-0.32-0.226,0.266-0.226,0.266c-0.034,0.053-0.332,0.267-0.385,0.267c0,0-0.084,0.213-0.119,0.266
		c-0.069,0.106-0.245,0.213-0.245,0.213s-0.247,0.053-0.172,0.266c0,0,0.078,0.373,0.024,0.373
		c-0.125-0.054-0.363,0.479-0.363,0.479l0.047-0.32c0,0-0.26,0.32-0.131,0.533c0.075,0.213-0.157,0.159-0.226,0.266
		c-0.104,0.16-0.16,0-0.21,0.16c-0.225,0.267-0.413,0.639-0.52,0.639s-0.345,0.533-0.345,0.533s0.091,0.106-0.031,0.212
		c0.019,0.054-0.261,0.32-0.204,0.479c0.109,0.16-0.414,0.639-0.643,0.746c-0.031,0.213,0.075,0.213-0.009,0.426
		c-0.188,0.372-0.379,0.586-0.449,0.692c0.142-0.053,0.16,0,0.336-0.106c0.363-0.48,0.949-1.385,1.677-2.344
		c0.05-0.16-0.054,0,0.031-0.213c0.156-0.16,0.169-0.426,0.169-0.426l0.084-0.213l0.245-0.213h0.054l0.156-0.16
		c0,0,0.025,0.373-0.169,0.426c-0.194,0.054-0.139,0.213-0.12,0.266c0.796-1.065,1.558-2.077,2.009-2.61
		c0.035-0.053,0.175-0.106,0.21-0.159c0.226-0.266,0.188-0.373,0.207-0.32c-0.047,0.32,0.275-0.426,0.344-0.532
		c0.176-0.107,0.298-0.214,0.386-0.266c-0.094-0.267,0.31-0.48,0.586-0.906l-0.351,0.214l-0.229,0.105l0.085-0.212l0.122-0.107
		c0,0,0.285,0.053,0.229-0.106c-0.022-0.214,0.209-0.16,0.209-0.16l0.076,0.213L190.785,7.026z"/>
	<path fill="#FFFFFF" d="M216.609,31.471c0.292,0.373,1.024,0.639,1.297,0.959c0,0-0.05,0.16,0.006,0.319
		c0.079,0.373,0.354,0.853,0.592,1.225c-0.103,0.16-0.012,0.267,0.169,0.479c0.147,0.267,0.347,0.533,0.426,0.905
		c0.072,0.054,0.286,0.054,0.376,0.16c-0.141,0.053-0.304-0.106-0.426,0c0.022,0.213-0.101,0.319-0.207,0.319
		c-0.332,0.267-0.654,0.107-0.993,0.054c-0.178-0.054-0.373,0-0.62,0.053c-0.194,0.053-0.389,0.107-0.583,0.16
		c-1.15,0.213-2.137,0.586-3.286,0.799c-0.122,0.106-0.264,0.159-0.439,0.266c-0.898,0.319-1.71,0.585-2.644,0.958
		c-0.16,0-0.282,0.107-0.477,0.159c-0.141,0.054-0.335,0.107-0.457,0.214c-0.194,0.053-0.282,0.106-0.477,0.159
		c-0.773,0.373-1.46,0.693-2.233,1.066c-0.229,0.106-0.492,0.266-0.721,0.373c-1.685,0.959-3.228,2.023-4.821,3.089
		c-0.21,0.159-0.42,0.319-0.737,0.479c-0.172,0.266-0.633,0.32-0.786,0.639c0.341,0.213,0.661,0.213,0.855,0.161
		c0.213,0,0.373,0,0.567-0.054c0.248-0.053,0.46-0.053,0.636-0.16c2.535-0.213,4.756-1.011,7.105-1.598
		c0.282-0.105,0.53-0.159,0.812-0.266c0.495-0.106,0.899-0.319,1.482-0.479c0.213,0,0.408-0.054,0.602-0.107
		c1.093-0.373,2.081-0.745,3.121-1.118c0.247-0.053,0.457-0.214,0.758-0.266c0.968-0.426,1.861-1.065,3.099-1.332
		c-1.037,0.532-2.184,0.905-3.199,1.651c-0.175,0.106-0.386,0.267-0.667,0.372c-0.949,0.48-1.899,0.959-2.882,1.492
		c-0.176,0.106-0.352,0.213-0.599,0.266c-0.511,0.213-0.949,0.479-1.373,0.639c-0.282,0.106-0.545,0.266-0.739,0.32
		c-1.012,0.905-2.948,0.852-3.675,1.811c-0.551,0.852-1.914,0.159-2.484,0.958c-0.32,0-0.673,0.054-0.865,0.266
		c-0.267,0-0.548,0.106-0.83,0.213c-0.636,0.16-1.363,0.213-2.196,0.266c-0.711-0.053-1.588-0.425-2.004-0.852
		c0.573,1.172-1.723-0.958-0.346-5.06c0.599-1.171,1.281-2.556,2.149-3.568c0.552,0.053,0.467-0.639,0.984-0.532
		c-0.091-0.107-0.038-0.107-0.094-0.267l0.094,0.267c0.266,0,0.313-0.32,0.385-0.267c0.097,0.426-0.101,0.319-0.223,0.426
		c-0.213,0-0.156,0.16-0.172,0.266c-0.156,0.16-0.423,0.16-0.386,0.266c0.182,0.214,0.251,0.107,0.213,0
		c0.075,0.214-0.01,0.427-0.167,0.586c-0.42,0.319-0.905,0.906-1.056,1.385c0.37-0.16,0.395-0.693,0.89-0.799
		c1.128-1.332,2.181-2.876,3.597-3.995c-0.128-0.212,0.245-0.212,0.242-0.372c-0.319,0-0.352,0.213-0.58,0.32
		c-0.157,0.159-0.476,0.159-0.667,0.372c-0.279,0.267-0.592,0.586-1.015,0.746c0.032-0.213,0.316-0.16,0.348-0.373
		c0.069-0.106,0.191-0.213,0.154-0.32l0.47-0.479c0.087-0.053-0.163-0.16-0.113-0.319c0.245-0.213,0.652-0.266,0.661-0.692
		c0.678-0.799,1.639-1.545,2.623-2.077c0.98-0.692,1.964-1.225,3.18-1.705c1.146-0.373,2.331-0.639,3.715-0.639
		c0.692,0,1.207-0.052,1.814,0.16c0.213,0,0.517,0.106,0.607,0.213c0.179,0.053,0.467,0.266,0.771,0.373
		c0.322,0.159,0.714,0.213,1.216,0.426C216.475,30.939,216.588,31.259,216.609,31.471z M197.828,40.579
		c-0.16,0-0.194,0.054-0.334,0.107C197.778,40.739,197.828,40.579,197.828,40.579z M199.068,38.661
		c-0.194,0.054-0.138,0.214-0.138,0.214S199.087,38.715,199.068,38.661z M203.351,38.875c-0.019-0.054-0.106,0-0.229,0.106
		C203.122,38.981,203.282,38.981,203.351,38.875z M209.67,34.294c-1.341,0.427-2.587,1.119-3.549,1.864
		c1.816-0.586,3.433-1.438,5.253-1.864c0.545-0.266,1.218-0.319,1.764-0.585c-0.448-0.213-0.889-0.106-1.315-0.106L209.67,34.294z"
		/>
	<path fill="#FFFFFF" d="M244.807,10.702c0.131,0.372-0.063,0.425,0.011,0.638c0.02,0.053-0.122,0.107-0.225,0.267
		c0.122,0.798-0.526,1.225-1.166,2.13c-0.555,0.692-0.652,1.171-1.188,1.917c-0.308,0.638-1.122,0.745-1.173,1.811
		c-0.457,0.212-0.522,0.479-0.598,1.171c-0.865,0.266-1.043,1.118-1.532,1.544c-0.032,0.213,0.234,0.213,0.185,0.373
		c-0.796,0.159-0.708,1.011-1.238,1.171c-0.266,0-0.191,0.213-0.298,0.213c-0.053,0-0.103,0.16-0.319,0
		c-0.623,1.705-2.042,2.663-2.419,4.313c-0.16,0-0.084,0.214-0.266,0c-0.264,1.066-0.73,1.705-1.266,2.45
		c-0.37-0.745,0.266-0.905,0.329-1.331c-0.232-0.053-0.495,0.106-0.157,0.159c-0.529,0.161-0.466,0.639-0.492,1.172
		c-0.122,0.106-0.281,0.106-0.654,0.106c-0.032,0.213,0.392,0.054,0.395,0.213c-0.244,0.214-0.529,0.16-0.849,0.16
		c-0.301,0.959-2.338,4.846-2.896,5.379c-0.082,0.372-0.178,0.852-0.479,0.905l0.059,0.32c-0.611,0.532-1.169,1.064-1.388,1.65
		c-0.084,0.213-0.072-0.054-0.179-0.054c-0.204,0.48-0.661,0.693-0.398,1.438c0.216,0.16,0.209-0.16,0.244-0.213
		c0.558-0.532,1.169-1.064,1.244-1.757l0.157-0.159c0.235-0.693,0.527-1.225,0.983-1.438c0.076,0.213-0.185,0.533-0.325,0.585
		c-0.238,0.533-0.655,1.012-0.665,1.438c-0.21,0.16-0.188,0.373-0.379,0.586c0.019,0.053-0.194,0.053-0.085,0.213
		c-0.397,0.532-0.473,1.225-0.655,1.917c-0.479,0-0.42,0.319-0.501,0.692c0.27,0.159,0.267,0,0.426,0
		c-0.119,0.266-0.163,0.745-0.326,1.491c-0.2,0.639-1.263,0.798-0.57,1.704l2.338-2.13c0.555-0.691,1.033-1.598,2.199-1.917
		c0.169,0.479-0.072,0.852-0.282,1.011c-0.53,1.066-1.244,1.758-1.849,2.61c-0.762,1.012-1.805,2.13-2.354,3.142
		c0.019,0.054-0.047,0.32-0.276,0.426c-0.291,0.533-0.761,1.012-1.127,1.332c-0.151,0.479-0.499,0.853-1.209,0.798
		c-0.304-0.105-0.486-0.319-1.018-0.319c-1.454-0.799-2.101-2.183-3.254-3.036c-0.175-0.798,0.186-1.438,0.549-1.917
		c0.113-0.586,0.404-1.118,0.677-1.704c1.438-2.716,2.864-5.166,4.447-7.776c2.438-4.26,6.869-11.024,9.504-15.178
		c1.877-2.982,4.208-6.338,6.208-9.427c0.743-1.064,0.847-1.225,1.846-1.864c0.213,0,0.038,0.107,0.376,0.161
		c0.054,0-1.053,0.639-0.684,0.479c0.32,0,1.535-0.479,1.589-0.479c0.198,0.106,0.36,0.266,0.488,0.479c0,0,0.451,1.278,0.739,1.492
		C244.804,10.542,245.12,10.382,244.807,10.702z M232.917,29.235c-0.053,0-0.298,0.212-0.351,0.212
		c-0.069,1.012-2.914,4.421-2.892,5.539c-0.229,0.106-0.279,0.266-0.458,0.212c0.085-0.212,0.238-0.532,0.248-0.958
		c0.028-0.373,2.403-3.303,2.234-3.782c0.526-0.319,0.765-0.852,1.2-1.278C232.898,29.182,232.898,29.182,232.917,29.235z
		 M237.543,20.607c0.163,0.16,0.106,0,0.16,0c0.439-1.172,1.31-2.024,1.824-2.983l0.241-0.373c0.16,0,0.245-0.212,0.101-0.319
		c0.526-0.32,0.326-0.586,0.745-0.905c0.076-0.692,0.283-1.011,0.791-1.384c0.103-0.16,0.423-0.16,0.574-0.639
		c-0.217-0.16-0.057-0.16-0.057-0.16c0.275-0.426,0.996-0.799,1.178-1.491c0.019,0.053,0,0,0.178,0.053
		c-0.003-0.159,0.082-0.373,0.15-0.479c0.082-0.373,0.279-0.267,0.113-0.587c-0.05,0.16-0.106,0-0.267,0c0,0-0.207,0.32-0.301,0.053
		c-0.075-0.212,0.715-0.691,0.64-0.905c-0.21,0.161-0.787,0.639-0.667,0.373c0.172-0.266-0.414,0.639-0.414,0.639
		c-0.091,0.799-0.997,1.704-0.95,1.384c-0.103,0.16-0.207,0.32-0.188,0.373c0.132,0.373-0.272,0.586-0.482,0.746
		c-0.057-0.16-0.154,0.319-0.473,0.319c0.003,0.16-0.05,0.16-0.103,0.16c-0.709,1.012-1.43,2.29-2.106,3.089
		c0.188,0.533-0.27,0.746-0.689,1.065l0.15,0.426c-0.402,0.372-0.571,0.799-1.043,1.118c-0.16,0-0.567,0.053-0.508,0.373
		c0.267,0,0.154-0.32,0.479,0c-0.408,0.053-0.292,0.532-0.577,0.479c0.125,0.053,0.076,0.213-0.19,0.213c0,0,0,0,0.106,0
		c-0.426,0-0.474,0.319-0.608,0.692c-0.016,0.107,0.038,0.107,0.057,0.16c-0.931,1.438-1.579,2.77-2.689,4.153
		c-0.019-0.052-0.056-0.159,0.104-0.159c-0.213,0-0.335,0.107-0.313,0.32c-0.104,0.159,0.16,0,0.216,0.159
		c-0.104,0.16-0.404,0.214-0.539,0.586l0.075,0.213c-0.426,0-0.147,0.639-0.523,0.479c-0.263,0.16-0.169,0.426-0.169,0.426
		c-0.639,0-0.142,0.959-0.759,1.171c-0.068,0.107-0.385,0.266-0.31,0.479c0.692,0,0.363-0.479,0.843-0.479
		c0.141-0.053,0.038,0.107,0,0l1.617-1.757l-0.076-0.214c0.442-0.106,0.057-0.745,0.658-0.852c0.288-0.692,0.814-1.012,0.922-1.917
		c0.216,0.161,0.084-0.212,0.244-0.212c0.132,0.373,1.094-1.278,1.094-1.278C236.136,22.205,236.976,21.565,237.543,20.607z
		 M234.749,20.234c-0.339-0.053-0.138,0.213-0.339-0.053c0.141,0.852-0.849,1.065-0.946,1.544c0.131,0.373-0.505,0.532-0.142,0.959
		l1.091-1.438c0.156-0.16-0.057-0.16,0.082-0.373c0.267,0,0.52-0.639,0.604-0.853c0.27-0.745,0.477-1.065,1.087-1.597l-0.056-0.16
		c-0.245,0.213-0.63,0.48-0.771,0.532C235.269,19.595,234.63,19.595,234.749,20.234z"/>
	<path fill="#FFFFFF" d="M238.175,43.082c-0.335,0.107-0.272,0.585-0.607,0.692c-0.035,0.054-0.016,0.106,0.021,0.213
		c-0.106,0-0.354,0.053-0.332,0.266c-0.053,0-0.034,0.053-0.087,0.053l0.038,0.107c-0.21,0.159-0.22,0.586-0.502,0.692
		c0.185,0.373-0.275,0.426-0.179,0.853c-0.141,0.054-0.316,0.159-0.548,0.106c0.166,0.32-0.15,0.48,0,0.905
		c0.67-0.213,0.928-0.691,1.526-0.958c1.347-1.012,2.494-2.291,3.679-3.462c1.566-1.598,3.08-3.196,4.54-4.794
		c0.076,0.214-0.028,0.373-0.025,0.532c-0.241,0.373-0.551,0.853-0.902,1.066c-0.087,0.053-0.156,0.16-0.138,0.212
		c-0.132,0.533-0.765,0.853-1.003,1.385c-0.053,0-0.068,0.107-0.21,0.159l-0.104,0.161l-0.275,0.426
		c-0.332,0.266-0.555,0.691-1.062,1.064c0.022,0.213-0.097,0.48-0.219,0.586l-0.157,0.16l-0.122,0.106
		c-0.172,0.266-0.216,0.746-0.746,0.905c-0.016,0.107-0.103,0.16-0.062,0.426c-0.053,0-0.088,0.054-0.141,0.054
		c-0.188,0.373-0.379,0.585-0.639,0.905c-0.047,0.319-0.417,0.479-0.552,0.852c-0.103,0.161-0.135,0.373-0.47,0.48
		c-0.082,0.372-0.504,0.532-0.624,0.798c-0.422,0.161-0.61,0.533-1.124,0.586c-0.267,0-0.482-0.159-0.643-0.159
		c-0.197-0.107-0.266,0-0.372,0c-0.054,0-0.464-0.107-0.59-0.16l-1.13-0.639c-0.163-0.16-0.347-0.533-0.479-0.906
		c-0.322-1.064,0.069-1.917,0.286-2.662c0.251-0.8,0.589-1.651,0.859-2.396l0.787-1.545c0.824-1.438,1.827-2.822,2.776-4.207
		c0.445-0.852,1.159-1.544,1.658-2.396c0.141-0.053,0.209-0.16,0.332-0.266l0.592-0.585c0.176-1.012,0.87,0.052,1.456,0.052
		c0.561,0.533,2.895,1.864,2.785,2.61c-0.182,0.693-0.67,1.118-1.16,1.545c-0.21,0.159-0.26,0.319-0.561,0.373
		c-0.157,0.16-0.385,0.267-0.47,0.479c-0.354,0.054-0.311,0.48-0.611,0.532c-0.226,0.267-0.63,0.48-0.711,0.853
		c-0.667,0.373-1.099,0.958-1.57,1.438c-0.084,0.213-0.42,0.32-0.485,0.586c-0.176,0.107-0.389,0.107-0.511,0.213l-0.051,0.16
		l-0.19,0.212c-0.122,0.107-0.135,0.373-0.257,0.48c-0.194,0.053-0.37,0.159-0.401,0.373c-0.122,0.106-0.156,0.159-0.316,0.159
		C238.153,42.869,238.119,42.922,238.175,43.082z M254.219,24.548c-0.793,0.32-0.868,1.012-1.874,1.332
		c-0.013,0.267-0.275,0.426-0.467,0.639c0,0,0.286,0.053,0.091,0.106c-0.069,0.107-0.298,0.213-0.564,0.213
		c0.52,0.267-0.047,0.32,0.225,0.639c-0.104,0.16-0.507,0.373-0.717,0.533c0.075,0.213,0.094,0.266,0.203,0.425
		c-0.016,0.107-0.37,0.161,0.062,0.48c-0.267,0-0.389,0.106-0.313,0.32c-0.702,0.425-1.989,0.852-2.957,1.278
		c-0.229,0.106-0.349,0.372-0.596,0.425c-0.106,0-0.16,0-0.373,0c-1.009,0.16-1.614,1.012-2.911,0.958
		c-0.354,0.054-0.661-0.212-1.174-0.159c-0.076-0.213-0.185-0.373-0.508-0.533c-0.638-0.905-1.593-1.65-2.107-2.503
		c1.146-0.372,1.857-1.225,3.367-1.172c0.106,0,0.32,0,0.373,0c0.727-0.053,1.2-0.373,1.889-0.532
		c2.841-0.852,5.392-2.077,8.718-2.61C254.519,24.495,254.341,24.441,254.219,24.548z"/>
	<path fill="#FFFFFF" d="M268.749,31.471c0.292,0.373,1.024,0.639,1.297,0.959c0,0-0.05,0.16,0.006,0.319
		c0.079,0.373,0.354,0.853,0.592,1.225c-0.103,0.16-0.012,0.267,0.169,0.479c0.147,0.267,0.347,0.533,0.425,0.905
		c0.072,0.054,0.286,0.054,0.376,0.16c-0.141,0.053-0.304-0.106-0.426,0c0.021,0.213-0.101,0.319-0.207,0.319
		c-0.332,0.267-0.654,0.107-0.993,0.054c-0.178-0.054-0.373,0-0.62,0.053c-0.194,0.053-0.389,0.107-0.583,0.16
		c-1.15,0.213-2.137,0.586-3.286,0.799c-0.122,0.106-0.264,0.159-0.439,0.266c-0.898,0.319-1.71,0.585-2.644,0.958
		c-0.16,0-0.282,0.107-0.477,0.159c-0.141,0.054-0.335,0.107-0.457,0.214c-0.194,0.053-0.282,0.106-0.477,0.159
		c-0.773,0.373-1.46,0.693-2.233,1.066c-0.229,0.106-0.492,0.266-0.721,0.373c-1.685,0.959-3.228,2.023-4.821,3.089
		c-0.21,0.159-0.42,0.319-0.737,0.479c-0.172,0.266-0.633,0.32-0.786,0.639c0.341,0.213,0.661,0.213,0.855,0.161
		c0.213,0,0.373,0,0.567-0.054c0.248-0.053,0.46-0.053,0.636-0.16c2.535-0.213,4.756-1.011,7.105-1.598
		c0.282-0.105,0.53-0.159,0.812-0.266c0.495-0.106,0.899-0.319,1.482-0.479c0.213,0,0.408-0.054,0.602-0.107
		c1.093-0.373,2.081-0.745,3.121-1.118c0.247-0.053,0.457-0.214,0.758-0.266c0.968-0.426,1.861-1.065,3.099-1.332
		c-1.037,0.532-2.184,0.905-3.199,1.651c-0.175,0.106-0.386,0.267-0.667,0.372c-0.949,0.48-1.899,0.959-2.882,1.492
		c-0.176,0.106-0.352,0.213-0.599,0.266c-0.511,0.213-0.949,0.479-1.373,0.639c-0.282,0.106-0.545,0.266-0.739,0.32
		c-1.012,0.905-2.948,0.852-3.675,1.811c-0.551,0.852-1.914,0.159-2.484,0.958c-0.32,0-0.673,0.054-0.865,0.266
		c-0.267,0-0.548,0.106-0.83,0.213c-0.636,0.16-1.363,0.213-2.196,0.266c-0.711-0.053-1.588-0.425-2.004-0.852
		c0.573,1.172-1.723-0.958-0.346-5.06c0.599-1.171,1.281-2.556,2.149-3.568c0.552,0.053,0.467-0.639,0.984-0.532
		c-0.091-0.107-0.038-0.107-0.094-0.267l0.094,0.267c0.266,0,0.313-0.32,0.385-0.267c0.097,0.426-0.101,0.319-0.223,0.426
		c-0.213,0-0.156,0.16-0.172,0.266c-0.156,0.16-0.423,0.16-0.386,0.266c0.182,0.214,0.251,0.107,0.213,0
		c0.075,0.214-0.01,0.427-0.167,0.586c-0.42,0.319-0.905,0.906-1.056,1.385c0.37-0.16,0.395-0.693,0.89-0.799
		c1.128-1.332,2.181-2.876,3.597-3.995c-0.128-0.212,0.245-0.212,0.242-0.372c-0.319,0-0.352,0.213-0.58,0.32
		c-0.157,0.159-0.476,0.159-0.667,0.372c-0.279,0.267-0.592,0.586-1.015,0.746c0.032-0.213,0.316-0.16,0.348-0.373
		c0.069-0.106,0.191-0.213,0.154-0.32l0.47-0.479c0.087-0.053-0.163-0.16-0.113-0.319c0.245-0.213,0.652-0.266,0.661-0.692
		c0.678-0.799,1.639-1.545,2.623-2.077c0.98-0.692,1.964-1.225,3.18-1.705c1.146-0.373,2.331-0.639,3.715-0.639
		c0.692,0,1.207-0.052,1.814,0.16c0.213,0,0.517,0.106,0.607,0.213c0.179,0.053,0.467,0.266,0.771,0.373
		c0.322,0.159,0.714,0.213,1.216,0.426C268.615,30.939,268.728,31.259,268.749,31.471z M249.967,40.579
		c-0.16,0-0.194,0.054-0.334,0.107C249.917,40.739,249.967,40.579,249.967,40.579z M251.208,38.661
		c-0.194,0.054-0.138,0.214-0.138,0.214S251.227,38.715,251.208,38.661z M255.49,38.875c-0.019-0.054-0.106,0-0.229,0.106
		C255.262,38.981,255.421,38.981,255.49,38.875z M261.81,34.294c-1.341,0.427-2.587,1.119-3.549,1.864
		c1.816-0.586,3.433-1.438,5.253-1.864c0.545-0.266,1.218-0.319,1.764-0.585c-0.448-0.213-0.889-0.106-1.315-0.106L261.81,34.294z"
		/>
	<path fill="#FFFFFF" d="M299.238,27.318c0.109,1.064-0.919,1.171-1.366,1.864c-0.42,0.32-0.878,0.532-1.085,0.852
		c-0.159,0-0.141,0.053-0.247,0.053c-0.082,0.373-0.561,0.373-0.733,0.639c-0.213,0-0.194,0.054-0.175,0.107
		c-0.383,0.426-0.969,0.426-1.122,0.745l-0.42,0.319c0.003,0.161,0.16,0,0.057,0.161c-0.088,0.052-0.156,0.159-0.295,0.372
		c0.301-0.053,0.438-0.266,0.758-0.266c-0.021-0.213-0.128-0.213-0.359-0.267c-0.003-0.159,0.335-0.106,0.511-0.212
		c0.053,0,0.103-0.16,0.406-0.054c-0.121,0.107-0.354,0.054-0.315,0.16c0.46-0.053,0.789-0.479,1.175-0.745
		c0.812-0.266,1.438-0.905,2.105-1.278c0.175-0.107,0.473-0.32,0.558-0.532c0.115,0.479-0.204,0.479-0.505,0.532
		c-0.173,0.266-0.488,0.426-0.855,0.746l-0.942,0.798l-0.495,0.107c-0.051,0.159-0.066,0.266-0.153,0.319
		c-0.336,0.106-0.709,0.106-0.79,0.479c0.194-0.053,0.529-0.159,0.793-0.32c0.576-0.479,1.206-0.958,2.015-1.384
		c-0.258,0.479-0.824,0.532-1.226,0.905c-0.194,0.052-0.313,0.319-0.417,0.479c-0.316,0.161-0.952,0.32-1.033,0.693
		c-0.352,0.213-0.809,0.426-1.179,0.585c-0.281,0.107-0.403,0.213-0.473,0.32c-0.142,0.053-0.104,0.159-0.173,0.266l-0.422,0.16
		c-0.088,0.053-0.139,0.213-0.299,0.213c-0.121,0.107-0.316,0.159-0.511,0.213c-0.016,0.106-0.172,0.266-0.348,0.373
		c-0.228,0.106-0.388,0.106-0.511,0.212c-0.122,0.107-0.263,0.16-0.545,0.266c-0.176,0.107-0.332,0.267-0.488,0.427
		c-0.267,0-0.37,0.16-0.526,0.319c-0.226,0.266-0.671,0.213-0.627,0.639c-0.423,0.159-0.686,0.32-0.931,0.532
		c-0.213,0,0,0-0.056-0.159c-0.317,0.159-0.549,0.106-0.526,0.319c0.037,0.106,0,0,0.053,0c0.041,0.267-0.119,0.267-0.062,0.426
		c0.125,0.053,0.156-0.159,0.226-0.266c0.266,0,0.423-0.16,0.526-0.32c0.244-0.212,0.579-0.319,0.983-0.532
		c0.298-0.213,0.467-0.639,1-0.639c0.112,0.32-0.367,0.32-0.436,0.426c-0.191,0.213-0.349,0.372-0.63,0.479
		c-0.369,0.16-0.562,0.373-0.771,0.532c0,0-0.053,0-0.141,0.054c-0.053,0-0.21,0.16-0.369,0.16c0.019,0.053-0.142,0.053-0.142,0.053
		c-0.053,0-0.068,0.106-0.104,0.16c0,0-0.053,0-0.156,0.16c-0.16,0-0.282,0.106-0.298,0.213c-0.266,0-0.244,0.212-0.298,0.212
		c-0.175,0.107-0.278,0.266-0.617,0.213c-0.05,0.16-0.1,0.319-0.275,0.426l-0.232-0.053c0,0,0.057,0.16,0.004,0.16
		c-0.016,0.106-0.057-0.16-0.11-0.16c-0.213,0-0.156,0.16-0.263,0.16c0.038,0.106,0.038,0.106,0.091,0.106
		c0.019,0.053-0.053,0-0.053,0c-0.035,0.053-0.051,0.16-0.031,0.213c-0.194,0.054-0.32,0-0.404,0.213
		c-0.235-0.213-0.248,0.054-0.389,0.107c0.037,0.106-0.194,0.053-0.153,0.319c-0.564,0.213-0.824,0.533-1.207,0.959
		c-0.159,0-0.197-0.107-0.197-0.107c-0.034,0.054-0.031,0.213-0.081,0.373c-0.106,0-0.109-0.16-0.109-0.16h-0.427
		c-0.034,0.053,0.072,0.053,0.075,0.213c-0.106,0-0.122,0.106-0.21,0.16c0.02,0.053,0.072,0.053,0.041,0.266
		c-0.141,0.053-0.288-0.213-0.267,0c-0.087,0.053,0.004,0.16-0.031,0.213c-0.278,0.267-0.812,0.267-1.018,0.586
		c-0.054,0-0.017,0.106,0.003,0.159c-0.824,0.532-1.52,1.278-2.234,1.971c-0.282,0.106-0.401,0.372-0.52,0.639
		c-0.069,0.106-0.211,0.159-0.333,0.266c-0.297,0.212-0.416,0.479-0.445,0.852c-0.616,0.213-0.82,0.693-1.149,1.118
		c-0.119,0.267-0.15,0.48-0.501,0.693c-0.154,0.319-0.326,0.585-0.32,0.906c-0.319,0-0.426,0-0.514,0.053
		c-0.125-0.053-0.197-0.107-0.27-0.159c-0.977-0.054-1.365-0.853-2.183-0.905l-0.542-0.48c-0.057-0.159-0.006-0.32,0.01-0.426
		c0.762-1.011,0.894-2.45,1.294-3.728c0.822-2.502,1.659-5.112,2.571-7.509l1.545-3.622c0.311-0.479,0.461-0.959,0.646-1.491
		c0.163-0.745,0.74-1.225,0.743-1.97c0.065-0.267,0.367-0.32,0.793-0.32c0.629,0.425,2.411,1.704,3.147,2.13
		c0.348,0.532,1.137,0.958,1.503,1.544c0.332,0.639-0.179,0.852-0.514,0.958c-0.031,0.213-0.279,0.266-0.348,0.372
		c-0.267,0-0.302,0.054-0.298,0.214c-0.157,0.159-0.185,0.532-0.486,0.585c-0.328,0.427-0.445,0.852-0.673,0.959
		c-0.505,0.532-0.887,0.958-1.122,1.65c-0.176,0.107-0.15,0.48-0.417,0.48c-0.044-0.427-0.281-0.8-0.654-0.8
		c-0.194,0.054-0.204,0.48-0.436,0.427c-0.101,0.319-0.15,0.479-0.379,0.585c-0.104,0.16-0.139,0.214-0.227,0.266
		c-0.034,0.054-0.013,0.266-0.226,0.266c0.038,0.107,0.091,0.107,0.251,0.107c-0.226,0.266-0.417,0.48-0.567,0.959
		c-0.213,0-0.335,0.106-0.332,0.266c0.038,0.107,0.163,0.16,0.182,0.213c-0.047,0.319-0.204,0.479-0.235,0.692
		c-0.034,0.053-0.247,0.053-0.209,0.16c0.601-0.107,1.03-0.852,1.557-1.171l0.721-0.373c0.122-0.107,0.295-0.373,0.576-0.48
		c0.034-0.053,0.247-0.053,0.229-0.106c0.16,0,0.349-0.373,0.489-0.426c0.122-0.107,0.175-0.107,0.247-0.053
		c0.157-0.16,0.154-0.32,0.383-0.426c0.088-0.053,0.373,0,0.404-0.213c0.263-0.16,0.438-0.266,0.47-0.479
		c0.865-0.266,1.278-0.905,1.979-1.332c0.614-0.373,1.244-0.852,1.893-1.278c0.858-0.586,1.79-1.118,2.561-1.65
		c0.491-0.267,0.983-0.533,1.35-0.853l0.104-0.159c0.156-0.16,0.316-0.16,0.617-0.214c0.176-0.106,0.382-0.425,0.63-0.479
		c1.488-1.065,3.136-2.13,4.336-3.408c0.106,0,0.16,0,0.122-0.107c0.843-0.479,1.132-1.171,1.379-2.13
		c0.06-0.585-0.021-1.118,0.201-1.544c0.16,0,0.21-0.159,0.46-0.053c0.201,0.267,0.188,0.533,0.285,0.958l0.21,0.746
		c0.26,0.586,0.651,1.544,0.338,1.864C299.097,27.371,299.238,27.318,299.238,27.318z M286.082,38.183
		c0.514-0.054,0.576-0.48,1.105-0.639c0.069-0.107,0.316-0.161,0.263-0.161c-0.846,0.32-1.372,0.639-1.86,1.066
		C285.981,38.502,285.997,38.395,286.082,38.183z M286.959,35.838c-0.006-0.319,0.455-0.372,0.68-0.639
		c-0.723,0.214-1.07,0.587-1.472,0.959C286.521,36.105,286.587,35.838,286.959,35.838z M295.575,28.862
		c0.179,0.053,0.21-0.16,0.282-0.107c-0.05,0.16-0.104,0.16-0.298,0.214c0,0-0.037-0.107-0.125-0.054c-0.053,0-0.053,0-0.088,0.054
		c0.019,0.052,0.072,0.052,0.11,0.159c-0.242,0.373-0.593,0.585-0.997,0.798c0.078,0.373-0.135,0.373-0.31,0.48
		c-0.145-0.107-0.373,0-0.605-0.054c0.007,0.32-0.492,0.267-0.646,0.586c-0.144-0.106-0.281,0.107-0.316,0.16
		c0.16,0,0.142-0.053,0.214,0c-0.229,0.106-0.136,0.372-0.242,0.372c-0.019-0.052,0.088-0.052-0.075-0.212
		c-0.285-0.054-0.156,0.16-0.138,0.212c-0.247,0.054-0.206,0.32-0.598,0.267c0.003,0.159-0.032,0.213-0.101,0.32c0,0-0.106,0-0.16,0
		c-0.084,0.212-0.241,0.372-0.488,0.425c-0.003-0.159-0.075-0.213-0.15-0.425c0.068-0.107,0.05-0.161,0.335-0.107l0.207-0.32
		c0.141-0.053,0.477-0.16,0.438-0.266c-0.354,0.054-0.617,0.213-0.718,0.532c-1.654,0.746-3.004,1.598-4.424,2.557
		c0.267,0,0.393,0.054,0.567-0.053c0.179,0.053,0.038,0.107,0.091,0.107c0.742-0.16,1.138-0.853,1.952-0.959
		c0.104-0.16,0.047-0.319,0.101-0.319c0.247-0.054,0.369-0.16,0.561-0.373c0.266,0,0.369-0.159,0.601-0.107
		c0.054,0-0.016,0.107,0.022,0.214c0.264-0.16,0.617-0.214,0.877-0.533c-0.019-0.053,0.035-0.053,0.142-0.053
		c0.701-0.426,1.331-0.906,2.212-1.278c0.1-0.319,0.401-0.373,0.755-0.426c-0.031,0.213,0.356,0.107,0.319,0
		c-0.288-0.213-0.319,0-0.339-0.053c0.032-0.213,0.279-0.267,0.527-0.32c0.118-0.266,0.225-0.266,0.278-0.266l0.21-0.159
		c0.351-0.214,0.651-0.266,0.787-0.639l0.331-0.266c0.069-0.107,0.424-0.161,0.511-0.214c0.104-0.159,0.257-0.479,0.326-0.586
		c-0.094-0.266,0.013-0.266,0.101-0.319c-0.125-0.053-0.213,0-0.231-0.053c-0.019-0.053,0.088-0.053,0.013-0.267
		c-0.163-0.159-0.085,0.214-0.424,0.161c-0.053,0-0.075-0.214-0.128-0.214c-0.088,0.053-0.031,0.214-0.065,0.267
		C296.396,28.169,295.904,28.436,295.575,28.862z M289.09,34.933c0.604,0.054,0.686-0.319,1.093-0.372l0.136-0.373h-0.054
		C289.951,34.508,289.402,34.614,289.09,34.933z M290.155,33.123c-0.301,0.053-0.495,0.107-0.542,0.426
		c-0.057-0.16-0.216-0.16-0.319,0c0.019,0.054-0.034,0.054,0.003,0.16c0.372,0,0.423-0.16,0.613-0.373
		c0.089-0.053,0.336-0.106,0.458-0.213c-0.019-0.053-0.057-0.159-0.216-0.159C290.208,33.123,290.208,33.123,290.155,33.123z
		 M293.074,32.644c-0.087,0.054-0.244,0.213-0.422,0.16c-0.53,0.16-0.949,0.479-1.457,0.852c-0.088,0.054,0.071,0.054,0.075,0.214
		c-0.357-0.107-0.352,0.213-0.617,0.213c-0.054,0,0.019,0.053,0.037,0.106c-0.034,0.054-0.193,0.054-0.156,0.16
		c-0.157,0.16,0.003,0.16,0.003,0.16c0.267,0,0.438-0.266,0.58-0.32c0.545-0.266,1.002-0.479,1.456-0.853
		c0.138-0.213,0.42-0.319,0.667-0.372h-0.159c0.062-0.427,0.223-0.427,0.504-0.533c0.069-0.106,0.119-0.266,0.173-0.266
		c-0.02-0.054-0.02-0.054-0.02-0.054c-0.193,0.054-0.562,0.214-0.773,0.373C293.021,32.644,293.144,32.537,293.074,32.644z
		 M291.477,35.359h-0.16c-0.122,0.107-0.226,0.267-0.473,0.32c0.507-0.373,0.799-0.905,1.541-1.065
		C292.178,34.933,291.756,35.093,291.477,35.359z M292.983,33.442c0.213,0,0.229-0.107,0.515-0.054
		c0.084-0.213,0.454-0.372,0.732-0.639l0.191-0.213c0.053,0,0.354-0.053,0.281-0.106c-0.491,0.267-1.249,0.533-1.581,0.799
		C293.178,33.389,293.019,33.389,292.983,33.442z M296.76,27.691c0,0,0,0-0.056-0.161c0.053,0-0.02-0.053-0.02-0.053
		c-0.298,0.214-0.42,0.32-0.732,0.639c-0.051,0.16-0.208,0.319-0.417,0.48c-0.58,0.319-0.925,0.852-1.47,1.118
		c-0.106,0-0.248,0.054-0.191,0.213c1.041-0.372,1.451-1.171,2.275-1.704C296.199,28.063,296.425,27.797,296.76,27.691z
		 M298.004,29.555l-0.086,0.213c-0.281,0.107-0.441,0.107-0.686,0.319c-0.426,0-0.488,0.427-0.809,0.427
		c0.069-0.107,0.442-0.107,0.47-0.48c0.301-0.053,0.689-0.159,0.934-0.373c0.054,0,0.106,0,0.106,0
		c0.204-0.479,0.677-0.798,1.082-1.011c-0.057-0.16,0.053,0,0.053,0C298.952,29.075,298.313,29.075,298.004,29.555z"/>
	<path fill="#FFFFFF" d="M313.806,31.471c0.291,0.373,1.024,0.639,1.297,0.959c0,0-0.05,0.16,0.006,0.319
		c0.078,0.373,0.354,0.853,0.592,1.225c-0.104,0.16-0.012,0.267,0.169,0.479c0.147,0.267,0.348,0.533,0.426,0.905
		c0.072,0.054,0.286,0.054,0.376,0.16c-0.141,0.053-0.304-0.106-0.426,0c0.021,0.213-0.101,0.319-0.207,0.319
		c-0.332,0.267-0.654,0.107-0.993,0.054c-0.178-0.054-0.373,0-0.62,0.053c-0.193,0.053-0.389,0.107-0.582,0.16
		c-1.15,0.213-2.137,0.586-3.286,0.799c-0.122,0.106-0.264,0.159-0.439,0.266c-0.898,0.319-1.71,0.585-2.644,0.958
		c-0.16,0-0.282,0.107-0.477,0.159c-0.141,0.054-0.335,0.107-0.457,0.214c-0.194,0.053-0.282,0.106-0.477,0.159
		c-0.773,0.373-1.46,0.693-2.233,1.066c-0.229,0.106-0.492,0.266-0.721,0.373c-1.686,0.959-3.228,2.023-4.821,3.089
		c-0.21,0.159-0.421,0.319-0.737,0.479c-0.172,0.266-0.633,0.32-0.786,0.639c0.342,0.213,0.661,0.213,0.855,0.161
		c0.213,0,0.373,0,0.566-0.054c0.248-0.053,0.461-0.053,0.636-0.16c2.535-0.213,4.756-1.011,7.105-1.598
		c0.282-0.105,0.529-0.159,0.812-0.266c0.495-0.106,0.898-0.319,1.481-0.479c0.213,0,0.408-0.054,0.602-0.107
		c1.094-0.373,2.081-0.745,3.121-1.118c0.247-0.053,0.457-0.214,0.758-0.266c0.968-0.426,1.861-1.065,3.099-1.332
		c-1.037,0.532-2.185,0.905-3.199,1.651c-0.175,0.106-0.386,0.267-0.667,0.372c-0.949,0.48-1.899,0.959-2.882,1.492
		c-0.176,0.106-0.352,0.213-0.599,0.266c-0.512,0.213-0.949,0.479-1.373,0.639c-0.281,0.106-0.545,0.266-0.739,0.32
		c-1.012,0.905-2.948,0.852-3.675,1.811c-0.552,0.852-1.914,0.159-2.484,0.958c-0.319,0-0.673,0.054-0.864,0.266
		c-0.267,0-0.549,0.106-0.83,0.213c-0.636,0.16-1.363,0.213-2.196,0.266c-0.711-0.053-1.588-0.425-2.005-0.852
		c0.573,1.172-1.723-0.958-0.346-5.06c0.599-1.171,1.281-2.556,2.149-3.568c0.552,0.053,0.467-0.639,0.983-0.532
		c-0.091-0.107-0.037-0.107-0.094-0.267l0.094,0.267c0.267,0,0.313-0.32,0.386-0.267c0.097,0.426-0.101,0.319-0.223,0.426
		c-0.213,0-0.156,0.16-0.172,0.266c-0.156,0.16-0.423,0.16-0.386,0.266c0.182,0.214,0.251,0.107,0.213,0
		c0.075,0.214-0.01,0.427-0.166,0.586c-0.42,0.319-0.905,0.906-1.057,1.385c0.37-0.16,0.396-0.693,0.891-0.799
		c1.128-1.332,2.181-2.876,3.597-3.995c-0.128-0.212,0.245-0.212,0.242-0.372c-0.319,0-0.352,0.213-0.58,0.32
		c-0.157,0.159-0.477,0.159-0.668,0.372c-0.278,0.267-0.592,0.586-1.015,0.746c0.031-0.213,0.316-0.16,0.348-0.373
		c0.069-0.106,0.191-0.213,0.154-0.32l0.47-0.479c0.087-0.053-0.163-0.16-0.113-0.319c0.245-0.213,0.652-0.266,0.661-0.692
		c0.678-0.799,1.639-1.545,2.623-2.077c0.98-0.692,1.964-1.225,3.18-1.705c1.146-0.373,2.331-0.639,3.715-0.639
		c0.692,0,1.207-0.052,1.814,0.16c0.213,0,0.517,0.106,0.607,0.213c0.179,0.053,0.467,0.266,0.771,0.373
		c0.322,0.159,0.714,0.213,1.216,0.426C313.671,30.939,313.784,31.259,313.806,31.471z M295.023,40.579
		c-0.159,0-0.193,0.054-0.334,0.107C294.974,40.739,295.023,40.579,295.023,40.579z M296.265,38.661
		c-0.194,0.054-0.138,0.214-0.138,0.214S296.283,38.715,296.265,38.661z M300.547,38.875c-0.019-0.054-0.106,0-0.229,0.106
		C300.318,38.981,300.478,38.981,300.547,38.875z M306.866,34.294c-1.341,0.427-2.587,1.119-3.549,1.864
		c1.816-0.586,3.433-1.438,5.253-1.864c0.546-0.266,1.219-0.319,1.764-0.585c-0.447-0.213-0.889-0.106-1.314-0.106L306.866,34.294z"
		/>
	<path fill="#FFFFFF" d="M384.068,10.382c-0.156,0.16-0.366,0.32-0.254,0.639c-0.223,0.426-0.1,1.226-0.573,1.545
		c-0.019,0.852-0.718,1.438-0.899,2.13c-0.204,0.479-0.39,1.011-0.774,1.278c-0.17,0.426-0.145,0.798-0.549,1.011
		c-0.069,1.012-0.84,1.544-1.216,2.291c-0.138,0.213-0.078,0.532-0.341,0.692c-0.292,0.533-0.048,0.32-0.427,0.905
		c0.444,0.054,0.817,0.054,1.209,0.106c1.262,0.107,2.578,0.214,3.787,0.32c1.281,0.16,2.509,0.319,3.774,0.585
		c-2.593-0.106-5.281-0.479-7.981-0.585c-0.319,0-0.639,0-0.978-0.053c-0.479,0.905-1.532,2.45-2.121,3.195
		c-0.257,0.48-0.564,1.119-1,1.544c-0.034,0.054-0.176,0.107-0.263,0.161c0.016-0.107-0.047-0.586-0.407-0.853
		c-0.369,0.16-0.219,0.586-0.574,0.639c-0.216,0.746-1.08,1.012-1.171,1.812c-0.401,0.372-0.806,0.586-0.991,1.118
		c-0.438,0.266-0.41,0.798-1.012,0.905c0.06,0.319-0.112,0.585-0.357,0.798c-0.088,0.054-0.091-0.106-0.144-0.106
		c-0.342,0.693-0.865,1.171-1.172,1.811c-1.231,1.491-2.843,2.663-3.823,4.261c-0.263,0.16-0.436,0.426-0.573,0.639
		c1.159-0.639,2.297-1.491,3.524-2.237c1.068-0.745,2.281-1.384,3.581-2.077c0.232,0.053,0.138-0.213,0.37-0.159
		c0.141-0.054-0.038-0.107,0.05-0.161c0.194-0.053-0.034,0.054,0.126,0.054c1.158-0.639,2.425-1.278,3.637-1.917
		c0.687-0.32,1.172-0.905,1.93-1.171c0.097,0.425,0.332,0.639,0.602,0.798c0.267,0,0.034-0.053-0.003-0.159
		c0.413,0.266,0.661,0.212,1.105,0.266c0.447,0.213,0.934,0.532,1.347,0.798c0.057,0.16-0.065,0.266,0.028,0.533
		c-0.492,0.266-0.479,0.905-0.987,1.278c-0.05,0.159-0.345,0.532-0.611,0.532c-0.15,0.479-0.623,0.799-1.005,1.225
		c-0.106,0-0.126-0.053-0.179-0.053c-0.411,0.798-1.238,1.171-1.614,1.917c-0.266,0-0.19,0.213-0.351,0.213
		c0.003,0.16-0.101,0.32-0.044,0.48c-0.179-0.054-0.16,0-0.267,0c-0.065,0.266-0.241,0.372-0.379,0.585
		c-0.147,0.639-0.78,0.959-0.946,1.544c-0.404,0.213-0.558,0.533-0.834,0.959c-0.654,0.106-0.896,0.479-1.259,0.958
		c-0.235-0.213-0.477,0.16-0.508,0.372c-0.213,0-0.282,0.107-0.441,0.107c-0.27,0.746-0.812,1.171-0.994,1.864
		c-0.197-0.107-0.122,0.107-0.407,0.053c-0.119,1.171-1.589,1.384-1.724,2.663c0.019,0.053-0.144-0.106-0.194,0.053
		c-0.06,0.586-0.532,0.905-0.539,1.491c-0.125-0.053-0.339-0.053-0.335,0.107c0.109,0.159,0.103-0.16,0.179,0.053
		c-0.032,0.213-0.142,0.054-0.37,0.16c0.129,0.213,0.06,0.319,0.062,0.479l-0.281,0.106c-0.02,0.854-0.309,1.545-0.202,2.449
		c-0.115-0.479-0.036-1.011-0.064-1.544c-0.17,1.332-0.214,2.717,0.136,4.313c-0.798-1.811-0.412-3.887-0.265-5.432
		c0.061-1.491,0.408-2.769,0.828-3.994c0.693-2.716,1.947-4.899,2.915-7.136c-0.965,0.585-2.049,1.438-2.923,2.13
		c-1.363,0.213-1.808,1.065-2.936,1.491c-0.173,0.266-0.614,0.373-0.805,0.585c-0.054,0-0.16,0-0.16,0
		c-0.194,0.054,0.162,0.161,0.056,0.161c-2.036,1.171-3.405,2.876-5.423,4.101c-0.539,0.585-1.579,0.958-2.247,1.331
		c-0.084,0.214-0.134,0.373-0.219,0.586c-0.893-0.266-1.491-0.905-2.205-1.118c-0.235-0.213-0.311-0.426-0.561-0.532
		c0.047-0.32,0.182-0.693,0.373-0.905c0.467-0.639,1.275-1.066,1.887-1.598c1.813-1.651,3.283-3.675,4.844-5.592
		c4.039-5.007,8.282-11.397,11.942-16.723c0,0,0.054,0,0.034-0.053c-0.159,0-0.267,0-0.373,0s-0.46,0.053-0.566,0.053
		c-0.267,0-5.636,0.479-5.902,0.479c-0.194,0.053-0.691,0-0.795,0.16c0.125,0.053,0.354-0.053,0.532,0
		c-0.4,0.373-1.826,0.106-2.531,0.373c0.091,0.106,0.479,0,0.429,0.159c-0.315,0.16-1.103-0.107-1.202,0.213l-2.318,0.373
		c-1.229,1.651-2.733,3.728-2.799,3.994c-0.316,0.16-0.488,0.426-0.607,0.692c-0.621,0.959-1.251,1.438-1.82,2.237
		c-0.313,0.319-0.539,0.585-1.031,0.852c-0.139,0.213-0.041,0.639-0.232,0.852c-0.068,0.107-0.316,0.16-0.457,0.214
		c-0.345,0.532-0.511,1.118-1.216,1.384l-0.617,1.119c0,0-0.16,0-0.267,0c-0.068,0.106,0.179,0.053,0.145,0.106
		c-0.289,0.692-0.922,1.012-1.138,1.758h-0.426c0.094,0.266,0.04,0.266,0.131,0.372c-0.034,0.053-0.088,0.053-0.247,0.053
		c-0.107,0.905-0.932,1.438-1.234,2.237c-0.142,0.053-0.18-0.054-0.339-0.054c-0.135,0.373-0.339,0.852-0.526,1.225
		c-0.106,0-0.213,0-0.301,0.053c0.037,0.107,0.179,0.054,0.109,0.159c-0.508,0.373-0.282,1.012-0.918,1.173
		c0.097,0.425-0.486,0.585-0.304,0.798c-0.195,0.053-0.267,0-0.316,0.16l0.375,0.159c-0.068,0.107,0.006,0.32,0.025,0.373
		c0.902-0.16,1.281-0.746,1.952-0.958c0.106,0,0.019,0.053,0.162,0.159c0.122-0.106,0.317-0.159,0.332-0.266
		c-0.019-0.053-0.175,0.107-0.267,0c0.806-0.586,1.382-1.064,2.294-1.65c0.142-0.053,0.21-0.16,0.477-0.16
		c0.451-0.532,1.012-0.905,1.842-1.118c2.52-1.917,5.051-4.101,8.447-6.551c0.194-0.054,0.244-0.213,0.492-0.266
		c-0.079,0.532-0.555,0.692-0.94,0.958c-0.122,0.106-0.52,0.639-0.57,0.799c-1.688,1.705-2.068,2.29-2.642,2.929
		c-0.034,0.053-0.034,0.053,0.019,0.053c-0.135,0.373-0.717,0.533-1.046,0.958c-0.789,0.48-1.498,2.397-2.413,2.823
		c-0.068,0.107-0.229,0.107-0.26,0.32c-0.373,0-0.188,0.373-0.504,0.533c-0.252,0.798-1.278,0.905-1.567,1.597
		c-0.16,0-0.138,0.214-0.351,0.214c-0.157,0.159-0.242,0.372-0.684,0.479c0.02,0.053,0.232,0.053,0.251,0.107
		c-0.902,0.159-0.311,0.479-1.016,0.745c0.643,0.16-1.563,0.853-0.871,0.853c0.072,0.053,0.019,0.053-0.034,0.053
		c0.145,0.106,0.156-0.16,0.372,0c-0.297,0.213-0.861,0.426-1.067,0.746c-0.016,0.107,0.159,0,0.144,0.107
		c-0.704,0.266-0.118,0.266-0.911,0.586c-0.147,0.639-0.878,0.532-1.185,1.171c-0.777,0.213-1.341,1.331-2.096,1.757
		c-0.474,0.32-1.354,0.693-2.212,0.373c-0.389,0.107-1.065,0-1.532-0.266c-0.836-0.107-1.394-0.479-1.898-0.852
		c-0.019-0.055-0.284-0.055-0.395-0.215c-0.043-0.425-0.739-0.585-0.409-1.011c-0.226-0.639,0.319-0.905,0.451-1.438
		c-0.072-0.052-0.016,0.107-0.229,0.107c2.105-3.994,4.628-7.563,6.969-11.344c0.017-0.107-0.021-0.213,0.013-0.267
		c0.157-0.159,0.204-0.479,0.36-0.638c0.191-0.213,0.367-0.319,0.577-0.479l0.166-0.586c0.366-0.32,0.695-0.746,0.918-1.171
		c0.398-0.533,0.702-1.332,1.281-1.651c0.22-0.586,0.464-0.798,0.596-1.332c0.245-0.213,0.687-0.32,0.84-0.639
		c-0.056-0.16-0.094-0.267-0.06-0.32c0.088-0.052,0.301-0.052,0.37-0.159c0.26-0.32,0.354-0.959,0.812-1.171
		c0.016-0.107-0.573,0.639-0.558,0.532c0.651-0.266,0.62-0.959,1.181-1.332c-0.106,0,0.803-1.65,0.834-1.864
		c-0.034,0.053-0.087,0.053-0.141,0.053l-1.397,0.266c-0.937,0.214-1.873,0.427-2.954,0.533c-0.372,0-0.636,0.16-1.043,0.213
		c-1.009,0.159-1.61,0.266-2.601,0.479l-1.911,0.319c-0.441,0.107-0.636,0.161-1.059,0.32c-0.141,0.053-0.548,0.107-0.742,0.16
		l-1.257,0.213c-0.92,0.107-1.772,0.107-2.276-0.266c-0.11-0.16-0.383-0.479-0.614-0.532l-0.219-0.32
		c-0.072-0.053-0.11-0.16-0.147-0.266c-0.075-0.214-0.329-0.48-0.42-0.587c-0.291-0.372-0.633-0.585-0.606-1.118
		c-0.022-0.213,0.222-0.427,0.307-0.639c0.226-0.266,0.758-0.266,1.09-0.532c0.668-0.373,1.551-0.586,2.325-0.959
		c0.422-0.16,0.773-0.373,1.162-0.479c0.369-0.16,0.867-0.107,1.084,0.053c0.163,0.16,0.2,0.266,0.31,0.426
		c0.02,0.053,0.216,0.159,0.307,0.266c0.254,0.266,0.383,0.48,0.633,0.586c0.16,0,0.692,0,0.94-0.054
		c2.142-0.266,4.194-0.639,6.481-0.798c0.372,0,0.901-0.16,1.256-0.213c1.115-0.16,1.663-0.266,2.851-0.373l1.453-0.106
		c0.101-0.32,0.345-0.532,0.57-0.799c0.295-0.373,1.715-3.142,2.081-3.462c0.186-0.532,2.476-4.154,2.677-4.793
		c0.142-0.052,0.104-0.159,0.085-0.213c0.316-0.159,0.237-0.532,0.304-0.798c0.194-0.053,0.282-0.107,0.313-0.319
		c-0.003-0.161-0.094-0.267-0.044-0.427c0.016-0.106,0.138-0.212,0.172-0.266c0.032-0.213,0.201-0.639,0.267-0.905
		c-0.059-0.319-0.009-0.48,0.145-0.799c0.191-0.213,0.43-1.65,0.853-1.811c0.159,0,0.745,2.717,1.099,2.664
		c0.27,0.159,0.613,1.438,0.924,1.864c0.708,0.798,0.176,0.798,0.68,2.077c0.019,0.054,0.091,0.107,0.253,0.266
		c0.26,1.491-2.09,4.794-2.673,5.858c0,0-0.762,1.012-1.179,1.491c1.701-0.159,6.243-0.266,11.143-0.266c0.213,0,0.267,0,0.479,0
		c0.708-1.011,0.617-1.118,1.253-2.184c0.771-1.438,1.577-2.929,2.098-4.473c0.939-1.864,1.558-3.889,1.887-6.125
		c-0.1-0.587,0.082-1.278-0.162-1.971c-0.112-0.32-0.348-0.533-0.319-0.906c-0.006-0.319,0.467-0.639,1.162-0.479
		c0.254,0.266,0.573,0.266,0.736,0.426c0.231,0.053,0.301-0.053,0.339,0.053c1.327,0.745,2.608,1.811,3.379,3.089
		C383.984,8.784,383.891,9.423,384.068,10.382z M371.018,38.608c-0.183,0.692-0.705,1.172-0.868,1.917c0,0-0.003-0.159,0.053,0
		c-0.016,0.107-0.369,0.16-0.206,0.319c-0.126-0.053-0.42,0.32-0.326,0.586c0.053,0,0.319,0,0.354-0.053
		c0.084-0.213,0.024-0.533,0.271-0.586c0.079-0.532,0.442-1.011,0.681-1.544C371.027,39.088,371.165,38.875,371.018,38.608z
		 M378.074,29.927c-0.019-0.052,0.106,0,0.159,0c-0.128-0.213,0.267,0,0.101-0.318C378.121,29.608,378.002,29.875,378.074,29.927z"
		/>
	<path fill="#FFFFFF" d="M401.635,29.98c0.019,0.053,0.022,0.213-0.013,0.266c0.47,1.332-0.783,1.705-1.229,2.557
		c-0.983,0.532-1.285,1.491-2.215,2.024c-0.05,0.16-0.244,0.213-0.383,0.426c0.091,0.106,0.285,0.053,0.267,0
		c-0.257,0.479-0.78,0.958-0.928,1.598c-0.25-0.107-0.037-0.107-0.109-0.159c-0.505,0.532-0.508,1.278-1.21,1.704
		c0.038,0.107,0.163,0.16,0.057,0.16c-0.213,0-0.153,0.32-0.295,0.372c0.019,0.054,0.091,0.107,0.091,0.107
		c-0.062,0.426-0.464,0.799-0.614,1.278c-0.053,0-0.141,0.054-0.281,0.107c0.075,0.213,0.197,0.106,0.128,0.213
		c-0.087,0.053-0.125-0.054-0.301,0.053c-0.072-0.053-0.016,0.106-0.069,0.106c0.091,0.107,0.072,0.053,0.163,0.16
		c-0.1,0.32-0.219,0.586-0.482,0.746c0.122,0.798-0.455,1.277-0.389,1.917c-0.106,0-0.16,0-0.16,0
		c0.075,0.214,0.06,0.319-0.024,0.533c-0.091-0.107-0.126-0.053-0.339-0.053c-0.075-0.214,0.339,0.053,0.351-0.214
		c-0.196-0.106-0.159,0-0.301,0.053c0.058-0.745,0.346-1.438,0.33-2.236c-0.072-0.053-0.072-0.053-0.179-0.053
		c-0.135,0.372-0.091,0.798-0.316,1.064c0.075,0.213,0.04,0.266,0.097,0.426c-0.398,1.438-0.292,3.249,0.438,5.166
		c0.057,0.16,0.159,0,0.213,0c0.057,0.16,0.003,0.16,0.021,0.213c-0.071-0.053-0.071-0.053-0.159,0c0.053,0-0.016,0.106,0.071,0.053
		c0.02,0.053,0.147,0.266,0.113,0.319c1.184,2.449,3.991,0.746,4.971,0.054c-0.138,0.212-0.4,0.372-0.467,0.639
		c-0.858,0.586-1.751,1.226-3.204,1.332c-0.64,0-1.288-0.479-1.761-1.065c-3.021-5.698-0.458-9.001,0.069-12.941
		c-0.909,0.746-1.905,1.544-2.833,2.237c0.11,0.159,0.305,0.106,0.376,0.159c-0.141,0.054-0.441,0.107-0.473,0.32
		c-0.946,0.639-2.037,1.171-2.729,2.078c-0.527,0.319-1.034,0.691-1.721,1.011c-0.677,0.799-1.388,1.651-2.55,2.13
		c0.109,0.16,0.003,0.16,0.112,0.319c-0.214,0-0.43-0.159-0.555-0.213c-0.053,0-0.141,0.054-0.141,0.054
		c-0.341-0.213-0.702-0.48-1.043-0.693c-0.739-0.585-2.002-1.598-1.359-2.343c-0.053,0-0.037-0.107-0.057-0.16
		c1.352-2.663,3.351-4.846,5.71-6.764c0.194-0.053-0.016,0.107,0.003,0.159c0.319,0,0.58-0.318,0.698-0.585
		c0.035-0.053-0.053,0-0.125-0.053c3.162-2.664,7.118-4.581,12.438-5.806c0.142-0.053,0.179,0.053,0.27,0.16
		c0.229-0.107,0.295-0.373,0.492-0.266c0.034-0.053,0.069-0.107,0.104-0.16C400.657,29.021,401.146,29.501,401.635,29.98z
		 M393.736,34.614c-2.419,1.598-4.637,3.462-6.745,5.486C389.425,38.395,391.734,36.638,393.736,34.614z"/>
	<path fill="#FFFFFF" d="M387.729,24.068c2.056-0.212,4.267-0.585,6.231-0.905c5.115-0.745,10.422-1.704,15.761-1.97
		c-1.63,0.213-3.49,0.372-5.044,0.798c0.091,0.107,0.247-0.053,0.604,0.054c-0.514,0.053-0.887,0.053-1.222,0.159
		c0.66,0.213,1.137,0.053,1.65,0c2.356-0.266,4.975-0.692,7.368-0.852c0.057,0.16,0.319,0,0.322,0.16
		c0.746,0,0.787-0.639,1.275-1.065c0.451-0.532,0.972-1.171,1.564-1.757c0.846-1.225,1.748-2.29,2.757-3.355
		c0.521-0.639,0.918-1.172,1.42-1.864c0.45-0.533,0.708-1.012,1.087-1.598c0.445,0.054,0.711,0.054,1.118,0
		c0.532,0,0.952,0.586,1.328,0.745c1.219,1.492,2.821,2.717,3.088,4.527c-0.53,1.065-1.978,1.491-2.758,2.45
		c0.197,0.106,0.392,0.054,0.677,0.106c3.393,0.107,6.798-0.052,10.441,0.161c3.771,0.426,8.551,0.692,12.203,2.29
		c0.507,0.533,0.855,1.065,1.027,1.704c0.021,0.212-0.213,0-0.316,0.16c-0.051,0.159,0.159,0,0.197,0.106
		c-0.122,0.107-0.244,0.213-0.26,0.319c0.304,0.107,0.021,0.213,0.359,0.266c-0.404,0.214-1.04,0.373-1.604,0.586
		c-0.106,0-0.21,0.16-0.64,0c0.806,0.319,0.887-0.053,1.473-0.053c-0.019-0.053,0.141-0.053,0.119-0.267
		c0.288,0.214,0.461-0.052,0.836,0.107c0.204,0.427-0.548,0.107-0.328,0.427c-0.62,0.053-0.903,0.159-1.451,0.266
		c0.109,0.159,0.194-0.054,0.267,0c-0.153,0.319-0.424,0.159-0.905,0c0.106,0,0.338,0.053,0.444,0.053
		c-0.66-0.214-1.096,0.213-1.61,0.266c-0.229,0.107-0.391-0.053-0.569-0.107c-0.301,0.054-0.533,0-0.853,0
		c-0.604-0.053-1.188,0.107-1.754,0.161c-0.194,0.053-0.589-0.161-0.783-0.107c-0.905,0-1.626,0.373-2.44,0.479
		c-0.467-0.267-1.049-0.106-1.494-0.16c0.019,0.054,0.125,0.054,0.179,0.054c-0.975,0.106-1.717,0.266-2.516,0.266
		c-0.072-0.054,0.106,0,0.141-0.054c-0.707,0.107-1.772,0.107-2.565,0.427c-0.125-0.054-0.091-0.107-0.091-0.107
		c-0.978-0.054-1.945,0.373-2.866,0.48c-0.053,0-0.339-0.054-0.053,0c4.918-1.758,10.632-2.771,15.676-4.474
		c-0.128-0.213-0.858-0.32-1.284-0.32c-0.908-0.159-1.642-0.426-2.174-0.426c-0.106,0-0.27-0.159-0.342-0.213
		c-0.016,0.107-0.013,0.266-0.153,0.32c-0.232-0.054-0.695-0.16-0.802-0.16c0.122-0.106,0.711,0.053,0.905,0
		c-0.82-0.213-1.729-0.373-2.187-0.16c-0.893-0.266-1.651,0-2.29,0c-0.122,0.107-0.457,0.213-0.779,0.054
		c0.231,0.053,0.479,0,0.639,0c-0.874-0.213-1.633,0.053-2.418-0.213c0.071,0.052,0.071,0.052,0.178,0.052
		c-0.101,0.32-0.654,0.107-0.867,0.107c-0.407,0.054-0.689,0.16-1.222,0.16c-0.248,0.053-0.837-0.106-1.369-0.106
		c0.019,0.053,0.038,0.106,0.038,0.106c-0.107,0-0.552-0.053-0.94,0.053c-0.054,0-0.125-0.053-0.125-0.053
		c-0.639,0-1.219,0.32-2.036,0.266c-0.141,0.054-0.555-0.213-0.817-0.053c-0.549,0.107-1.021,0.426-1.413,0.373
		c0.2,0.266,0.604,0.053,0.748,0.159c-0.582,0.16-1.378,0.32-2.036,0.266c-1.196,0.533-3.442,0.054-4.461,0.639
		c-0.034,0.054,0.057,0.161,0.11,0.161c-0.692,0-0.987,0.373-1.37,0.798c-0.244,0.212-0.416,0.479-0.485,0.585
		c-0.104,0.161-0.244,0.214-0.382,0.427c-0.523,0.479-1.294,1.012-1.639,1.544c-0.138,0.212-0.279,0.266-0.436,0.426
		c-0.139,0.213-0.257,0.479-0.464,0.798c-0.417,0.479-0.906,0.905-1.213,1.544c-0.16,0-0.069,0.107-0.247,0.054
		c-0.195,0.958-0.972,1.171-1.17,1.97c-0.332,0.267-0.607,0.693-0.937,1.119c-0.176,0.106-0.241,0.373-0.397,0.532
		c0.003,0.16-0.104,0.16-0.264,0.16c0.021,0.213,0.024,0.372-0.044,0.479c-0.226,0.266-0.521,0.639-0.708,1.012
		c-0.433,0.585-0.646,1.491-1.329,1.97c0.022,0.214-0.175,0.107-0.135,0.373c-0.498-0.053-0.633,0.32-0.68,0.639
		c-0.141,0.054-0.42,0.32-0.241,0.373c-0.016,0.107-0.142,0.053-0.176,0.107c0.078,1.277-0.908,1.65-0.871,2.663
		c-0.263,0.16-0.251,0.798-0.605,0.852c1.457-0.852,2.823-1.811,4.242-2.769c1.313-0.959,2.77-1.811,4.17-2.823
		c3.206-2.236,6.752-4.261,10.428-6.071c-1.157,0.799-2.275,1.704-3.435,2.343c-0.05,0.16-0.156,0.16-0.241,0.373
		c-0.197-0.107-0.389,0.106-0.366,0.319c-0.968,0.426-1.2,1.278-2.115,1.705c-0.122,0.106-0.084,0.213-0.119,0.266
		c-0.542,0.426-1.266,0.639-1.395,1.331c-0.46,0.053-0.613,0.373-1.074,0.426c-0.034,0.054-0.028,0.373-0.329,0.426
		c0.003,0.16,0.057,0.16,0.006,0.32c-0.695,0.745-1.682,1.118-2.287,1.97c-0.193,0.054-0.476,0.161-0.433,0.586
		c-0.312,0.319-0.657,0.853-1.256,1.119c0.021,0.212-0.21,0.159-0.348,0.373c-0.316,0.16-0.276,0.426-0.614,0.372
		c-0.479,0.906-1.448,1.332-1.89,2.344c0.04,0.266,0.22,0.319,0.329,0.479c-0.523,0.479-1.1,0.958-1.57,1.438
		c-0.213,0-0.106,0-0.122,0.106c-0.372,0-0.185,0.533-0.755,0.426c-0.016,0.107,0.021,0.213-0.047,0.319
		c-0.392-0.053-0.58,0.32-0.471,0.479c-0.46,0.054-0.613,0.373-1.005,0.32c0.037,0.106,0.163,0.16,0.216,0.16
		c-0.179-0.054-0.373,0-0.477,0.159c0,0-0.003-0.159,0.051-0.159c-0.088,0.053-0.319,0-0.692,0c-0.037-0.107,0.194-0.054-0.006-0.32
		c-0.232-0.053-0.224,0.426-0.439,0.266c-0.021-0.212,0.122-0.106,0.122-0.106c-0.021-0.213-0.288-0.213-0.141,0.053
		c-0.322-0.159-0.382-0.479-0.561-0.532c-0.106,0-0.444-0.054-0.479,0c-0.813-0.799-1.121-0.16-1.321-1.332
		c-1.463-1.278-0.356-2.823,0.051-3.781c2.596-7.137,6.15-13.367,10.227-19.173c-0.179-0.053-0.247,0.054-0.392-0.053
		c0.05-0.159,0.479,0,0.511-0.213c-0.514,0.054-1.187,0.107-1.914,0.16c0.21-0.16,0.602-0.106,0.868-0.106
		c-1.156-0.107-1.823,0.266-2.779,0.426c0.051-0.16,0.229-0.107,0.404-0.214c-1.027,0.107-2.465,0.107-3.349,0.32
		c0.047-0.32-0.213,0-0.413-0.266c-0.16,0,0.146,0.266-0.032,0.212c-0.481-0.159-0.633,0.32-0.989,0.214
		c0.019,0.053-0.122,0.106-0.065,0.266c-0.479,0-0.405,0.213-0.975,0.106c0.194-0.053,0.495-0.106,0.617-0.213
		c-0.308-0.266-0.354,0.054-0.654,0.107c0,0,0.178,0.053,0.193-0.053c0.091,0.106-0.229,0.106-0.281,0.106
		c0.125,0.053-0.298,0.213-0.617,0.213c0.156-0.16,0.263-0.16,0.528-0.16c-0.391-0.053-1.208-0.106-1.506,0.107
		c-0.054,0-0.109-0.16-0.198-0.107c-0.159,0-0.494,0.107-0.601,0.107c0.175-0.107,0.244-0.213,0.689-0.16
		c-0.445-0.053-0.689,0.16-1.065,0c-0.057-0.16,0.034-0.053,0.016-0.106c-0.267,0-0.586,0-0.708,0.106
		c0.072,0.053,0.035-0.053,0.088-0.053c-0.614,0.373-1.104,0.798-2.009,0.798c0.123-0.106,0.282-0.106,0.386-0.266
		c-0.392-0.053-0.548,0.107-0.884,0.213c-0.019-0.053,0.214,0,0.122-0.106c-0.231-0.053-0.031,0.213-0.46,0.053
		c0.054,0,0.16,0,0.16,0c-0.163-0.16-0.357-0.106-0.319,0c-0.286-0.053-0.853,0-0.85,0.16c-1.31,0.212-2.227,0.479-3.54,0.532
		c-0.106,0-0.031,0.214-0.335,0.107c0,0,0.213,0,0.175-0.107c-0.121,0.107-0.813,0.107-1.189-0.053c-0.053,0-0.05,0.16-0.05,0.16
		c-0.373,0-0.445-0.054-0.602,0.107c-0.662-0.214-1.354-0.214-2.046-0.214c-0.993,0.053-1.732-0.532-2.559-1.064
		c-0.311-0.427-1.091-1.278-0.978-1.864c0.223-0.426,1.05-0.799,1.579-0.958c1.491-0.906,3.96-1.757,5.708-2.237
		c0.975-0.107,1.771-0.266,2.566-0.425c-0.051,0.159-0.386,0.266-0.759,0.266c-0.689,0.159-1.395,0.425-2.087,0.425
		c-0.347,0.373-1.093,0.373-1.315,0.799c-0.213,0-0.263,0.16-0.46,0.054c-0.069,0.106,0.041,0.266-0.048,0.319
		c-1.341,0.426-2.324,0.958-3.18,1.704c0.145,0.106,0.301-0.054,0.389-0.107c0.094,0.266-0.436,0.426-0.573,0.639
		c0.351-0.213,0.037,0.107-0.282,0.107C386.737,24.122,387.144,24.068,387.729,24.068z M402.632,23.59
		c-0.389,0.106-0.708,0.106-0.918,0.266c-0.179-0.054-0.532,0-0.529,0.16c1.503-0.267,3.239-0.48,4.651-0.853
		c-0.814,0.107-1.309,0.214-2.07,0.32C403.377,23.59,402.629,23.429,402.632,23.59z M406.557,23.696
		c0.514-0.053,0.827-0.373,1.379-0.319c-0.978-0.053-1.523,0.213-2.053,0.372C406.03,24.016,406.362,23.749,406.557,23.696z
		 M412.459,22.312c-0.712-0.054-2.105,0.373-2.854,0.212c0.022,0.214-0.335,0.107-0.369,0.161c0,0,0.038,0.106,0.057,0.159
		c-0.677-0.106-1.335-0.159-1.648,0.16c-0.053,0-0.087,0.053-0.213,0c0.037,0.106,0.254,0.266,0.254,0.266
		c1.199-0.373,2.296-0.585,3.984-0.479c0.013-0.267,0.548-0.106,0.708-0.106c-0.369,0.159-0.849,0.159-1.077,0.266
		c0.247-0.054-0.213,0-0.64,0c-0.444-0.054-0.62,0.053-0.687,0.319c0.902-0.16,1.701-0.16,2.406-0.426c0,0,0.038,0.107,0.091,0.107
		c0.214,0,0.407-0.054,0.492-0.266c-0.194,0.053-0.281,0.106-0.533,0c0.393,0.053,0.85-0.161,0.828-0.373
		C413.082,22.418,412.74,22.205,412.459,22.312z M436.109,21.726c-0.673,0.053-1.676-0.373-2.221-0.107
		c0.714,0.214,1.494,0.16,2.434,0.107c-0.163-0.16-0.281,0.107-0.373,0C435.984,21.672,436.129,21.779,436.109,21.726z"/>
</g>
</svg>
