<?xml version="1.0" encoding="utf-8"?>
<!-- Generator: Adobe Illustrator 17.0.0, SVG Export Plug-In . SVG Version: 6.00 Build 0)  -->
<!DOCTYPE svg PUBLIC "-//W3C//DTD SVG 1.1//EN" "http://www.w3.org/Graphics/SVG/1.1/DTD/svg11.dtd">
<svg version="1.1" id="Calque_1" xmlns="http://www.w3.org/2000/svg" xmlns:xlink="http://www.w3.org/1999/xlink" x="0px" y="0px"
	 width="459px" height="76px" viewBox="0 0 459 76" enable-background="new 0 0 459 76" xml:space="preserve">
<g>
	<g>
		<path fill="#9EFF00" d="M35.38,58.598v12.476h-5.896V58.598l-9.143-17.944h6.451l5.683,12.262l5.597-12.262h6.451L35.38,58.598z"
			/>
		<path fill="#9EFF00" d="M66.184,67.997c-2.136,2.136-4.743,3.332-8.203,3.332s-6.11-1.196-8.246-3.332
			c-3.076-3.076-2.991-6.879-2.991-12.134s-0.085-9.058,2.991-12.134c2.136-2.136,4.785-3.333,8.246-3.333s6.067,1.196,8.203,3.333
			c3.076,3.076,3.034,6.879,3.034,12.134S69.26,64.921,66.184,67.997z M61.783,47.318c-0.854-0.982-2.179-1.624-3.802-1.624
			s-2.991,0.642-3.845,1.624c-1.153,1.281-1.453,2.691-1.453,8.545s0.299,7.263,1.453,8.545c0.854,0.982,2.222,1.623,3.845,1.623
			s2.948-0.641,3.802-1.623c1.154-1.282,1.496-2.691,1.496-8.545S62.937,48.6,61.783,47.318z"/>
		<path fill="#9EFF00" d="M86.008,71.329c-6.238,0-11.194-4.229-11.194-10.681V40.653h5.939v19.781c0,3.504,2.051,5.597,5.255,5.597
			s5.298-2.093,5.298-5.597V40.653h5.896v19.995C97.202,67.1,92.246,71.329,86.008,71.329z"/>
		<path fill="#9EFF00" d="M131.04,71.073l-1.794-5.384h-10.81l-1.837,5.384h-6.195l11.066-30.42h4.657l11.108,30.42H131.04z
			 M123.947,49.625l-3.845,11.066h7.562L123.947,49.625z"/>
		<path fill="#9EFF00" d="M157.144,71.073l-5.938-12.134h-4.272v12.134h-5.938v-30.42h11.92c6.195,0,9.869,4.229,9.869,9.313
			c0,4.272-2.606,6.922-5.554,7.99l6.793,13.116H157.144z M152.529,45.951h-5.597v8.032h5.597c2.606,0,4.315-1.666,4.315-4.017
			C156.845,47.617,155.136,45.951,152.529,45.951z"/>
		<path fill="#9EFF00" d="M168.936,71.073v-30.42h20.038v5.298h-14.099v7.135h12.006v5.298h-12.006v7.392h14.099v5.298H168.936z"/>
		<path fill="#9EFF00" d="M215.419,71.329c-6.238,0-11.194-4.229-11.194-10.681V40.653h5.939v19.781
			c0,3.504,2.051,5.597,5.255,5.597s5.298-2.093,5.298-5.597V40.653h5.896v19.995C226.613,67.1,221.657,71.329,215.419,71.329z"/>
		<path fill="#9EFF00" d="M251.223,71.073l-12.049-18.671v18.671h-5.938v-30.42h5.298l12.048,18.628V40.653h5.939v30.42H251.223z"/>
		<path fill="#9EFF00" d="M263.612,71.073v-30.42h5.939v30.42H263.612z"/>
		<path fill="#9EFF00" d="M295.698,72.354l-2.691-2.691c-1.709,1.111-3.76,1.666-6.152,1.666c-3.461,0-6.109-1.196-8.246-3.332
			c-3.076-3.076-2.99-6.879-2.99-12.134s-0.086-9.058,2.99-12.134c2.137-2.136,4.785-3.333,8.246-3.333s6.067,1.196,8.203,3.333
			c3.076,3.076,3.033,6.879,3.033,12.134c0,4.571,0.043,7.946-1.88,10.767l2.606,2.606L295.698,72.354z M290.657,47.318
			c-0.854-0.982-2.179-1.624-3.803-1.624c-1.623,0-2.99,0.642-3.845,1.624c-1.154,1.281-1.453,2.691-1.453,8.545
			s0.299,7.263,1.453,8.545c0.854,0.982,2.222,1.623,3.845,1.623c0.727,0,1.41-0.171,1.966-0.555l-2.649-2.606l3.162-3.119
			l2.264,2.265c0.471-1.324,0.556-3.076,0.556-6.152C292.152,50.01,291.811,48.6,290.657,47.318z"/>
		<path fill="#9EFF00" d="M314.839,71.329c-6.238,0-11.194-4.229-11.194-10.681V40.653h5.938v19.781
			c0,3.504,2.051,5.597,5.256,5.597c3.204,0,5.298-2.093,5.298-5.597V40.653h5.896v19.995
			C326.032,67.1,321.076,71.329,314.839,71.329z"/>
		<path fill="#9EFF00" d="M332.654,71.073v-30.42h20.038v5.298h-14.099v7.135h12.005v5.298h-12.005v7.392h14.099v5.298H332.654z"/>
	</g>
</g>
<g>
	<g>
		<path fill="#FFFFFF" d="M53.736,25.599c-0.102,0.082-0.072,0.246-0.128,0.369c-0.182,0.287-0.462,0.451-0.658,0.656
			c-0.213,0.328-0.418,0.697-0.716,0.983c-0.041,0.205,0.208,0.082,0.174,0.328c-0.171,0.123-0.138-0.123-0.324-0.082
			c-0.38,0.041-0.629,0.164-0.855,0.41c-0.455,0.491-0.757,1.188-1.151,1.803c-0.203,0.165-0.568,0.288-0.803,0.493
			c-0.445,0.327-0.573,0.697-0.811,1.106c0.051,0.287,0.264-0.041,0.307,0.205c-0.617,0.451-0.951,1.188-1.652,1.599
			c-0.263,0.697-1.071,0.943-1.563,1.435c-0.773,0-1.342,0.287-2.175,0.164c-0.131-0.082-0.268-0.205-0.469-0.246
			c-0.278-0.697-0.894-0.901-1.198-1.312c-0.205-0.286-0.367-0.983-0.415-1.477c-0.05-0.942,0.405-2.09,0.717-2.951
			c1-2.664,2.258-5.615,3.407-7.871c-1.136,0.574-1.872,1.886-3.024,2.583c-0.856,1.066-1.857,1.968-2.752,3.034
			c-0.694,0.45-1.136,1.229-1.738,1.763c-0.196,0.204-0.445,0.328-0.641,0.532c-0.336,0.287-0.45,0.738-0.708,1.025
			c-0.179,0.082-0.396,0.164-0.593,0.368c-0.164,0.165-0.275,0.41-0.44,0.574c-0.234,0.205-0.677,0.328-0.699,0.861
			c-1.468,1.106-2.614,2.5-4.028,3.688c-0.587,0.616-1.221,1.189-1.815,1.764c-0.844,0.697-1.792,1.681-2.827,2.172
			c-1.034,0.492-2.119,0.042-2.184-1.64c-0.06-0.778,0.407-1.64,0.772-2.419c2.209-4.796,4.885-9.141,7.897-13.322
			c1.833-2.541,3.478-4.837,5.267-6.969c1.601-1.886,3.311-3.812,4.889-5.821c0.315-0.41,0.823-1.476,1.767-0.942
			c0.254,0.123,0.817,0.901,1.16,1.312c0.64,0.779,1.894,1.968,1.562,3.156c-0.194,0.656-1.265,0.942-1.787,1.271
			c-0.242,0.163-0.314,0.41-0.472,0.614c-0.304,0.246-0.641,0.533-0.899,0.819c-2.198,2.01-4.154,4.51-5.97,6.929
			c-0.171-0.533-0.329-0.984-0.649-1.271c-0.817,0.409-1.115,1.353-1.879,1.845c-0.222,0.491-0.745,0.819-0.899,1.476
			c-0.266,0.246-0.578,0.45-0.562,0.983c-1.073,1.148-1.917,2.5-2.868,3.69c-0.092,0.573-0.581,1.312-0.934,1.722
			c-0.14,0.081-0.249,0.123-0.343,0.246c-0.188,0.245-0.186,0.696-0.643,0.737c-0.934,1.722-2.503,2.91-3.023,5.001
			c1.225-0.942,2.307-2.05,3.349-3.156c3.18-3.238,6.421-6.56,9.731-9.716c2.208-2.172,4.253-4.386,6.506-6.519
			c1.134-1.024,2.275-2.008,3.402-3.074c1.134-1.024,2.07-2.295,3.402-3.074c1.017,0.287,1.708,0.696,2.416,1.64
			c0.51,0.696,0.268,1.518-0.219,2.05c-0.048,0.164,0.167,0.287,0.058,0.328c-0.443,0.779-1.252,1.229-1.787,1.926
			c-0.699,0.861-1.207,1.928-2.058,2.584c-0.844,1.352-1.673,2.787-2.38,4.263c-0.116,0-0.176-0.123-0.324-0.082
			c-0.133,0.123-0.389,0.204-0.554,0.369c-0.063,0.082-0.034,0.246-0.16,0.409c-0.065,0.288-0.469,0.411-0.382,0.902
			c-0.302,0.041-0.367,0.328-0.578,0.451c-0.095,0.779-0.578,1.106-0.673,1.886c0.791-0.779,1.574-1.6,2.319-2.419
			c2.203-2.418,4.437-4.879,6.854-7.174c-0.544,0.861-1.363,1.476-2.045,2.214c-0.682,0.737-1.18,1.64-1.862,2.377
			c-0.503,0.656-1.183,1.188-1.77,1.805c-0.464,0.655-1.091,1.271-1.555,1.926c0.263-0.04,0.297-0.286,0.599-0.328
			c1.458-1.598,3.092-3.074,4.635-4.631c1.066-0.533,1.729-1.6,2.504-2.461c0.861-0.819,1.807-1.598,2.544-2.459
			c0.133-0.123,0.167-0.369,0.3-0.492c0.118-0.205,0.491-0.286,0.433-0.614c0.239,0.04,0.203-0.165,0.358-0.165
			c0.078,0-0.043-0.245,0.027-0.286c0.116,0,0.099,0.123,0.176,0.123c0.042-0.205,0.09-0.369,0.138-0.533
			c2.795-2.788,5.597-5.534,7.772-8.772c-0.201-0.041-0.322,0.368-0.617,0.451c-1.562,1.885-3.479,3.73-5.281,5.575
			c-0.259,0.286-0.595,0.574-0.815,0.86c-0.346,0.451-0.552,0.819-1.042,1.107c-0.414,0.286-0.675,0.778-1.074,1.147
			c-0.469,0.409-0.977,0.82-1.438,1.271c-0.5,0.45-0.917,0.943-1.393,1.312c-0.114-0.206,0.15-0.246,0.244-0.369
			c1.809-1.805,3.603-3.689,5.474-5.575c1.402-1.477,2.829-3.033,4.248-4.633c0.707-0.819,1.371-1.436,1.433-2.624
			c0.108-0.04,0.263-0.04,0.411-0.081c-0.005-0.247-0.002-0.451-0.007-0.697c-0.176-0.123-0.509-0.041-0.703-0.041
			c-0.051-0.286-0.532-0.164-0.691-0.409c-0.518-0.083-0.999,0.04-1.407-0.083c0.027-0.286,0.52-0.123,0.677-0.328
			c-0.563-0.122-1.194,0.246-1.774,0.246c-0.217,0.082-0.152-0.204-0.313-0.246c-0.436,0.165-0.948,0.328-1.55,0.205
			c0.877-0.287,2.089-0.656,3.188-0.778c0.225-0.041,0.64,0.122,0.744-0.164c-1.083,0-2.574-0.123-3.376,0.369
			c-0.479-0.083-0.689,0.04-0.839,0.286c-2.47,0.247-4.521,1.559-7.031,2.01c1.237-0.656,2.719-1.025,4.095-1.559
			c0.645-0.286,1.344-0.491,2.074-0.737c0.846-0.246,1.621-0.451,2.506-0.697c0.628-0.163,1.073-0.491,1.798-0.328
			c0.193,0,0.203-0.163,0.35-0.205c0.641,0.123,0.899-0.164,1.564-0.123c0.188,0.41,0.568,0.37,0.99,0.574
			c0.247,0.082,0.452,0.369,0.575,0.41c0.338,0.164,0.671,0.082,0.94,0.286c0.307,0.206,0.428,0.451,0.794,0.779
			c0.28,1.148,0.367,1.64-0.189,2.214c-0.251,0.328-0.931,0.86-0.62,1.312c-0.326,0.123-0.377,0.493-0.778,0.41
			c-0.21,0.123-0.353,0.41-0.351,0.861c-0.694,0.45-0.967,1.312-1.562,1.885c-0.063,0.083,0.051,0.288-0.104,0.288
			c-0.932,1.517-2.414,2.541-3.252,4.141c-0.116,0-0.232,0-0.31,0c-0.165,0.163-0.229,0.45-0.409,0.532
			c-0.024,0.082-0.186,0.04-0.302,0.04c-0.363,0.574-0.917,0.944-1.371,1.436c-0.196,0.206-0.307,0.451-0.503,0.655
			c-0.304,0.247-0.793,0.328-0.814,0.862c0.167,0.286,0.21-0.123,0.418-0.042c-0.307,0.451-0.745,0.82-1.091,1.271
			c-0.314,0.41-0.706,0.82-1.105,1.189c-0.445,0.327-0.744,0.82-1.104,1.188c-0.392,0.41-0.868,0.779-1.014,1.271
			c0.628-0.165,0.783-0.82,1.298-1.188C57,22.4,56.483,22.975,55.901,23.18c-0.177,0.533-0.445,0.984-1.035,1.148
			c0.097-0.328,0.461-0.451,0.513-0.82c-0.355-0.04-0.358,0.164-0.392,0.411c-0.302,0.04-0.329,0.327-0.44,0.572
			c0.092,0.083,0.225-0.04,0.256-0.081C54.827,24.984,54.075,25.107,53.736,25.599z M49.604,30.887
			c0.251-0.327,0.319-0.82,0.8-0.942c0.14-0.082,0.128-0.369,0.223-0.492c0.239,0.041,0.287-0.123,0.435-0.163
			C50.675,29.944,50.09,30.354,49.604,30.887z M51.265,29.124c0.027-0.286,0.395-0.614,0.644-0.737
			C51.751,28.592,51.577,28.92,51.265,29.124z M57.191,18.876c-0.522,0.328-0.791,0.779-1.321,1.065
			c-0.031,0.697-0.875,0.738-1.006,1.312c0.918-0.492,1.932-1.764,2.628-2.419c0.234-0.205,0.522-0.328,0.316-0.614
			c-0.086,0.163-0.227,0.245-0.452,0.286C57.264,18.63,57.254,18.794,57.191,18.876z M61.597,14.694
			c-0.126,0.165-0.436,0.165-0.393,0.41C61.391,15.063,61.517,14.899,61.597,14.694z M61.768,14.571
			c0.609-0.491,1.267-1.147,1.577-1.803c-0.685,0.286-0.726,1.147-1.463,1.352C61.833,14.285,61.725,14.325,61.768,14.571z"/>
		<path fill="#FFFFFF" d="M71.2,22.894c0.167,0.286,0.667,0.492,0.826,0.737c0,0-0.056,0.123-0.034,0.246
			c0.012,0.287,0.154,0.656,0.283,0.942c-0.095,0.123-0.042,0.205,0.065,0.369c0.075,0.205,0.188,0.41,0.2,0.697
			c0.046,0.041,0.2,0.041,0.254,0.124c-0.109,0.04-0.208-0.083-0.31,0c-0.01,0.163-0.111,0.245-0.188,0.245
			c-0.273,0.204-0.488,0.081-0.728,0.041c-0.123-0.041-0.271,0-0.457,0.04c-0.147,0.042-0.295,0.083-0.442,0.123
			c-0.861,0.165-1.622,0.451-2.482,0.616c-0.102,0.081-0.21,0.123-0.351,0.204c-0.691,0.247-1.312,0.451-2.035,0.738
			c-0.116,0-0.218,0.081-0.365,0.123c-0.109,0.041-0.257,0.082-0.358,0.163c-0.147,0.042-0.217,0.083-0.365,0.123
			c-0.607,0.288-1.144,0.533-1.75,0.82c-0.179,0.082-0.389,0.205-0.568,0.287c-1.339,0.737-2.586,1.558-3.873,2.378
			c-0.172,0.122-0.343,0.245-0.592,0.368c-0.157,0.205-0.498,0.247-0.648,0.493c0.222,0.163,0.454,0.163,0.602,0.122
			c0.155,0,0.271,0,0.418-0.041c0.186-0.041,0.341-0.041,0.481-0.123c1.866-0.163,3.575-0.778,5.351-1.229
			c0.217-0.082,0.403-0.123,0.621-0.205c0.372-0.082,0.691-0.246,1.134-0.369c0.154,0,0.302-0.041,0.449-0.082
			c0.839-0.286,1.6-0.574,2.4-0.86c0.186-0.041,0.358-0.164,0.583-0.205c0.754-0.328,1.479-0.82,2.41-1.025
			c-0.817,0.411-1.694,0.697-2.521,1.271c-0.14,0.082-0.312,0.205-0.529,0.287c-0.747,0.369-1.494,0.737-2.272,1.147
			c-0.14,0.082-0.281,0.164-0.467,0.205c-0.396,0.164-0.747,0.368-1.073,0.491c-0.218,0.082-0.428,0.205-0.575,0.247
			c-0.844,0.696-2.243,0.655-2.887,1.393c-0.503,0.656-1.409,0.124-1.919,0.739c-0.232,0-0.496,0.04-0.66,0.205
			c-0.193,0-0.411,0.081-0.628,0.163c-0.481,0.123-1.015,0.164-1.627,0.205c-0.51-0.041-1.102-0.328-1.353-0.656
			c0.274,0.902-1.136-0.737,0.357-3.894c0.575-0.902,1.238-1.968,1.99-2.747c0.394,0.041,0.416-0.491,0.778-0.41
			c-0.053-0.081-0.015-0.081-0.036-0.204l0.036,0.204c0.193,0,0.266-0.246,0.312-0.204c0.019,0.328-0.112,0.245-0.213,0.328
			c-0.154,0-0.133,0.122-0.157,0.204c-0.133,0.123-0.326,0.123-0.312,0.205c0.106,0.163,0.169,0.082,0.155,0
			c0.029,0.163-0.058,0.328-0.191,0.451c-0.343,0.246-0.767,0.696-0.933,1.065c0.287-0.123,0.37-0.532,0.742-0.614
			c0.979-1.025,1.929-2.214,3.092-3.075c-0.067-0.164,0.204-0.164,0.221-0.287c-0.232,0-0.281,0.164-0.46,0.246
			c-0.132,0.123-0.364,0.123-0.528,0.288c-0.235,0.204-0.501,0.449-0.827,0.572c0.048-0.163,0.249-0.123,0.297-0.286
			c0.062-0.082,0.165-0.164,0.15-0.246l0.398-0.369c0.07-0.041-0.099-0.122-0.043-0.245c0.203-0.165,0.505-0.205,0.563-0.533
			c0.587-0.615,1.375-1.189,2.154-1.6c0.795-0.532,1.574-0.942,2.514-1.312c0.878-0.287,1.77-0.491,2.775-0.491
			c0.503,0,0.882-0.042,1.297,0.123c0.155,0,0.363,0.081,0.416,0.163c0.124,0.042,0.307,0.205,0.515,0.288
			c0.215,0.122,0.493,0.163,0.831,0.326C71.167,22.483,71.21,22.729,71.2,22.894z M56.468,29.903c-0.116,0-0.147,0.041-0.257,0.082
			C56.412,30.026,56.468,29.903,56.468,29.903z M57.599,28.427c-0.146,0.042-0.125,0.165-0.125,0.165S57.606,28.469,57.599,28.427z
			 M60.683,28.592c-0.007-0.042-0.077,0-0.179,0.081C60.504,28.673,60.62,28.673,60.683,28.592z M65.822,25.065
			c-1.025,0.328-2.014,0.861-2.802,1.436c1.39-0.451,2.666-1.107,4.039-1.436c0.428-0.204,0.923-0.246,1.351-0.45
			c-0.299-0.164-0.633-0.082-0.942-0.082L65.822,25.065z"/>
		<path fill="#FFFFFF" d="M116.568,1.699c-0.953,0.738-1.001,0.902-1.424,1.354c-0.147,0.04-0.51,0.614-0.581,0.656
			c-0.14,0.081-0.619,0.655-0.791,0.777c-0.186,0.042-0.416,0.493-0.556,0.574c-0.469,0.41-0.665,0.616-1.151,1.148
			c-0.119,0.205-0.336,0.287-0.455,0.491c-0.762,0.944-1.848,2.461-2.646,3.198c-0.321,0.369-1.959,2.705-2.319,3.074
			c-0.43,0.41-1.18,1.641-1.572,2.05l-0.552,0.819c-0.22,0.288-0.269,0.451-0.644,0.738c-0.017,0.123-0.072,0.247-0.205,0.369
			c-0.031,0.041-0.031,0.041-0.031,0.041c-0.409,0.533-0.803,1.148-1.422,1.804c-0.036-0.205-0.557,0.573-0.549,0.615l-0.793,0.983
			c0.06,0.123,0.077,0,0.285,0.082c-0.22,0.287-0.602,0.533-0.936,0.614c0.008,0.042-0.031,0.042-0.023,0.083
			c0.038,0,0.053,0.082,0.06,0.123c-0.077,0-0.077,0-0.116,0c0.039,0,0.032-0.041,0.017-0.123c-0.07,0.04-0.14,0.082-0.171,0.123
			c0.036,0.205,0.045,0.04,0.154,0c-0.138,0.533-0.648,0.491-0.771,1.105c-0.271,0-0.259,0.288-0.607,0.288
			c-0.169,0.574-0.573,1.354-1.199,1.968c-0.039,0-0.031,0.041-0.031,0.041l0.031-0.041c2.096-0.614,6.56-2.05,8.751-2.337
			c0.14-0.082-0.017,0.123-0.002,0.205c1.407-0.573,3.379-0.573,4.736,0.327c0.145,0.165,0.152,0.205,0.188,0.411
			c0.616,0.205,0.582,1.105,0.878,1.476c-0.239-0.041-0.316-0.041-0.386,0c0.152,0.204,0.283,0.286,0.304,0.409
			c-0.048,0.165-0.043,0.411-0.053,0.574c-0.273,0.205-0.6,0.328-0.866,0.574c-0.08,0.205-0.114,0.451-0.317,0.614
			c-0.263,0.042-0.461-0.204-0.819-0.04c-0.372,0.082-0.602,0.532-1.029,0.737c-0.242,0.164-0.651,0.041-0.938,0.164
			c-0.505,0.205-0.936,0.615-1.664,0.655c-0.227,0.246-0.725,0.493-1.044,0.656c-0.155,0-0.273,0.206-0.331-0.123
			c-0.062,0.083,0.031,0.615-0.493,0.492c-0.036-0.205,0.326-0.123,0.283-0.369c-0.435,0.164-0.923,0.246-1.375,0.533
			c-1.39,0.45-2.246,0.861-3.635,1.312c-0.544,0.206,0.604-0.082-1.724,0.533c-1.354,0.656-2.318,1.107-3.543,1.394
			c-0.148,0.041-0.066,0.287-0.174,0.328c-1.114,0.042-1.869,1.024-2.618,1.599c-0.102,0.082-0.263,0.041-0.358,0.164
			c-0.536,0.246-0.631,1.024-1.293,0.779c-0.099-0.123,0.089,0.287,0.05,0.287c-0.621-0.451-0.416-0.164-0.71-0.738
			c0.058-0.328-0.007-0.697-0.13-0.737h-0.038c-0.077,0-0.109,0.04-0.141,0.082c-0.106-0.165-0.147-0.616-0.353-0.902
			c0.136-0.328,0.546-0.41,0.414-0.942c0.641-1.19,1.48-2.133,2.259-3.198c-0.043-0.246-0.065-0.369-0.017-0.532
			c0.222,0.163,0.321-0.37,0.44-0.574c0.275-0.41,0.728-0.697,1.02-1.23c1.028-1.188,1.84-2.5,2.713-3.689
			c0.426-0.655,1.835-2.746,2.619-3.565c-0.007-0.042-0.06-0.123,0.002-0.206c-0.007-0.04-0.015-0.082-0.053-0.082
			c0.094-0.123,0.203-0.163,0.234-0.205l3.289-4.591c2.124-2.87,3.543-5.124,4.396-5.984c0.095-0.124,0.426-0.656,0.685-0.944
			c-0.007-0.04,0.049-0.163,0.087-0.163l0.724-0.942c-0.095,0.123-0.445,0.328,1.639-1.886c0.039,0,0.077,0,0.109-0.042l0.636-0.778
			c0.822-0.819,0.846-0.901,0.822-0.819c-0.182,0.942,1.044-0.656,1.542-0.902c0.031-0.041,0.07-0.041,0.07-0.041s0.039,0,0.077,0
			l0.225-0.041c0,0,0,0,0.008,0.041c0.326-0.123,1.897-0.861,2.013-0.861C115.108,1.535,115.942,1.002,116.568,1.699z
			 M92.468,28.387c-0.102,0.082-0.242,0.163-0.22,0.286c0,0,0,0,0.115,0C93.094,27.771,93.594,27.321,92.468,28.387z M97.327,28.755
			c-0.116,0-0.13-0.082-0.285-0.082c-0.387,0.656-0.094,0.123-0.612,0.697c-0.355-0.041-1.336,1.189-1.659,1.558
			c-0.275,0.41-0.331,0.533-0.662,1.066c4.169-2.009,7.795-4.468,11.675-6.806c-0.007-0.041-0.314-0.246-0.471-0.041l-0.389,0.206
			l-0.59,0.163c-0.696,0-0.604,0.082-1.117,0.246c-0.906,0.779-1.858,0.861-2.859,1.107c-0.063,0.082-0.02,0.328-0.174,0.328
			C99.223,27.443,98.157,27.977,97.327,28.755z M100.265,21.295c0.031-0.041,0.017-0.123-0.022-0.123c0.116,0,0.232,0,0.169,0.082
			C100.325,21.418,100.311,21.335,100.265,21.295z M100.265,21.295 M105.039,11.087c0,0-0.078,0-0.102,0.082
			c-0.031,0.041-0.039,0-0.126,0.164c-0.048,0.164-0.086,0.164-0.156,0.205c-0.088,0.163,0.046,0.041,0.192,0
			c0.102-0.082,0.175-0.328,0.175-0.328L105.039,11.087z M111.303,4.077c0.031-0.041-0.067-0.164-0.029-0.164s0.455-0.492,0.3-0.492
			c-0.077,0-0.508,0.41-0.592,0.369c-0.162-0.041-0.358,0.164-0.351,0.205c-0.172,0.123-0.15,0.246-0.188,0.246
			c-0.116,0-0.042,0.205-0.221,0.287c-0.07,0.041-0.102,0.081-0.171,0.123c-0.071,0.04-0.133,0.123-0.165,0.163
			c-0.28,0.165-0.476,0.369-0.602,0.533c0.007,0.041-0.165,0.164-0.181,0.287c-0.039,0,0.039,0,0.053,0.082
			c0.007,0.041-0.024,0.082-0.024,0.082c0.015,0.082-0.184,0.492-0.196,0.204c0.073-0.245-0.196,0.206-0.196,0.206
			c-0.031,0.041-0.273,0.205-0.312,0.205c0,0-0.087,0.163-0.119,0.205c-0.062,0.081-0.203,0.163-0.203,0.163
			s-0.186,0.042-0.157,0.206c0,0,0.012,0.286-0.027,0.286c-0.084-0.041-0.322,0.37-0.322,0.37l0.073-0.247
			c0,0-0.228,0.247-0.16,0.41c0.029,0.163-0.133,0.123-0.196,0.205c-0.094,0.123-0.116,0-0.171,0.123
			c-0.196,0.205-0.377,0.491-0.455,0.491s-0.314,0.411-0.314,0.411s0.053,0.081-0.048,0.163c0.007,0.041-0.228,0.246-0.206,0.369
			c0.061,0.123-0.377,0.491-0.556,0.574c-0.048,0.163,0.029,0.163-0.058,0.328c-0.182,0.286-0.346,0.451-0.409,0.532
			c0.109-0.041,0.116,0,0.256-0.081c0.321-0.369,0.855-1.066,1.499-1.805c0.056-0.123-0.039,0,0.049-0.163
			c0.133-0.123,0.174-0.329,0.174-0.329l0.087-0.163l0.203-0.164h0.039l0.133-0.123c0,0-0.027,0.287-0.174,0.328
			c-0.147,0.04-0.126,0.163-0.119,0.205c0.707-0.82,1.381-1.6,1.773-2.01c0.031-0.041,0.14-0.081,0.171-0.123
			c0.196-0.204,0.182-0.286,0.189-0.245c-0.073,0.245,0.251-0.329,0.314-0.41c0.141-0.082,0.242-0.164,0.312-0.205
			c-0.036-0.205,0.283-0.369,0.535-0.696l-0.281,0.163l-0.179,0.082l0.088-0.163l0.101-0.082c0,0,0.201,0.04,0.179-0.083
			c0.01-0.163,0.171-0.123,0.171-0.123l0.029,0.165L111.303,4.077z"/>
		<path fill="#FFFFFF" d="M127.883,22.894c0.167,0.286,0.667,0.492,0.827,0.737c0,0-0.056,0.123-0.034,0.246
			c0.012,0.287,0.154,0.656,0.282,0.942c-0.095,0.123-0.042,0.205,0.065,0.369c0.075,0.205,0.188,0.41,0.2,0.697
			c0.045,0.041,0.201,0.041,0.253,0.124c-0.108,0.04-0.208-0.083-0.309,0c-0.01,0.163-0.112,0.245-0.189,0.245
			c-0.273,0.204-0.489,0.081-0.728,0.041c-0.124-0.041-0.271,0-0.457,0.04c-0.147,0.042-0.295,0.083-0.442,0.123
			c-0.861,0.165-1.622,0.451-2.482,0.616c-0.102,0.081-0.21,0.123-0.351,0.204c-0.691,0.247-1.312,0.451-2.035,0.738
			c-0.116,0-0.218,0.081-0.365,0.123c-0.109,0.041-0.256,0.082-0.358,0.163c-0.147,0.042-0.217,0.083-0.365,0.123
			c-0.606,0.288-1.143,0.533-1.75,0.82c-0.179,0.082-0.389,0.205-0.568,0.287c-1.339,0.737-2.586,1.558-3.873,2.378
			c-0.172,0.122-0.343,0.245-0.592,0.368c-0.157,0.205-0.498,0.247-0.648,0.493c0.222,0.163,0.454,0.163,0.602,0.122
			c0.155,0,0.271,0,0.418-0.041c0.187-0.041,0.341-0.041,0.481-0.123c1.866-0.163,3.575-0.778,5.351-1.229
			c0.217-0.082,0.403-0.123,0.621-0.205c0.372-0.082,0.691-0.246,1.133-0.369c0.154,0,0.302-0.041,0.45-0.082
			c0.838-0.286,1.6-0.574,2.4-0.86c0.187-0.041,0.358-0.164,0.583-0.205c0.754-0.328,1.479-0.82,2.41-1.025
			c-0.817,0.411-1.694,0.697-2.521,1.271c-0.14,0.082-0.312,0.205-0.529,0.287c-0.747,0.369-1.494,0.737-2.272,1.147
			c-0.14,0.082-0.281,0.164-0.467,0.205c-0.396,0.164-0.747,0.368-1.073,0.491c-0.218,0.082-0.428,0.205-0.576,0.247
			c-0.844,0.696-2.243,0.655-2.886,1.393c-0.503,0.656-1.409,0.124-1.919,0.739c-0.231,0-0.495,0.04-0.659,0.205
			c-0.193,0-0.411,0.081-0.629,0.163c-0.481,0.123-1.015,0.164-1.626,0.205c-0.51-0.041-1.102-0.328-1.353-0.656
			c0.275,0.902-1.136-0.737,0.357-3.894c0.576-0.902,1.239-1.968,1.99-2.747c0.395,0.041,0.416-0.491,0.779-0.41
			c-0.053-0.081-0.015-0.081-0.036-0.204l0.036,0.204c0.193,0,0.266-0.246,0.312-0.204c0.019,0.328-0.112,0.245-0.213,0.328
			c-0.154,0-0.133,0.122-0.157,0.204c-0.132,0.123-0.326,0.123-0.312,0.205c0.106,0.163,0.168,0.082,0.154,0
			c0.029,0.163-0.058,0.328-0.191,0.451c-0.343,0.246-0.767,0.696-0.933,1.065c0.287-0.123,0.37-0.532,0.742-0.614
			c0.979-1.025,1.929-2.214,3.092-3.075c-0.068-0.164,0.203-0.164,0.22-0.287c-0.232,0-0.281,0.164-0.459,0.246
			c-0.133,0.123-0.365,0.123-0.529,0.288c-0.235,0.204-0.5,0.449-0.827,0.572c0.048-0.163,0.249-0.123,0.298-0.286
			c0.062-0.082,0.164-0.164,0.15-0.246l0.399-0.369c0.07-0.041-0.099-0.122-0.043-0.245c0.203-0.165,0.505-0.205,0.563-0.533
			c0.587-0.615,1.375-1.189,2.154-1.6c0.795-0.532,1.574-0.942,2.514-1.312c0.878-0.287,1.77-0.491,2.775-0.491
			c0.503,0,0.882-0.042,1.297,0.123c0.155,0,0.363,0.081,0.416,0.163c0.123,0.042,0.307,0.205,0.514,0.288
			c0.215,0.122,0.493,0.163,0.831,0.326C127.85,22.483,127.893,22.729,127.883,22.894z M113.15,29.903
			c-0.116,0-0.147,0.041-0.256,0.082C113.095,30.026,113.15,29.903,113.15,29.903z M114.282,28.427
			c-0.147,0.042-0.125,0.165-0.125,0.165S114.29,28.469,114.282,28.427z M117.366,28.592c-0.007-0.042-0.077,0-0.179,0.081
			C117.187,28.673,117.303,28.673,117.366,28.592z M122.505,25.065c-1.025,0.328-2.013,0.861-2.802,1.436
			c1.39-0.451,2.666-1.107,4.039-1.436c0.428-0.204,0.923-0.246,1.351-0.45c-0.299-0.164-0.633-0.082-0.942-0.082L122.505,25.065z"
			/>
		<path fill="#FFFFFF" d="M151.628,6.905c0.051,0.288-0.097,0.328-0.068,0.492c0.007,0.041-0.102,0.082-0.195,0.205
			c-0.008,0.615-0.53,0.942-1.104,1.64c-0.486,0.533-0.614,0.902-1.093,1.476c-0.299,0.492-0.903,0.574-1.068,1.395
			c-0.358,0.163-0.438,0.368-0.576,0.901c-0.66,0.205-0.892,0.86-1.298,1.189c-0.048,0.163,0.145,0.163,0.089,0.286
			c-0.597,0.124-0.636,0.779-1.04,0.902c-0.193,0-0.165,0.164-0.242,0.164c-0.039,0-0.094,0.123-0.232,0
			c-0.658,1.312-1.804,2.049-2.275,3.32c-0.116,0-0.087,0.164-0.193,0c-0.32,0.819-0.735,1.312-1.214,1.886
			c-0.179-0.574,0.302-0.697,0.399-1.024c-0.162-0.042-0.372,0.081-0.133,0.123c-0.404,0.123-0.417,0.491-0.499,0.901
			c-0.102,0.082-0.217,0.082-0.488,0.082c-0.048,0.164,0.278,0.04,0.261,0.164c-0.203,0.164-0.403,0.123-0.636,0.123
			c-0.333,0.737-2.28,3.73-2.75,4.14c-0.104,0.288-0.232,0.656-0.457,0.697l0.004,0.246c-0.507,0.41-0.977,0.819-1.207,1.271
			c-0.087,0.164-0.046-0.041-0.123-0.041c-0.206,0.369-0.563,0.533-0.462,1.106c0.137,0.123,0.171-0.123,0.203-0.163
			c0.469-0.41,0.977-0.82,1.114-1.354l0.133-0.123c0.254-0.532,0.529-0.942,0.887-1.106c0.029,0.164-0.198,0.41-0.307,0.451
			c-0.237,0.41-0.597,0.778-0.655,1.106c-0.172,0.123-0.182,0.287-0.346,0.451c0.007,0.041-0.147,0.041-0.087,0.164
			c-0.353,0.41-0.491,0.943-0.707,1.476c-0.348,0-0.343,0.246-0.448,0.533c0.177,0.123,0.193,0,0.31,0
			c-0.119,0.204-0.208,0.574-0.416,1.148c-0.223,0.491-1.013,0.614-0.619,1.312l1.953-1.64c0.485-0.534,0.943-1.23,1.828-1.477
			c0.065,0.369-0.155,0.656-0.327,0.779c-0.513,0.819-1.115,1.353-1.656,2.009c-0.675,0.778-1.567,1.64-2.087,2.419
			c0.007,0.04-0.073,0.245-0.251,0.327c-0.276,0.41-0.675,0.778-0.979,1.024c-0.167,0.37-0.464,0.656-0.974,0.616
			c-0.208-0.083-0.314-0.246-0.701-0.246c-0.959-0.616-1.263-1.682-1.998-2.337c-0.031-0.615,0.308-1.107,0.63-1.476
			c0.152-0.451,0.428-0.862,0.696-1.312c1.372-2.091,2.702-3.978,4.164-5.986c2.283-3.279,6.314-8.485,8.728-11.683
			c1.722-2.296,3.819-4.878,5.642-7.256c0.667-0.82,0.762-0.943,1.564-1.435c0.155,0,0.014,0.082,0.253,0.123
			c0.039,0-0.841,0.491-0.554,0.368c0.232,0,1.173-0.368,1.212-0.368c0.13,0.082,0.229,0.205,0.297,0.368
			c0,0,0.173,0.984,0.356,1.148C151.645,6.782,151.894,6.659,151.628,6.905z M140.765,21.172c-0.038,0-0.241,0.163-0.28,0.163
			c-0.172,0.779-2.648,3.403-2.767,4.264c-0.179,0.082-0.234,0.205-0.358,0.164c0.087-0.164,0.237-0.409,0.295-0.738
			c0.065-0.286,2.143-2.541,2.078-2.91c0.42-0.246,0.658-0.656,1.025-0.983C140.758,21.131,140.758,21.131,140.765,21.172z
			 M145.162,14.53c0.099,0.123,0.077,0,0.116,0c0.46-0.901,1.195-1.558,1.683-2.295l0.22-0.287c0.116,0,0.203-0.164,0.111-0.247
			c0.421-0.245,0.307-0.45,0.65-0.696c0.138-0.532,0.327-0.778,0.74-1.066c0.094-0.122,0.326-0.122,0.493-0.491
			c-0.138-0.123-0.021-0.123-0.021-0.123c0.251-0.328,0.819-0.614,1.035-1.147c0.007,0.041,0,0,0.123,0.041
			c0.017-0.124,0.104-0.287,0.167-0.369c0.104-0.287,0.235-0.204,0.153-0.451c-0.056,0.124-0.077,0-0.193,0
			c0,0-0.189,0.247-0.225,0.041c-0.029-0.164,0.602-0.533,0.574-0.696c-0.172,0.123-0.648,0.491-0.53,0.286
			c0.157-0.204-0.377,0.493-0.377,0.493c-0.163,0.614-0.929,1.312-0.856,1.065c-0.095,0.123-0.189,0.246-0.182,0.286
			c0.051,0.288-0.268,0.451-0.44,0.574c-0.021-0.123-0.149,0.246-0.382,0.246c-0.017,0.123-0.056,0.123-0.094,0.123
			c-0.636,0.778-1.313,1.763-1.901,2.378c0.072,0.409-0.285,0.574-0.629,0.819l0.058,0.328c-0.336,0.287-0.51,0.615-0.892,0.861
			c-0.116,0-0.418,0.04-0.413,0.286c0.193,0,0.149-0.246,0.348,0c-0.302,0.041-0.275,0.41-0.476,0.37
			c0.084,0.04,0.029,0.163-0.165,0.163c0,0,0,0,0.077,0c-0.309,0-0.382,0.246-0.525,0.533c-0.024,0.081,0.015,0.081,0.022,0.123
			c-0.849,1.106-1.48,2.131-2.452,3.197c-0.007-0.041-0.021-0.123,0.094-0.123c-0.154,0-0.256,0.082-0.266,0.246
			c-0.095,0.122,0.116,0,0.137,0.122c-0.094,0.123-0.318,0.165-0.461,0.451l0.029,0.165c-0.31,0-0.184,0.491-0.438,0.369
			c-0.21,0.122-0.174,0.327-0.174,0.327c-0.464,0-0.217,0.738-0.692,0.901c-0.062,0.083-0.312,0.205-0.283,0.369
			c0.503,0,0.322-0.369,0.669-0.369c0.109-0.04,0.015,0.083,0,0l1.386-1.352l-0.029-0.165c0.333-0.081,0.13-0.574,0.58-0.655
			c0.292-0.533,0.713-0.779,0.9-1.476c0.137,0.122,0.087-0.164,0.203-0.164c0.05,0.286,0.947-0.984,0.947-0.984
			C143.948,15.76,144.635,15.269,145.162,14.53z M143.178,14.243c-0.239-0.04-0.125,0.165-0.239-0.04
			c0,0.656-0.745,0.819-0.873,1.188c0.051,0.287-0.43,0.41-0.218,0.738l0.965-1.107c0.133-0.123-0.021-0.123,0.104-0.286
			c0.193,0,0.455-0.493,0.542-0.656c0.286-0.574,0.474-0.82,0.982-1.23l-0.021-0.123c-0.203,0.165-0.515,0.369-0.624,0.41
			C143.632,13.752,143.168,13.752,143.178,14.243z"/>
		<path fill="#FFFFFF" d="M143.688,31.83c-0.256,0.082-0.268,0.45-0.524,0.532c-0.032,0.042-0.024,0.083-0.01,0.165
			c-0.077,0-0.263,0.041-0.273,0.204c-0.039,0-0.032,0.042-0.07,0.042l0.015,0.081c-0.172,0.123-0.23,0.451-0.447,0.533
			c0.089,0.286-0.252,0.328-0.232,0.656c-0.109,0.041-0.249,0.123-0.411,0.081c0.082,0.246-0.167,0.369-0.109,0.697
			c0.512-0.164,0.757-0.532,1.223-0.737c1.1-0.779,2.086-1.763,3.087-2.665c1.33-1.23,2.621-2.46,3.873-3.689
			c0.029,0.164-0.065,0.287-0.082,0.41c-0.22,0.286-0.503,0.655-0.784,0.819c-0.07,0.041-0.133,0.123-0.126,0.164
			c-0.16,0.41-0.657,0.656-0.895,1.065c-0.039,0-0.062,0.082-0.172,0.124l-0.094,0.123l-0.252,0.327
			c-0.272,0.205-0.486,0.533-0.899,0.819c-0.009,0.165-0.128,0.37-0.229,0.451l-0.133,0.123l-0.102,0.082
			c-0.157,0.206-0.247,0.574-0.65,0.697c-0.024,0.082-0.095,0.123-0.097,0.328c-0.039,0-0.07,0.041-0.109,0.041
			c-0.181,0.287-0.346,0.451-0.573,0.696c-0.073,0.246-0.36,0.369-0.503,0.656c-0.095,0.123-0.143,0.287-0.399,0.369
			c-0.104,0.287-0.431,0.41-0.549,0.614c-0.326,0.123-0.508,0.411-0.887,0.451c-0.193,0-0.332-0.123-0.447-0.123
			c-0.13-0.082-0.193,0-0.271,0c-0.039,0-0.323-0.082-0.408-0.122l-0.745-0.492c-0.099-0.123-0.188-0.41-0.238-0.697
			c-0.106-0.819,0.281-1.476,0.527-2.05c0.279-0.614,0.627-1.271,0.912-1.845l0.757-1.188c0.772-1.106,1.667-2.173,2.522-3.239
			c0.426-0.655,1.028-1.188,1.492-1.845c0.109-0.04,0.172-0.123,0.273-0.204l0.5-0.451c0.25-0.779,0.626,0.041,1.052,0.041
			c0.342,0.41,1.877,1.436,1.708,2.009c-0.216,0.533-0.622,0.861-1.028,1.189c-0.171,0.123-0.228,0.246-0.452,0.286
			c-0.133,0.123-0.312,0.205-0.399,0.369c-0.263,0.041-0.283,0.368-0.508,0.41c-0.196,0.205-0.515,0.369-0.619,0.655
			c-0.53,0.287-0.915,0.738-1.313,1.107c-0.086,0.163-0.343,0.246-0.423,0.451c-0.14,0.082-0.295,0.082-0.396,0.163l-0.056,0.123
			l-0.165,0.165c-0.101,0.081-0.143,0.286-0.244,0.368c-0.148,0.041-0.288,0.123-0.336,0.287c-0.102,0.082-0.133,0.122-0.249,0.122
			C143.698,31.666,143.667,31.707,143.688,31.83z M157.567,17.564c-0.614,0.245-0.752,0.779-1.521,1.024
			c-0.042,0.205-0.252,0.328-0.416,0.492c0,0,0.2,0.04,0.053,0.082c-0.062,0.081-0.242,0.164-0.435,0.164
			c0.346,0.205-0.072,0.245,0.087,0.491c-0.094,0.123-0.413,0.288-0.585,0.41c0.029,0.164,0.036,0.205,0.096,0.328
			c-0.024,0.082-0.287,0.123-0.012,0.369c-0.193,0-0.295,0.082-0.267,0.246c-0.561,0.328-1.547,0.656-2.301,0.983
			c-0.179,0.082-0.297,0.287-0.483,0.328c-0.078,0-0.116,0-0.271,0c-0.751,0.123-1.293,0.779-2.228,0.738
			c-0.264,0.041-0.455-0.165-0.834-0.124c-0.029-0.163-0.089-0.286-0.304-0.409c-0.355-0.697-0.958-1.271-1.229-1.927
			c0.877-0.287,1.496-0.943,2.586-0.901c0.077,0,0.232,0,0.271,0c0.534-0.042,0.916-0.288,1.436-0.41
			c2.166-0.656,4.165-1.6,6.644-2.009C157.792,17.523,157.668,17.482,157.567,17.564z"/>
		<path fill="#FFFFFF" d="M168.057,22.894c0.167,0.286,0.667,0.492,0.826,0.737c0,0-0.056,0.123-0.034,0.246
			c0.012,0.287,0.154,0.656,0.283,0.942c-0.095,0.123-0.042,0.205,0.065,0.369c0.075,0.205,0.188,0.41,0.2,0.697
			c0.046,0.041,0.2,0.041,0.254,0.124c-0.109,0.04-0.208-0.083-0.31,0c-0.01,0.163-0.111,0.245-0.188,0.245
			c-0.273,0.204-0.488,0.081-0.728,0.041c-0.123-0.041-0.271,0-0.457,0.04c-0.147,0.042-0.295,0.083-0.442,0.123
			c-0.861,0.165-1.622,0.451-2.482,0.616c-0.102,0.081-0.21,0.123-0.351,0.204c-0.691,0.247-1.312,0.451-2.035,0.738
			c-0.116,0-0.218,0.081-0.365,0.123c-0.109,0.041-0.257,0.082-0.358,0.163c-0.147,0.042-0.217,0.083-0.365,0.123
			c-0.607,0.288-1.144,0.533-1.75,0.82c-0.179,0.082-0.389,0.205-0.568,0.287c-1.339,0.737-2.586,1.558-3.873,2.378
			c-0.172,0.122-0.343,0.245-0.592,0.368c-0.157,0.205-0.498,0.247-0.648,0.493c0.222,0.163,0.454,0.163,0.602,0.122
			c0.155,0,0.271,0,0.418-0.041c0.186-0.041,0.341-0.041,0.481-0.123c1.866-0.163,3.575-0.778,5.351-1.229
			c0.217-0.082,0.403-0.123,0.621-0.205c0.372-0.082,0.691-0.246,1.134-0.369c0.154,0,0.302-0.041,0.449-0.082
			c0.839-0.286,1.6-0.574,2.4-0.86c0.186-0.041,0.358-0.164,0.583-0.205c0.754-0.328,1.479-0.82,2.41-1.025
			c-0.817,0.411-1.694,0.697-2.521,1.271c-0.14,0.082-0.312,0.205-0.529,0.287c-0.747,0.369-1.494,0.737-2.272,1.147
			c-0.14,0.082-0.281,0.164-0.467,0.205c-0.396,0.164-0.747,0.368-1.073,0.491c-0.218,0.082-0.428,0.205-0.575,0.247
			c-0.844,0.696-2.243,0.655-2.887,1.393c-0.503,0.656-1.409,0.124-1.919,0.739c-0.232,0-0.496,0.04-0.66,0.205
			c-0.193,0-0.411,0.081-0.628,0.163c-0.481,0.123-1.015,0.164-1.627,0.205c-0.51-0.041-1.102-0.328-1.353-0.656
			c0.274,0.902-1.136-0.737,0.357-3.894c0.575-0.902,1.238-1.968,1.99-2.747c0.394,0.041,0.416-0.491,0.778-0.41
			c-0.053-0.081-0.015-0.081-0.036-0.204l0.036,0.204c0.193,0,0.266-0.246,0.312-0.204c0.019,0.328-0.112,0.245-0.213,0.328
			c-0.154,0-0.133,0.122-0.157,0.204c-0.133,0.123-0.326,0.123-0.312,0.205c0.106,0.163,0.169,0.082,0.155,0
			c0.029,0.163-0.058,0.328-0.191,0.451c-0.343,0.246-0.767,0.696-0.933,1.065c0.287-0.123,0.37-0.532,0.742-0.614
			c0.979-1.025,1.929-2.214,3.092-3.075c-0.067-0.164,0.204-0.164,0.221-0.287c-0.232,0-0.281,0.164-0.46,0.246
			c-0.132,0.123-0.364,0.123-0.528,0.288c-0.235,0.204-0.501,0.449-0.827,0.572c0.048-0.163,0.249-0.123,0.297-0.286
			c0.062-0.082,0.165-0.164,0.15-0.246l0.398-0.369c0.07-0.041-0.099-0.122-0.043-0.245c0.203-0.165,0.505-0.205,0.563-0.533
			c0.587-0.615,1.375-1.189,2.154-1.6c0.795-0.532,1.574-0.942,2.514-1.312c0.878-0.287,1.77-0.491,2.775-0.491
			c0.503,0,0.882-0.042,1.297,0.123c0.155,0,0.363,0.081,0.416,0.163c0.124,0.042,0.307,0.205,0.515,0.288
			c0.215,0.122,0.493,0.163,0.831,0.326C168.023,22.483,168.066,22.729,168.057,22.894z M153.324,29.903
			c-0.116,0-0.147,0.041-0.257,0.082C153.268,30.026,153.324,29.903,153.324,29.903z M154.455,28.427
			c-0.146,0.042-0.125,0.165-0.125,0.165S154.463,28.469,154.455,28.427z M157.539,28.592c-0.007-0.042-0.077,0-0.179,0.081
			C157.36,28.673,157.477,28.673,157.539,28.592z M162.679,25.065c-1.025,0.328-2.014,0.861-2.802,1.436
			c1.39-0.451,2.666-1.107,4.039-1.436c0.428-0.204,0.923-0.246,1.351-0.45c-0.299-0.164-0.633-0.082-0.942-0.082L162.679,25.065z"
			/>
		<path fill="#FFFFFF" d="M191.466,19.695c-0.049,0.82-0.808,0.902-1.216,1.436c-0.344,0.246-0.701,0.409-0.89,0.655
			c-0.116,0-0.109,0.042-0.187,0.042c-0.104,0.286-0.452,0.286-0.609,0.491c-0.154,0-0.147,0.041-0.14,0.081
			c-0.329,0.329-0.754,0.329-0.904,0.574l-0.344,0.247c-0.017,0.123,0.116,0,0.022,0.123c-0.07,0.041-0.133,0.123-0.259,0.286
			c0.225-0.04,0.351-0.205,0.583-0.205c0.01-0.163-0.067-0.163-0.229-0.204c0.017-0.124,0.256-0.082,0.396-0.165
			c0.039,0,0.095-0.122,0.302-0.04c-0.102,0.081-0.263,0.04-0.249,0.123c0.34-0.042,0.631-0.369,0.943-0.574
			c0.621-0.205,1.153-0.697,1.683-0.984c0.14-0.081,0.382-0.246,0.469-0.409c0.026,0.368-0.206,0.368-0.431,0.409
			c-0.157,0.205-0.406,0.328-0.71,0.574l-0.781,0.615l-0.373,0.081c-0.056,0.123-0.08,0.205-0.15,0.246
			c-0.256,0.082-0.527,0.082-0.631,0.37c0.147-0.042,0.404-0.123,0.614-0.246c0.476-0.37,0.991-0.738,1.629-1.066
			c-0.244,0.369-0.662,0.41-0.999,0.696c-0.147,0.042-0.266,0.246-0.36,0.37c-0.249,0.123-0.73,0.246-0.834,0.532
			c-0.28,0.165-0.638,0.328-0.925,0.451c-0.218,0.082-0.319,0.163-0.382,0.246c-0.109,0.04-0.094,0.123-0.157,0.205l-0.327,0.123
			c-0.07,0.04-0.126,0.163-0.242,0.163c-0.102,0.082-0.249,0.123-0.396,0.165c-0.024,0.081-0.157,0.205-0.297,0.286
			c-0.179,0.082-0.295,0.082-0.396,0.165c-0.102,0.081-0.211,0.122-0.429,0.204c-0.14,0.082-0.272,0.205-0.406,0.328
			c-0.193,0-0.288,0.123-0.42,0.245c-0.196,0.206-0.513,0.165-0.532,0.493c-0.326,0.123-0.537,0.246-0.74,0.409
			c-0.155,0,0,0-0.021-0.123c-0.249,0.123-0.411,0.083-0.42,0.246c0.014,0.082,0,0,0.039,0c-0.002,0.205-0.119,0.205-0.097,0.328
			c0.085,0.041,0.133-0.123,0.196-0.205c0.193,0,0.327-0.123,0.421-0.246c0.203-0.163,0.459-0.246,0.778-0.409
			c0.242-0.164,0.416-0.493,0.802-0.493c0.044,0.246-0.305,0.246-0.367,0.329c-0.165,0.164-0.297,0.287-0.515,0.368
			c-0.287,0.123-0.452,0.288-0.624,0.41c0,0-0.039,0-0.109,0.041c-0.039,0-0.171,0.123-0.288,0.123
			c0.007,0.041-0.109,0.041-0.109,0.041c-0.039,0-0.062,0.082-0.094,0.123c0,0-0.039,0-0.133,0.123
			c-0.116,0-0.217,0.082-0.241,0.164c-0.193,0-0.204,0.164-0.242,0.164c-0.141,0.081-0.234,0.204-0.474,0.164
			c-0.056,0.123-0.111,0.246-0.252,0.328l-0.161-0.042c0,0,0.021,0.123-0.018,0.123c-0.024,0.082-0.021-0.123-0.061-0.123
			c-0.154,0-0.133,0.123-0.21,0.123c0.015,0.082,0.015,0.082,0.053,0.082c0.007,0.042-0.038,0-0.038,0
			c-0.032,0.042-0.056,0.123-0.048,0.165c-0.148,0.04-0.232,0-0.319,0.163c-0.145-0.163-0.186,0.041-0.294,0.083
			c0.014,0.081-0.148,0.04-0.15,0.245c-0.435,0.164-0.662,0.41-0.991,0.737c-0.116,0-0.13-0.082-0.13-0.082
			c-0.032,0.042-0.048,0.165-0.104,0.288c-0.078,0-0.061-0.123-0.061-0.123h-0.31c-0.031,0.04,0.046,0.04,0.029,0.163
			c-0.077,0-0.102,0.083-0.172,0.123c0.007,0.042,0.046,0.042-0.002,0.205c-0.109,0.041-0.184-0.163-0.193,0
			c-0.07,0.041-0.017,0.123-0.048,0.165c-0.235,0.204-0.622,0.204-0.81,0.45c-0.039,0-0.024,0.082-0.017,0.122
			c-0.662,0.411-1.257,0.985-1.858,1.518c-0.218,0.082-0.336,0.287-0.455,0.492c-0.063,0.081-0.172,0.123-0.273,0.204
			c-0.242,0.165-0.36,0.37-0.426,0.656c-0.474,0.165-0.68,0.533-0.969,0.861c-0.119,0.204-0.167,0.369-0.448,0.533
			c-0.15,0.245-0.307,0.45-0.341,0.696c-0.232,0-0.31,0-0.379,0.041c-0.084-0.041-0.131-0.081-0.177-0.123
			c-0.703-0.041-0.889-0.655-1.476-0.697l-0.336-0.368c-0.022-0.123,0.034-0.246,0.058-0.328c0.675-0.778,0.943-1.886,1.388-2.869
			c0.897-1.928,1.819-3.936,2.77-5.78l1.558-2.788c0.283-0.368,0.45-0.737,0.648-1.147c0.208-0.574,0.685-0.943,0.776-1.517
			c0.08-0.205,0.305-0.246,0.614-0.246c0.405,0.328,1.545,1.312,2.029,1.64c0.188,0.41,0.71,0.737,0.906,1.188
			c0.164,0.493-0.232,0.656-0.489,0.738c-0.048,0.164-0.235,0.204-0.297,0.287c-0.193,0-0.225,0.041-0.242,0.164
			c-0.133,0.123-0.199,0.409-0.423,0.45c-0.29,0.328-0.426,0.656-0.604,0.738c-0.431,0.409-0.759,0.738-1.013,1.271
			c-0.141,0.081-0.167,0.368-0.36,0.368c0.019-0.328-0.108-0.614-0.379-0.614c-0.148,0.04-0.206,0.369-0.368,0.327
			c-0.111,0.247-0.167,0.369-0.346,0.451c-0.094,0.123-0.126,0.164-0.196,0.205c-0.031,0.041-0.041,0.205-0.196,0.205
			c0.015,0.082,0.053,0.082,0.169,0.082c-0.196,0.204-0.36,0.369-0.527,0.737c-0.154,0-0.256,0.083-0.273,0.206
			c0.015,0.081,0.099,0.123,0.106,0.163c-0.072,0.246-0.205,0.369-0.253,0.533c-0.032,0.041-0.186,0.041-0.172,0.123
			c0.45-0.082,0.851-0.656,1.271-0.902l0.568-0.287c0.101-0.081,0.258-0.286,0.476-0.369c0.031-0.04,0.186-0.04,0.179-0.081
			c0.116,0,0.298-0.287,0.406-0.328c0.102-0.082,0.14-0.082,0.186-0.041c0.133-0.123,0.15-0.246,0.329-0.328
			c0.07-0.041,0.271,0,0.319-0.164c0.21-0.123,0.351-0.205,0.399-0.369c0.66-0.205,1.037-0.696,1.598-1.024
			c0.49-0.287,1.005-0.655,1.527-0.983c0.694-0.451,1.434-0.861,2.058-1.271c0.389-0.205,0.778-0.41,1.083-0.656l0.094-0.123
			c0.133-0.122,0.25-0.122,0.474-0.163c0.14-0.082,0.329-0.328,0.515-0.369c1.208-0.82,2.533-1.641,3.558-2.624
			c0.078,0,0.116,0,0.102-0.082c0.669-0.368,0.962-0.901,1.257-1.64c0.114-0.451,0.119-0.86,0.332-1.188
			c0.116,0,0.172-0.123,0.341-0.041c0.113,0.204,0.073,0.41,0.091,0.738l0.062,0.573c0.118,0.451,0.288,1.189,0.021,1.435
			C191.357,19.737,191.466,19.695,191.466,19.695z M180.606,28.059c0.379-0.041,0.476-0.369,0.88-0.492
			c0.062-0.082,0.249-0.123,0.21-0.123c-0.653,0.246-1.073,0.492-1.479,0.82C180.495,28.304,180.519,28.223,180.606,28.059z
			 M181.525,26.255c0.034-0.245,0.375-0.287,0.57-0.492c-0.551,0.164-0.848,0.451-1.184,0.738
			C181.175,26.459,181.255,26.255,181.525,26.255z M188.621,20.884c0.123,0.042,0.172-0.122,0.217-0.081
			c-0.055,0.123-0.094,0.123-0.242,0.164c0,0-0.014-0.083-0.085-0.041c-0.038,0-0.038,0-0.069,0.041
			c0.007,0.041,0.045,0.041,0.06,0.122c-0.22,0.288-0.5,0.451-0.819,0.615c0.011,0.287-0.143,0.287-0.283,0.37
			c-0.092-0.083-0.271,0-0.433-0.042c-0.034,0.246-0.389,0.205-0.539,0.451c-0.092-0.083-0.217,0.082-0.249,0.123
			c0.116,0,0.109-0.041,0.155,0c-0.179,0.082-0.143,0.287-0.22,0.287c-0.007-0.042,0.07-0.042-0.029-0.164
			c-0.201-0.041-0.133,0.122-0.126,0.164c-0.186,0.041-0.188,0.246-0.466,0.204c-0.017,0.124-0.048,0.165-0.111,0.247
			c0,0-0.077,0-0.116,0c-0.087,0.163-0.22,0.286-0.406,0.327c0.017-0.123-0.029-0.164-0.058-0.327
			c0.063-0.082,0.056-0.123,0.256-0.082l0.188-0.246c0.109-0.042,0.365-0.123,0.351-0.205c-0.264,0.04-0.474,0.163-0.585,0.41
			c-1.291,0.573-2.374,1.229-3.52,1.967c0.193,0,0.278,0.042,0.418-0.041c0.123,0.041,0.015,0.083,0.053,0.083
			c0.558-0.123,0.928-0.656,1.532-0.739c0.094-0.123,0.073-0.245,0.112-0.245c0.186-0.041,0.287-0.123,0.452-0.287
			c0.193,0,0.288-0.123,0.45-0.082c0.039,0-0.024,0.082-0.01,0.165c0.21-0.123,0.474-0.165,0.701-0.411
			c-0.007-0.04,0.031-0.04,0.108-0.04c0.561-0.328,1.076-0.697,1.76-0.984c0.111-0.246,0.336-0.287,0.599-0.328
			c-0.048,0.164,0.247,0.082,0.232,0c-0.184-0.164-0.232,0-0.239-0.041c0.048-0.163,0.234-0.205,0.42-0.246
			c0.119-0.205,0.196-0.205,0.235-0.205l0.171-0.123c0.281-0.163,0.505-0.205,0.648-0.491l0.273-0.205
			c0.062-0.083,0.326-0.123,0.396-0.164c0.094-0.123,0.244-0.369,0.307-0.451c-0.036-0.205,0.041-0.205,0.111-0.245
			c-0.084-0.042-0.154,0-0.162-0.042c-0.007-0.041,0.07-0.041,0.041-0.204c-0.099-0.123-0.087,0.163-0.327,0.123
			c-0.039,0-0.029-0.165-0.067-0.165c-0.07,0.042-0.048,0.165-0.08,0.205C189.3,20.352,188.911,20.557,188.621,20.884z
			 M183.181,25.559c0.433,0.04,0.537-0.246,0.839-0.288l0.143-0.286h-0.039C183.858,25.23,183.447,25.312,183.181,25.559z
			 M184.172,24.164c-0.225,0.041-0.372,0.082-0.445,0.327c-0.021-0.123-0.138-0.123-0.232,0c0.007,0.042-0.031,0.042-0.017,0.124
			c0.271,0,0.326-0.124,0.49-0.287c0.07-0.041,0.257-0.082,0.358-0.164c-0.007-0.041-0.021-0.122-0.137-0.122
			C184.211,24.164,184.211,24.164,184.172,24.164z M186.35,23.795c-0.07,0.041-0.203,0.164-0.326,0.124
			c-0.403,0.123-0.747,0.368-1.161,0.655c-0.07,0.041,0.046,0.041,0.029,0.164c-0.246-0.082-0.28,0.164-0.473,0.164
			c-0.039,0,0.007,0.04,0.014,0.082c-0.031,0.04-0.147,0.04-0.133,0.123c-0.133,0.123-0.017,0.123-0.017,0.123
			c0.193,0,0.351-0.206,0.459-0.246c0.428-0.205,0.786-0.369,1.16-0.656c0.125-0.164,0.343-0.246,0.529-0.286h-0.116
			c0.097-0.329,0.212-0.329,0.43-0.411c0.063-0.082,0.119-0.205,0.157-0.205c-0.007-0.04-0.007-0.04-0.007-0.04
			c-0.147,0.04-0.435,0.163-0.606,0.286C186.312,23.795,186.413,23.713,186.35,23.795z M184.863,25.886h-0.116
			c-0.102,0.082-0.196,0.205-0.382,0.246c0.413-0.287,0.689-0.696,1.247-0.819C185.424,25.559,185.098,25.681,184.863,25.886z
			 M186.188,24.41c0.155,0,0.179-0.082,0.379-0.042c0.087-0.163,0.375-0.286,0.609-0.491l0.164-0.164
			c0.039,0,0.264-0.041,0.218-0.082c-0.39,0.205-0.972,0.411-1.245,0.615C186.335,24.368,186.219,24.368,186.188,24.41z
			 M189.622,19.983c0,0,0,0-0.021-0.123c0.039,0-0.007-0.042-0.007-0.042c-0.242,0.165-0.343,0.246-0.609,0.493
			c-0.056,0.122-0.189,0.245-0.36,0.368c-0.459,0.246-0.774,0.655-1.202,0.86c-0.077,0-0.187,0.041-0.165,0.164
			c0.8-0.286,1.194-0.901,1.857-1.312C189.17,20.27,189.366,20.064,189.622,19.983z M190.301,21.418l-0.088,0.163
			c-0.217,0.082-0.333,0.082-0.537,0.247c-0.309,0-0.406,0.327-0.638,0.327c0.062-0.081,0.333-0.081,0.399-0.369
			c0.225-0.041,0.52-0.123,0.723-0.286c0.039,0,0.077,0,0.077,0c0.205-0.369,0.587-0.616,0.906-0.779c-0.021-0.123,0.039,0,0.039,0
			C191.047,21.049,190.583,21.049,190.301,21.418z"/>
		<path fill="#FFFFFF" d="M202.315,22.894c0.167,0.286,0.667,0.492,0.827,0.737c0,0-0.056,0.123-0.034,0.246
			c0.012,0.287,0.154,0.656,0.282,0.942c-0.095,0.123-0.042,0.205,0.065,0.369c0.075,0.205,0.188,0.41,0.2,0.697
			c0.045,0.041,0.201,0.041,0.253,0.124c-0.108,0.04-0.208-0.083-0.309,0c-0.01,0.163-0.112,0.245-0.189,0.245
			c-0.273,0.204-0.489,0.081-0.728,0.041c-0.124-0.041-0.271,0-0.457,0.04c-0.147,0.042-0.295,0.083-0.442,0.123
			c-0.861,0.165-1.622,0.451-2.482,0.616c-0.102,0.081-0.21,0.123-0.351,0.204c-0.691,0.247-1.312,0.451-2.035,0.738
			c-0.116,0-0.218,0.081-0.365,0.123c-0.109,0.041-0.256,0.082-0.358,0.163c-0.147,0.042-0.217,0.083-0.365,0.123
			c-0.606,0.288-1.143,0.533-1.75,0.82c-0.179,0.082-0.389,0.205-0.568,0.287c-1.339,0.737-2.586,1.558-3.873,2.378
			c-0.172,0.122-0.343,0.245-0.592,0.368c-0.157,0.205-0.498,0.247-0.648,0.493c0.222,0.163,0.454,0.163,0.602,0.122
			c0.155,0,0.271,0,0.418-0.041c0.187-0.041,0.341-0.041,0.481-0.123c1.866-0.163,3.575-0.778,5.351-1.229
			c0.217-0.082,0.403-0.123,0.621-0.205c0.372-0.082,0.691-0.246,1.133-0.369c0.154,0,0.302-0.041,0.45-0.082
			c0.838-0.286,1.6-0.574,2.4-0.86c0.187-0.041,0.358-0.164,0.583-0.205c0.754-0.328,1.479-0.82,2.41-1.025
			c-0.817,0.411-1.694,0.697-2.521,1.271c-0.14,0.082-0.312,0.205-0.529,0.287c-0.747,0.369-1.494,0.737-2.272,1.147
			c-0.14,0.082-0.281,0.164-0.467,0.205c-0.396,0.164-0.747,0.368-1.073,0.491c-0.218,0.082-0.428,0.205-0.576,0.247
			c-0.844,0.696-2.243,0.655-2.886,1.393c-0.503,0.656-1.409,0.124-1.919,0.739c-0.231,0-0.495,0.04-0.659,0.205
			c-0.193,0-0.411,0.081-0.629,0.163c-0.481,0.123-1.015,0.164-1.626,0.205c-0.51-0.041-1.102-0.328-1.353-0.656
			c0.275,0.902-1.136-0.737,0.357-3.894c0.576-0.902,1.239-1.968,1.99-2.747c0.395,0.041,0.416-0.491,0.779-0.41
			c-0.053-0.081-0.015-0.081-0.036-0.204l0.036,0.204c0.193,0,0.266-0.246,0.312-0.204c0.019,0.328-0.112,0.245-0.213,0.328
			c-0.154,0-0.133,0.122-0.157,0.204c-0.132,0.123-0.326,0.123-0.312,0.205c0.106,0.163,0.168,0.082,0.154,0
			c0.029,0.163-0.058,0.328-0.191,0.451c-0.343,0.246-0.767,0.696-0.933,1.065c0.287-0.123,0.37-0.532,0.742-0.614
			c0.979-1.025,1.929-2.214,3.092-3.075c-0.068-0.164,0.203-0.164,0.22-0.287c-0.232,0-0.281,0.164-0.459,0.246
			c-0.133,0.123-0.365,0.123-0.529,0.288c-0.235,0.204-0.5,0.449-0.827,0.572c0.048-0.163,0.249-0.123,0.298-0.286
			c0.062-0.082,0.164-0.164,0.15-0.246l0.399-0.369c0.07-0.041-0.099-0.122-0.043-0.245c0.203-0.165,0.505-0.205,0.563-0.533
			c0.587-0.615,1.375-1.189,2.154-1.6c0.795-0.532,1.574-0.942,2.514-1.312c0.878-0.287,1.77-0.491,2.775-0.491
			c0.503,0,0.882-0.042,1.297,0.123c0.155,0,0.363,0.081,0.416,0.163c0.123,0.042,0.307,0.205,0.514,0.288
			c0.215,0.122,0.493,0.163,0.831,0.326C202.281,22.483,202.325,22.729,202.315,22.894z M187.582,29.903
			c-0.116,0-0.147,0.041-0.256,0.082C187.526,30.026,187.582,29.903,187.582,29.903z M188.714,28.427
			c-0.147,0.042-0.125,0.165-0.125,0.165S188.722,28.469,188.714,28.427z M191.797,28.592c-0.007-0.042-0.077,0-0.179,0.081
			C191.618,28.673,191.734,28.673,191.797,28.592z M196.937,25.065c-1.025,0.328-2.013,0.861-2.802,1.436
			c1.39-0.451,2.666-1.107,4.039-1.436c0.428-0.204,0.923-0.246,1.351-0.45c-0.299-0.164-0.633-0.082-0.942-0.082L196.937,25.065z"
			/>
	</g>
</g>
</svg>
